---
title: "Glacier 277"
date: 2014-01-07 01:11:37
---
<svg xmlns="http://www.w3.org/2000/svg" version="1" x="0" y="0" width="310" height="310" viewBox="0 0 310 310" enable-background="new 0 0 310 310" xml:space="preserve"><polygon fill="#DCDCDC" points="147 135 152 135 158 134 159 133 162 133 163 134 165 140 168 154 169 155 169 158 169 158 169 169 168 175 165 177 162 177 156 173 155 170 154 168 153 166 150 163 148 161 147 159 144 153 143 151 141 139 142 137 143 135 147 135 147 135 147 135 147 135 147 135 147 135 "/></svg>
