---
title: "Glacier 30"
date: 2014-01-07 01:07:30
---
<svg xmlns="http://www.w3.org/2000/svg" version="1" x="0" y="0" width="310" height="310" viewBox="0 0 310 310" enable-background="new 0 0 310 310" xml:space="preserve"><polygon fill="#DCDCDC" points="120 168 112 157 111 154 113 142 113 136 119 130 121 129 125 125 128 124 137 124 139 125 142 125 154 127 158 131 170 139 186 149 196 158 199 161 197 181 196 182 196 183 194 184 186 185 159 186 154 186 148 182 143 179 127 173 125 171 120 168 120 168 120 168 120 168 120 168 "/></svg>
