---
title: "Glacier 196"
date: 2014-01-07 01:10:16
---
<svg xmlns="http://www.w3.org/2000/svg" version="1" x="0" y="0" width="310" height="310" viewBox="0 0 310 310" enable-background="new 0 0 310 310" xml:space="preserve"><polygon fill="#DCDCDC" points="140 136 142 135 144 133 148 131 153 132 155 132 156 133 161 136 170 146 171 149 172 152 170 154 169 157 169 159 171 161 173 164 174 165 175 168 175 169 176 170 175 172 172 175 168 178 167 179 163 178 160 177 154 175 153 175 148 168 146 165 146 162 146 162 142 156 141 154 139 151 136 146 134 143 140 136 140 136 140 136 140 136 140 136 140 136 "/></svg>
