---
title: "Glacier 197"
date: 2014-01-07 01:10:17
---
<svg xmlns="http://www.w3.org/2000/svg" version="1" x="0" y="0" width="310" height="310" viewBox="0 0 310 310" enable-background="new 0 0 310 310" xml:space="preserve"><polygon fill="#DCDCDC" points="138 166 143 169 158 168 161 167 165 167 178 165 180 165 181 162 181 155 174 148 170 146 164 143 161 143 158 142 150 141 147 141 143 141 136 143 132 143 131 144 129 144 129 152 131 160 135 162 138 166 138 166 138 166 138 166 138 166 138 166 "/></svg>
