---
title: "Glacier 80"
date: 2014-01-07 01:08:20
---
<svg xmlns="http://www.w3.org/2000/svg" version="1" x="0" y="0" width="310" height="310" viewBox="0 0 310 310" enable-background="new 0 0 310 310" xml:space="preserve"><polygon fill="#DCDCDC" points="128 209 126 208 123 206 122 205 121 205 116 205 113 201 113 200 111 196 110 195 109 193 109 190 109 189 108 187 108 181 107 180 107 178 109 175 116 167 116 165 119 156 120 149 121 147 122 143 124 140 124 137 121 127 120 126 119 122 122 118 126 114 128 113 129 110 131 110 149 110 150 109 151 108 152 107 153 106 159 102 162 101 174 101 179 103 183 107 182 108 191 108 199 111 200 111 201 112 202 112 202 118 203 131 201 133 197 134 197 136 195 139 195 140 193 143 192 145 192 147 191 150 191 151 187 154 184 156 184 158 184 169 184 173 185 180 182 183 181 186 179 188 168 195 165 196 165 197 162 198 160 197 157 197 150 197 148 199 146 199 145 200 137 202 128 209 128 209 128 209 128 209 128 209 128 209 "/></svg>
