---
title: "Glacier 56"
date: 2014-01-07 01:07:56
---
<svg xmlns="http://www.w3.org/2000/svg" version="1" x="0" y="0" width="310" height="310" viewBox="0 0 310 310" enable-background="new 0 0 310 310" xml:space="preserve"><polygon fill="#DCDCDC" points="165 151 165 154 165 157 164 158 162 162 161 163 159 167 154 168 153 168 152 168 150 165 148 163 147 162 146 162 146 162 145 157 145 156 146 153 147 149 147 148 150 148 152 147 153 145 154 145 154 144 156 143 157 142 159 142 161 143 161 143 162 143 162 144 163 144 163 145 163 145 164 147 164 149 164 150 165 151 165 151 165 151 "/></svg>
