---
title: "Glacier 78"
date: 2014-01-07 01:08:18
---
<svg xmlns="http://www.w3.org/2000/svg" version="1" x="0" y="0" width="310" height="310" viewBox="0 0 310 310" enable-background="new 0 0 310 310" xml:space="preserve"><polygon fill="#DCDCDC" points="148 177 147 175 143 169 142 167 140 165 140 163 139 161 138 159 137 158 137 155 139 147 140 146 143 137 146 132 154 132 168 134 169 135 171 136 173 136 173 139 168 147 168 148 167 149 163 155 161 160 156 168 155 170 153 172 151 175 151 176 149 178 148 177 148 177 148 177 "/></svg>
