---
title: "Glacier 244"
date: 2014-01-07 01:11:04
---
<svg xmlns="http://www.w3.org/2000/svg" version="1" x="0" y="0" width="310" height="310" viewBox="0 0 310 310" enable-background="new 0 0 310 310" xml:space="preserve"><polygon fill="#DCDCDC" points="142 169 137 162 134 160 133 157 133 153 134 149 137 144 138 143 140 141 142 140 148 140 162 140 164 143 171 149 173 149 174 151 175 151 175 152 176 152 177 155 177 163 175 163 172 163 170 165 166 168 156 168 151 170 146 170 142 169 142 169 142 169 142 169 142 169 142 169 "/></svg>
