---
title: "Glacier 123"
date: 2014-01-07 01:09:03
---
<svg xmlns="http://www.w3.org/2000/svg" version="1" x="0" y="0" width="310" height="310" viewBox="0 0 310 310" enable-background="new 0 0 310 310" xml:space="preserve"><polygon fill="#DCDCDC" points="154 168 152 167 151 166 148 164 146 160 145 156 145 147 145 147 146 146 148 145 149 145 150 144 153 142 157 142 158 143 159 143 159 144 160 145 162 146 164 147 165 149 165 160 160 164 159 166 154 168 154 168 154 168 154 168 154 168 154 168 "/></svg>
