---
title: "Star 1"
date: 2014-10-24 13:13:16
---
<svg version="1.1" xmlns="http://www.w3.org/2000/svg" xmlns:xlink="http://www.w3.org/1999/xlink" x="0px" y="0px"
  width="400px" height="400px" viewBox="900.5 450.5 400 400" xml:space="preserve">
<polygon fill="#FFEF00" points="1011.859,693.539 1008.648,705.859 975.026,752.662 951.672,804.543 980.539,793.185 
  1024.189,762.336 1055.747,746.604 1063.324,741.776 1072.012,766.665 1094.891,823.143 1113.104,850.5 1129.359,764.385 
  1136.142,721.715 1139.149,708.015 1149.972,714.535 1189.158,742.088 1216.219,771.752 1226.855,776.465 1223.274,763.654 
  1203.977,719.354 1186.478,666.931 1200.483,632.92 1255.026,582.055 1291.383,558.661 1300.502,552.319 1225.867,551.357 
  1172.225,564.933 1184.396,527.812 1186.645,492.608 1184.819,475.905 1142.959,509.649 1103.499,557.593 1065.246,486.168 
  1043.682,450.5 1039.096,470.079 1037.852,510.674 1034.544,548.738 1032.912,559.998 1006.056,551.954 933.273,540.926 
  940.946,556.096 958.675,586.481 995.684,619.201 972.002,632.225 930.892,665.933 900.498,696.523 972.099,696.799 "/>
</svg>
