---
title: "Star 3"
date: 2014-10-24 13:35:17
---
<?xml version="1.0" encoding="utf-8"?>
<!-- Generator: Adobe Illustrator 15.1.0, SVG Export Plug-In . SVG Version: 6.00 Build 0)  -->
<!DOCTYPE svg PUBLIC "-//W3C//DTD SVG 1.1//EN" "http://www.w3.org/Graphics/SVG/1.1/DTD/svg11.dtd">
<svg version="1.1" id="Layer_1" xmlns="http://www.w3.org/2000/svg" xmlns:xlink="http://www.w3.org/1999/xlink" x="0px" y="0px"
	 width="72px" height="72px" viewBox="0 0 72 72" enable-background="new 0 0 72 72" xml:space="preserve">
<polygon fill="#00FFFF" points="46.337,63.683 46.427,63.25 46.756,59.414 47.132,55.659 47.896,53.027 52.065,53.822
	57.426,59.616 62.462,63.202 65.727,64.358 61.827,56.43 58.272,50.557 55.843,45.873 66.93,42.926 70.834,41.951 72,41.541
	68.915,40.383 64.113,37.785 58.492,35.199 53.982,33.159 52.999,31.495 55.759,30.507 60.151,29.926 62.177,29.379 64.872,29.279
	66.901,28.99 69.883,28.341 71.758,27.933 67.465,25.161 63.658,22.399 61.556,21.243 62.308,18.75 62.991,14.335 63.193,12.001
	59.783,13.861 54.755,16.061 50.152,18.361 48.449,19.063 49.556,16.995 51.844,11.421 53.6,7.904 53.982,5.93 54.135,3.482
	51.532,3.584 49.62,4.614 47.514,5.751 43.287,7.659 41.562,6.534 39.198,2.653 36.314,0 35.373,1.315 35.202,4.877 34.772,9.625
	34.444,12.144 29.659,8.247 25.894,5.432 23.807,4.769 21.93,4.455 23.199,8.331 24.714,12.393 27.984,17.528 25.348,16.084
	23.011,14.686 21.29,12.975 18.066,11.339 15.701,10.207 13.758,9.869 14.322,12.935 14.692,15.466 15.439,20.282 11.627,19.901
	4.324,20.056 5.208,22.374 8.241,23.767 13.062,27.32 14.86,29.427 11.606,32.494 6.734,35.227 4.434,36.731 2.635,38.053 0,41.287
	1.68,43.183 3.703,44.143 6.007,44.283 9.526,44.057 17.699,42.188 15.078,44.568 11.855,47.479 6.568,53.176 4.583,56.341
	7.451,56.475 13.721,55.78 19.672,53.519 23.479,51.83 25.125,50.823 27.403,48.915 26.135,51.943 24.742,57.402 23.66,65.592
	24.027,71.734 27.322,69.236 31.704,64.988 34.24,58.474 35.15,55.861 35.778,54.636 39.829,64.528 41.078,68.437 42.016,70.661
	43.526,72 45.261,67.355 46.022,65.662 46.337,63.683 "/>
</svg>
