---
title: "Glacier 88"
date: 2014-01-07 01:08:28
---
<svg xmlns="http://www.w3.org/2000/svg" version="1" x="0" y="0" width="310" height="310" viewBox="0 0 310 310" enable-background="new 0 0 310 310" xml:space="preserve"><polygon fill="#DCDCDC" points="170 165 169 166 169 166 168 166 167 166 165 164 162 163 160 162 155 159 153 157 150 155 149 154 149 154 145 151 143 149 141 148 140 146 140 144 140 144 142 145 143 146 148 148 148 148 149 149 151 150 152 151 159 153 160 153 166 156 166 157 166 157 169 159 171 159 "/></svg>
