---
title: "Glacier 6"
date: 2014-01-07 01:07:06
---
<svg xmlns="http://www.w3.org/2000/svg" version="1" x="0" y="0" width="310" height="310" viewBox="0 0 310 310" enable-background="new 0 0 310 310" xml:space="preserve"><polygon fill="#DCDCDC" points="48 197 47 190 45 181 45 178 45 175 46 171 50 166 53 162 57 158 59 156 55 149 53 142 57 127 59 126 61 120 65 113 66 107 68 103 76 98 79 93 86 87 89 85 90 84 91 83 95 82 103 81 113 79 114 79 117 74 118 72 118 71 121 68 123 67 131 60 134 59 137 59 141 59 159 59 175 62 175 64 178 65 185 68 200 69 204 70 214 76 221 77 223 78 235 78 237 79 244 88 246 89 246 94 245 99 245 101 246 105 249 109 251 110 252 112 253 119 255 120 259 120 262 123 262 129 263 133 264 137 261 142 259 145 261 150 263 152 265 160 266 166 266 175 265 180 265 185 258 191 258 192 253 197 252 200 251 202 250 204 244 209 239 216 237 219 224 232 222 233 217 228 214 228 208 228 195 225 194 223 191 224 188 227 186 228 181 228 171 224 168 224 157 228 153 229 148 228 148 226 143 227 140 233 137 234 134 234 131 234 127 236 125 237 111 245 109 246 107 247 106 248 99 252 92 251 84 240 77 231 76 229 71 223 69 219 60 218 55 209 52 206 48 203 47 201 "/></svg>
