---
title: "Glacier 117"
date: 2014-01-07 01:08:57
---
<svg xmlns="http://www.w3.org/2000/svg" version="1" x="0" y="0" width="310" height="310" viewBox="0 0 310 310" enable-background="new 0 0 310 310" xml:space="preserve"><polygon fill="#DCDCDC" points="164 158 163 158 161 160 160 160 159 161 158 161 158 162 157 162 156 162 155 162 152 161 151 161 151 161 148 160 147 159 146 159 146 158 146 156 147 150 147 150 147 149 147 148 149 148 152 150 152 150 152 150 154 151 155 152 160 155 161 155 161 155 163 157 164 157 164 157 164 158 164 158 164 158 "/></svg>
