---
title: "Bone 38"
date: 2014-12-08 12:08:38
---
<svg xmlns="http://www.w3.org/2000/svg" version="1" x="0" y="0" width="300" height="300" viewBox="0 0 300 300" enable-background="new 0 0 300 300" xml:space="preserve"><path fill="#FFFF78" d="M179 149l-1-3 -4-1 -6-1 -5-2 -3-1 -2-2 -2-3 -4-1 -6 1 -5 3 -8 3 -10 5 1 4 6 2 4 0 1 6 4 4 7 6 3 0 5-1 6-2 7-5 3-1 2-2 8-2L179 149 179 149zM132 147h-2l-1-2 1-1 2 0V147L132 147zM151 160l-4-1 -3-2 -2-5 5-9 9-1 1 3 0 4 2 3L151 160 151 160zM170 150l-3 1 3-5 2 1 1 2L170 150z"/></svg>
