---
title: "Glacier 31"
date: 2014-01-07 01:07:31
---
<svg xmlns="http://www.w3.org/2000/svg" version="1" x="0" y="0" width="310" height="310" viewBox="0 0 310 310" enable-background="new 0 0 310 310" xml:space="preserve"><polygon fill="#DCDCDC" points="123 209 120 207 114 188 112 177 111 169 109 168 102 150 102 146 97 136 97 130 98 128 101 114 103 112 106 104 119 95 146 82 150 82 156 81 160 79 171 76 181 75 186 79 191 82 191 83 194 85 203 94 205 101 201 111 194 105 192 105 192 113 195 117 199 128 199 135 204 147 205 161 208 176 208 186 213 198 214 202 192 216 189 219 181 229 174 231 166 225 161 225 154 227 146 235 134 235 125 223 125 215 123 209 123 209 123 209 123 209 123 209 123 209 123 209 "/></svg>
