---
title: "Glacier 100"
date: 2014-01-07 01:08:40
---
<svg xmlns="http://www.w3.org/2000/svg" version="1" x="0" y="0" width="310" height="310" viewBox="0 0 310 310" enable-background="new 0 0 310 310" xml:space="preserve"><polygon fill="#DCDCDC" points="155 163 154 164 153 164 152 165 152 165 150 165 149 164 147 162 145 160 145 159 145 158 147 155 147 155 147 154 148 153 148 153 148 151 150 150 151 148 151 148 153 147 153 147 154 147 155 146 156 145 156 145 158 145 160 145 161 145 161 145 162 147 163 148 163 148 163 149 163 152 163 152 163 153 163 153 163 155 163 155 163 156 163 158 163 158 164 159 165 160 165 161 163 163 159 163 158 163 157 163 156 162 155 163 155 163 155 163 "/></svg>
