---
title: "Glacier 21"
date: 2014-01-07 01:07:21
---
<svg xmlns="http://www.w3.org/2000/svg" version="1" x="0" y="0" width="310" height="310" viewBox="0 0 310 310" enable-background="new 0 0 310 310" xml:space="preserve"><polygon fill="#DCDCDC" points="195 177 189 181 189 182 185 184 184 184 181 185 179 188 175 189 166 189 162 190 155 194 143 191 136 186 133 185 131 185 127 183 121 170 115 156 115 150 114 146 115 144 118 142 120 141 123 138 123 127 126 117 127 116 147 116 154 117 157 118 157 120 159 122 164 122 168 122 174 126 174 128 175 133 185 151 189 158 190 160 193 164 193 166 196 174 195 177 195 177 195 177 "/></svg>
