---
title: "Glacier 50"
date: 2014-01-07 01:07:50
---
<svg xmlns="http://www.w3.org/2000/svg" version="1" x="0" y="0" width="310" height="310" viewBox="0 0 310 310" enable-background="new 0 0 310 310" xml:space="preserve"><polygon fill="#DCDCDC" points="166 171 168 167 169 162 171 159 172 159 179 152 180 145 179 140 179 138 177 136 175 135 167 133 164 132 158 132 157 132 153 132 152 131 152 130 149 130 147 131 144 132 140 137 136 151 132 160 130 165 134 172 139 177 149 180 156 180 162 175 162 175 "/></svg>
