---
title: "Glacier 9"
date: 2014-01-07 01:07:09
---
<svg xmlns="http://www.w3.org/2000/svg" version="1" x="0" y="0" width="310" height="310" viewBox="0 0 310 310" enable-background="new 0 0 310 310" xml:space="preserve"><polygon fill="#DCDCDC" points="87 181 87 180 95 175 96 174 97 173 98 171 100 167 104 165 105 163 111 157 114 155 119 151 121 149 123 144 125 142 126 141 128 141 131 138 132 136 135 133 140 132 142 130 142 126 143 125 153 121 156 120 158 120 159 119 163 111 167 110 170 110 172 110 183 110 185 109 189 109 194 109 196 109 198 111 201 112 204 113 206 114 213 114 216 115 222 117 224 119 227 123 228 123 230 130 229 137 229 139 228 141 223 146 222 147 218 153 216 153 216 154 215 154 213 157 206 163 204 163 204 164 202 164 199 171 199 172 191 177 190 177 188 178 182 180 181 181 180 181 179 183 177 183 176 184 165 192 162 196 158 198 154 199 153 200 152 200 151 201 150 201 146 202 143 201 142 200 142 199 141 199 141 198 139 197 134 198 131 198 129 199 125 198 123 196 120 197 116 198 111 198 111 198 104 198 100 197 94 196 91 195 87 193 83 191 80 190 80 188 87 181 87 181 87 181 87 181 87 181 87 181 87 181 "/></svg>
