---
title: "Glacier 148"
date: 2014-01-07 01:09:28
---
<svg xmlns="http://www.w3.org/2000/svg" version="1" x="0" y="0" width="310" height="310" viewBox="0 0 310 310" enable-background="new 0 0 310 310" xml:space="preserve"><polygon fill="#DCDCDC" points="117 151 117 154 117 159 119 162 121 163 127 166 135 169 138 171 140 171 146 170 158 176 160 176 170 179 173 180 182 181 184 181 190 181 193 181 194 172 192 165 191 160 191 159 184 155 183 153 178 151 176 151 170 148 169 147 167 147 163 145 160 144 157 143 156 143 145 137 141 135 138 134 135 133 133 131 131 130 127 129 119 133 117 137 116 141 117 151 117 151 117 151 117 151 117 151 117 151 117 151 "/></svg>
