---
title: "Glacier 61"
date: 2014-01-07 01:08:01
---
<svg xmlns="http://www.w3.org/2000/svg" version="1" x="0" y="0" width="310" height="310" viewBox="0 0 310 310" enable-background="new 0 0 310 310" xml:space="preserve"><polygon fill="#DCDCDC" points="131 154 132 153 133 152 134 148 134 145 134 143 135 142 137 141 140 141 145 144 155 150 157 151 160 152 167 155 175 158 179 163 179 165 179 168 175 169 174 169 170 169 167 169 161 167 157 165 144 162 142 161 141 161 136 161 132 158 131 157 131 154 131 154 131 154 131 154 "/></svg>
