---
title: "Glacier 15"
date: 2014-01-07 01:07:15
---
<svg xmlns="http://www.w3.org/2000/svg" version="1" x="0" y="0" width="310" height="310" viewBox="0 0 310 310" enable-background="new 0 0 310 310" xml:space="preserve"><polygon fill="#DCDCDC" points="108 162 114 155 121 138 123 135 125 133 128 132 133 129 140 122 144 119 148 116 151 112 156 110 166 104 169 103 171 103 178 103 182 103 193 104 195 109 196 112 198 114 200 123 201 136 203 144 203 148 202 150 200 153 200 157 199 167 197 170 192 173 191 176 190 182 187 189 186 190 161 202 159 203 154 206 151 207 135 207 132 208 126 208 124 206 121 199 120 196 119 194 115 187 110 182 109 180 108 179 108 170 108 164 108 164 108 164 108 164 "/></svg>
