---
title: "Glacier 12"
date: 2014-01-07 01:07:12
---
<svg xmlns="http://www.w3.org/2000/svg" version="1" x="0" y="0" width="310" height="310" viewBox="0 0 310 310" enable-background="new 0 0 310 310" xml:space="preserve"><polygon fill="#DCDCDC" points="160 169 158 167 158 167 157 166 156 165 156 165 154 163 153 163 150 163 149 163 145 159 145 158 144 157 143 155 141 154 139 152 139 144 140 144 140 143 140 141 141 140 143 140 143 141 145 144 145 145 150 147 151 148 151 148 152 148 154 149 156 150 160 153 161 153 164 155 165 155 165 158 167 160 169 163 170 163 171 164 171 166 171 167 164 170 160 169 160 169 160 169 160 169 160 169 160 169 "/></svg>
