---
title: "Glacier 158"
date: 2014-01-07 01:09:38
---
<svg xmlns="http://www.w3.org/2000/svg" version="1" x="0" y="0" width="310" height="310" viewBox="0 0 310 310" enable-background="new 0 0 310 310" xml:space="preserve"><polygon fill="#DCDCDC" points="146 194 143 190 140 188 138 186 134 183 128 178 124 175 125 168 128 158 129 154 130 151 130 147 131 143 135 136 136 136 141 131 143 129 144 123 145 118 150 116 154 116 155 118 156 118 160 119 167 121 171 121 173 122 174 124 177 130 180 133 181 133 182 135 184 137 186 140 185 143 183 145 182 146 182 169 181 170 179 171 174 179 169 186 157 190 154 192 150 193 149 193 149 193 149 193 149 193 149 193 149 193 149 193 "/></svg>
