---
title: "Glacier 17"
date: 2014-01-07 01:07:17
---
<svg xmlns="http://www.w3.org/2000/svg" version="1" x="0" y="0" width="310" height="310" viewBox="0 0 310 310" enable-background="new 0 0 310 310" xml:space="preserve"><polygon fill="#DCDCDC" points="100 165 98 162 96 155 96 142 98 140 104 128 111 115 113 114 123 109 130 107 148 101 152 100 157 100 165 103 172 115 173 115 181 118 190 126 193 128 195 132 197 136 200 139 203 145 205 148 208 158 210 166 213 174 214 180 215 187 214 193 213 196 213 198 208 205 203 206 198 208 195 209 191 210 185 210 183 208 181 208 181 207 176 207 168 206 166 206 164 204 162 205 156 208 152 208 151 206 149 204 131 193 127 190 126 189 117 188 111 182 109 181 102 175 101 170 101 170 101 170 101 170 101 170 101 170 "/></svg>
