---
title: "Glacier 199"
date: 2014-01-07 01:10:19
---
<svg xmlns="http://www.w3.org/2000/svg" version="1" x="0" y="0" width="310" height="310" viewBox="0 0 310 310" enable-background="new 0 0 310 310" xml:space="preserve"><polygon fill="#DCDCDC" points="140 135 139 136 137 137 134 144 130 148 129 149 127 150 124 152 124 154 125 156 127 158 133 166 135 167 137 172 144 175 148 178 149 178 151 178 164 178 171 178 176 177 179 175 182 175 185 173 186 167 183 159 182 156 180 152 179 150 176 147 176 142 175 140 173 139 170 138 166 138 160 135 151 135 148 135 145 137 143 134 141 134 140 135 140 135 140 135 140 135 140 135 140 135 140 135 "/></svg>
