---
title: "Bone 31"
date: 2014-12-08 12:08:31
---
<svg xmlns="http://www.w3.org/2000/svg" version="1" x="0" y="0" width="300" height="300" viewBox="0 0 300 300" enable-background="new 0 0 300 300" xml:space="preserve"><path fill="#FFFF78" d="M175 144l-4-3 -3 1 -2 2 -5 0 -5-2 1-4 0-4 -3-1 -3 2 0-3 -1-3h-1l0 6 -1 7 -2 1h-3l-7 3 -2 1 -2 0 -3 2 -1 5v4l1 6 3 4 4 3 6 1 8-4 3-1v-2l0-3 5 0 6 3 7 1 -2-3 -3-2 3-1 1-2 0-7 5-3L175 144 175 144zM155 151l-3 1 -3 2 -3-3 -1-2 0-2 2-2 2 0 2 1 2 1 1 1V151L155 151z"/></svg>
