---
title: "Glacier 74"
date: 2014-01-07 01:08:14
---
<svg xmlns="http://www.w3.org/2000/svg" version="1" x="0" y="0" width="310" height="310" viewBox="0 0 310 310" enable-background="new 0 0 310 310" xml:space="preserve"><polygon fill="#DCDCDC" points="125 144 128 155 133 164 134 165 136 169 140 173 140 175 144 178 150 179 152 180 159 188 164 191 183 192 183 178 184 175 189 167 192 163 190 156 190 154 188 147 183 142 181 141 179 139 176 138 171 135 168 133 168 132 167 126 160 122 159 119 153 119 146 118 137 119 135 120 133 120 118 127 118 134 120 137 125 144 125 144 125 144 125 144 125 144 125 144 "/></svg>
