---
title: "Glacier 3"
date: 2014-01-07 01:07:03
---
<svg xmlns="http://www.w3.org/2000/svg" version="1" x="0" y="0" width="310" height="310" viewBox="0 0 310 310" enable-background="new 0 0 310 310" xml:space="preserve"><polygon fill="#DCDCDC" points="146 180 139 172 137 168 136 166 135 164 134 163 132 159 127 144 127 142 129 140 130 138 130 137 133 135 137 133 141 133 145 131 151 128 156 128 164 129 167 130 170 130 174 132 175 133 177 135 180 141 183 145 183 149 182 150 180 152 178 158 175 164 172 171 168 177 168 178 164 181 157 182 154 182 152 182 148 181 "/></svg>
