---
title: "Glacier 246"
date: 2014-01-07 01:11:06
---
<svg xmlns="http://www.w3.org/2000/svg" version="1" x="0" y="0" width="310" height="310" viewBox="0 0 310 310" enable-background="new 0 0 310 310" xml:space="preserve"><polygon fill="#DCDCDC" points="170 147 165 147 163 146 162 146 161 145 156 144 155 143 153 143 147 143 147 144 146 144 142 146 140 146 139 147 138 149 138 154 138 158 141 162 149 167 155 167 162 163 163 162 164 161 165 161 167 160 170 157 170 157 171 156 172 155 173 153 173 150 170 147 170 147 170 147 170 147 170 147 170 147 "/></svg>
