---
title: "Glacier 165"
date: 2014-01-07 01:09:45
---
<svg xmlns="http://www.w3.org/2000/svg" version="1" x="0" y="0" width="310" height="310" viewBox="0 0 310 310" enable-background="new 0 0 310 310" xml:space="preserve"><polygon fill="#DCDCDC" points="166 159 165 160 165 160 164 161 163 162 161 164 160 164 159 165 158 165 157 165 156 166 154 166 150 162 150 161 147 157 146 156 145 154 143 153 143 152 144 151 144 149 144 148 145 148 146 147 147 147 147 147 150 146 150 146 150 146 150 145 152 145 153 144 154 144 156 145 157 145 157 145 160 145 161 145 162 145 162 145 164 147 164 147 164 147 165 147 166 148 166 149 166 151 166 152 166 152 166 153 167 154 167 155 167 156 167 156 166 157 "/></svg>
