---
title: "Glacier 19"
date: 2014-01-07 01:07:19
---
<svg xmlns="http://www.w3.org/2000/svg" version="1" x="0" y="0" width="310" height="310" viewBox="0 0 310 310" enable-background="new 0 0 310 310" xml:space="preserve"><polygon fill="#DCDCDC" points="122 179 122 150 123 150 132 135 132 130 134 128 134 126 135 124 133 121 131 114 131 109 139 103 142 103 147 102 150 101 155 100 164 100 169 102 172 106 178 113 178 115 180 117 180 121 185 130 186 133 187 135 188 141 188 156 187 159 183 163 182 176 180 181 178 182 173 184 167 189 165 191 163 194 161 200 160 203 156 206 149 211 143 207 135 199 127 194 126 192 125 191 123 186 123 186 "/></svg>
