---
title: "Glacier 20"
date: 2014-01-07 01:07:20
---
<svg xmlns="http://www.w3.org/2000/svg" version="1" x="0" y="0" width="310" height="310" viewBox="0 0 310 310" enable-background="new 0 0 310 310" xml:space="preserve"><polygon fill="#DCDCDC" points="131 195 127 181 124 175 122 174 119 174 117 173 115 173 112 164 112 162 111 160 111 158 112 155 115 145 116 139 118 135 121 132 123 130 125 130 130 125 135 122 136 122 139 120 150 115 154 115 173 115 177 116 178 118 181 120 182 123 181 127 182 133 186 139 188 144 190 157 190 168 191 169 193 170 194 173 198 178 199 180 199 184 197 188 194 191 184 190 183 189 177 188 166 188 166 190 164 190 153 190 152 191 141 191 138 192 132 195 131 195 131 195 131 195 131 195 131 195 "/></svg>
