---
title: "Glacier 150"
date: 2014-01-07 01:09:30
---
<svg xmlns="http://www.w3.org/2000/svg" version="1" x="0" y="0" width="310" height="310" viewBox="0 0 310 310" enable-background="new 0 0 310 310" xml:space="preserve"><polygon fill="#DCDCDC" points="153 165 153 164 152 164 150 163 150 162 147 156 146 155 146 154 145 154 145 149 146 148 147 148 152 144 153 143 154 143 157 143 158 143 160 143 161 143 164 143 165 143 165 148 165 151 164 152 164 157 163 158 163 158 163 162 163 163 163 163 162 163 161 165 161 165 159 167 154 165 154 165 154 165 154 165 154 165 154 165 "/></svg>
