---
title: "Glacier 107"
date: 2014-01-07 01:08:47
---
<svg xmlns="http://www.w3.org/2000/svg" version="1" x="0" y="0" width="310" height="310" viewBox="0 0 310 310" enable-background="new 0 0 310 310" xml:space="preserve"><polygon fill="#DCDCDC" points="123 154 126 148 127 146 129 142 133 138 145 132 149 131 153 130 166 129 175 129 176 131 177 132 180 137 180 139 183 143 187 150 187 159 186 163 184 164 182 166 180 167 179 171 175 178 171 181 143 182 135 173 132 169 127 164 123 154 123 154 123 154 123 154 123 154 123 154 "/></svg>
