---
title: "Glacier 154"
date: 2014-01-07 01:09:34
---
<svg xmlns="http://www.w3.org/2000/svg" version="1" x="0" y="0" width="310" height="310" viewBox="0 0 310 310" enable-background="new 0 0 310 310" xml:space="preserve"><polygon fill="#DCDCDC" points="132 179 125 173 124 171 127 159 129 149 130 148 132 147 134 141 135 140 137 136 144 126 145 125 146 123 150 119 154 119 160 119 174 126 181 129 183 129 184 131 184 134 187 142 182 151 182 155 178 164 174 172 171 175 169 179 166 182 165 184 160 188 150 188 148 189 145 191 141 191 140 190 133 187 133 181 133 181 133 181 133 181 133 181 133 181 133 181 "/></svg>
