---
title: "Glacier 28"
date: 2014-01-07 01:07:28
---
<svg xmlns="http://www.w3.org/2000/svg" version="1" x="0" y="0" width="310" height="310" viewBox="0 0 310 310" enable-background="new 0 0 310 310" xml:space="preserve"><polygon fill="#DCDCDC" points="153 177 156 172 161 167 163 165 168 161 171 154 173 148 174 144 173 141 171 138 169 137 167 135 163 133 150 133 147 135 145 136 143 138 141 140 140 143 139 145 139 145 138 147 136 155 137 160 145 169 146 171 147 173 148 176 149 177 153 177 "/></svg>
