---
title: "Blue Star 6"
date: 2014-10-30 10:30:06
---
<?xml version="1.0" encoding="utf-8"?>
<!-- Generator: Adobe Illustrator 15.1.0, SVG Export Plug-In . SVG Version: 6.00 Build 0)  -->
<!DOCTYPE svg PUBLIC "-//W3C//DTD SVG 1.1//EN" "http://www.w3.org/Graphics/SVG/1.1/DTD/svg11.dtd">
<svg version="1.1" id="Layer_1" xmlns="http://www.w3.org/2000/svg" xmlns:xlink="http://www.w3.org/1999/xlink" x="0px" y="0px"
	 width="72px" height="72px" viewBox="0 0 72 72" enable-background="new 0 0 72 72" xml:space="preserve">
<polygon fill="#00FFFF" points="65.676,31.242 63.817,29.726 62.015,28.845 59.616,26.617 56.536,24.683 53.72,21.606 54.753,7.418
	53.537,0 46.798,5.206 40.69,12.206 37.57,16.253 36.26,18.48 29.266,17.01 19.917,13.993 11.934,11.938 9.918,11.093 12.56,17.765
	19.365,26.976 23.251,30.563 5.743,37.672 0,39.931 4.049,40.224 16.902,41.007 26.175,41.661 24.741,47.63 22.016,57.453
	18.625,67.477 16.961,72 22.465,68.927 31.39,57.017 34.504,52.435 35.831,50.58 37.158,48.979 38.248,48.039 45.1,53.775
	49.701,61.002 53.136,66.573 55.753,69.864 54.504,48.798 53.146,42.312 52.877,40.142 58.055,38.14 65.597,37.09 68.987,36.467
	72,35.907 68.589,33.618 "/>
</svg>
