---
title: "Bone 67"
date: 2014-12-08 12:08:67
---
<svg xmlns="http://www.w3.org/2000/svg" version="1" x="0" y="0" width="300" height="300" viewBox="0 0 300 300" enable-background="new 0 0 300 300" xml:space="preserve"><polygon fill="#FFFF78" points="108 109 112 112 113 113 115 109 114 106 117 103 128 98 137 97 153 101 165 110 175 121 184 135 187 155 186 173 179 199 179 204 179 208 182 212 184 210 185 208 194 177 192 139 188 127 178 113 165 100 154 93 138 89 136 88 121 89 118 90 116 92 116 94 115 96 109 99 106 104 108 109 "/></svg>
