---
title: "Glacier 283"
date: 2014-01-07 01:11:43
---
<svg xmlns="http://www.w3.org/2000/svg" version="1" x="0" y="0" width="310" height="310" viewBox="0 0 310 310" enable-background="new 0 0 310 310" xml:space="preserve"><polygon fill="#DCDCDC" points="136 160 137 151 137 148 137 142 147 133 151 130 159 131 165 131 170 140 170 142 172 146 174 150 175 154 173 157 173 165 171 168 169 172 164 175 162 179 157 180 155 180 149 180 143 177 138 166 137 163 136 160 136 160 136 160 136 160 136 160 136 160 136 160 "/></svg>
