---
title: "Glacier 156"
date: 2014-01-07 01:09:36
---
<svg xmlns="http://www.w3.org/2000/svg" version="1" x="0" y="0" width="310" height="310" viewBox="0 0 310 310" enable-background="new 0 0 310 310" xml:space="preserve"><polygon fill="#DCDCDC" points="135 144 135 142 136 140 139 134 143 130 147 130 152 130 153 131 155 132 158 136 162 137 176 143 178 145 178 155 179 159 180 162 181 164 184 176 184 177 185 179 183 180 174 180 164 179 161 179 159 176 156 175 136 175 131 172 126 164 128 156 135 144 135 144 135 144 135 144 135 144 135 144 "/></svg>
