---
title: "Glacier 126"
date: 2014-01-07 01:09:06
---
<svg xmlns="http://www.w3.org/2000/svg" version="1" x="0" y="0" width="310" height="310" viewBox="0 0 310 310" enable-background="new 0 0 310 310" xml:space="preserve"><polygon fill="#DCDCDC" points="159 188 153 185 141 178 139 177 138 174 140 166 141 163 142 162 142 159 143 156 153 142 154 142 156 139 161 125 163 123 164 123 165 122 169 122 170 123 170 140 172 148 172 155 170 179 169 181 166 185 165 186 159 188 159 188 159 188 159 188 159 188 "/></svg>
