---
title: "Bone 1"
date: 2014-12-08 12:08:01
---
<svg xmlns="http://www.w3.org/2000/svg" version="1" x="0" y="0" width="300" height="300" viewBox="0 0 300 300" enable-background="new 0 0 300 300" xml:space="preserve"><polygon fill="#FFFF78" points="146 195 148 194 153 187 156 184 158 179 160 174 160 169 154 162 145 164 146 161 149 159 155 159 159 162 162 170 167 170 171 168 183 169 186 168 188 164 191 155 195 127 188 108 180 96 176 90 160 79 148 77 142 78 130 83 123 88 120 95 122 103 119 122 116 127 115 133 116 138 114 144 113 150 117 158 112 183 113 187 114 190 108 198 106 206 105 212 106 216 112 222 118 223 122 220 135 204 142 199 142 199 "/></svg>
