---
title: "Glacier 164"
date: 2014-01-07 01:09:44
---
<svg xmlns="http://www.w3.org/2000/svg" version="1" x="0" y="0" width="310" height="310" viewBox="0 0 310 310" enable-background="new 0 0 310 310" xml:space="preserve"><polygon fill="#DCDCDC" points="162 150 161 151 161 153 160 154 156 160 155 160 154 162 153 162 153 163 152 164 152 166 152 166 151 167 150 167 149 168 149 168 148 168 148 166 148 163 148 162 149 160 149 159 150 158 150 157 149 156 149 156 149 155 149 153 149 152 150 149 151 147 152 145 153 144 153 143 154 143 155 142 155 142 156 142 157 143 157 143 158 144 159 144 159 144 160 144 162 146 163 147 162 149 162 150 162 150 162 150 162 150 162 150 162 150 162 150 "/></svg>
