---
title: "Glacier 202"
date: 2014-01-07 01:10:22
---
<svg xmlns="http://www.w3.org/2000/svg" version="1" x="0" y="0" width="310" height="310" viewBox="0 0 310 310" enable-background="new 0 0 310 310" xml:space="preserve"><polygon fill="#DCDCDC" points="136 167 136 166 134 163 133 158 131 153 132 148 135 145 135 143 137 138 138 136 141 135 144 136 145 138 146 140 151 140 155 142 155 143 157 144 164 147 165 148 166 148 175 154 176 156 178 158 179 163 179 165 176 167 175 168 174 169 173 169 169 171 168 172 167 174 162 172 160 172 159 170 152 165 150 160 147 154 145 155 144 157 144 159 145 162 146 166 145 173 142 175 137 170 136 168 136 168 136 168 136 168 136 168 136 168 136 168 136 168 "/></svg>
