---
title: "Bone 54"
date: 2014-12-08 12:08:54
---
<svg xmlns="http://www.w3.org/2000/svg" version="1" x="0" y="0" width="300" height="300" viewBox="0 0 300 300" enable-background="new 0 0 300 300" xml:space="preserve"><polygon fill="#FFFF78" points="140 132 142 128 150 126 154 127 159 138 160 141 163 142 166 141 168 141 170 142 172 145 169 148 164 148 159 159 159 166 160 173 160 174 157 174 148 160 144 160 142 159 141 157 138 156 132 159 129 160 128 157 130 152 132 150 137 149 136 145 135 143 137 137 "/></svg>
