---
title: "Bone 63"
date: 2014-12-08 12:09:03
---
<svg xmlns="http://www.w3.org/2000/svg" version="1" x="0" y="0" width="300" height="300" viewBox="0 0 300 300" enable-background="new 0 0 300 300" xml:space="preserve"><polygon fill="#FFFF78" points="198 164 168 158 66 141 45 142 41 144 37 148 30 145 27 141 27 136 19 135 18 126 19 121 21 117 17 109 18 102 23 98 32 100 36 103 41 107 59 114 87 121 103 125 118 127 207 140 245 146 261 140 277 140 281 145 282 156 283 160 280 172 277 178 274 184 272 196 261 202 249 198 240 182 232 177 "/></svg>
