---
title: "Bone 84"
date: 2014-12-08 12:09:24
---
<svg xmlns="http://www.w3.org/2000/svg" version="1" x="0" y="0" width="300" height="300" viewBox="0 0 300 300" enable-background="new 0 0 300 300" xml:space="preserve"><polygon fill="#FFFF78" points="116 90 124 85 138 85 141 86 144 86 154 94 156 94 163 98 167 103 173 106 184 116 187 120 187 129 192 134 196 149 195 182 194 189 190 202 187 210 182 215 176 213 175 207 171 198 171 190 160 167 156 156 152 149 140 135 136 135 129 132 125 129 124 123 125 119 125 117 121 119 107 121 104 118 106 113 112 108 120 107 127 105 133 106 137 107 144 113 147 115 151 110 148 103 141 97 128 96 121 95 117 94 115 92 "/></svg>
