---
title: "Bone 42"
date: 2014-12-08 12:08:42
---
<svg xmlns="http://www.w3.org/2000/svg" version="1" x="0" y="0" width="300" height="300" viewBox="0 0 300 300" enable-background="new 0 0 300 300" xml:space="preserve"><polygon fill="#FFFF78" points="184 122 194 134 203 151 205 162 205 174 202 182 198 187 192 191 184 196 182 196 178 194 176 190 179 189 185 188 190 185 196 176 197 167 197 158 190 141 182 131 176 125 168 120 152 112 126 111 109 114 102 115 99 116 96 112 100 108 111 106 124 104 139 105 155 106 170 113 "/></svg>
