---
title: "Glacier 32"
date: 2014-01-07 01:07:32
---
<svg xmlns="http://www.w3.org/2000/svg" version="1" x="0" y="0" width="310" height="310" viewBox="0 0 310 310" enable-background="new 0 0 310 310" xml:space="preserve"><polygon fill="#DCDCDC" points="130 183 130 176 130 156 130 151 131 147 131 139 131 134 133 127 132 117 134 114 137 113 147 116 150 118 154 123 165 133 166 134 171 146 178 156 179 159 180 173 179 180 174 185 167 190 165 192 158 193 149 197 147 197 143 196 134 195 130 183 130 183 130 183 130 183 "/></svg>
