---
title: "Glacier 115"
date: 2014-01-07 01:08:55
---
<svg xmlns="http://www.w3.org/2000/svg" version="1" x="0" y="0" width="310" height="310" viewBox="0 0 310 310" enable-background="new 0 0 310 310" xml:space="preserve"><polygon fill="#DCDCDC" points="154 163 153 163 152 161 150 158 149 157 149 156 149 154 148 151 148 147 148 146 149 146 150 145 151 145 151 145 152 145 154 146 155 146 155 146 155 147 158 147 159 148 159 148 159 149 160 151 160 152 160 152 161 153 161 154 161 156 162 159 162 160 162 161 161 161 160 162 159 164 158 166 156 165 154 163 154 163 154 163 "/></svg>
