---
title: "Bone 28"
date: 2014-12-08 12:08:28
---
<svg xmlns="http://www.w3.org/2000/svg" version="1" x="0" y="0" width="300" height="300" viewBox="0 0 300 300" enable-background="new 0 0 300 300" xml:space="preserve"><polygon fill="#FFFF78" points="206 136 201 129 191 120 177 111 153 109 141 111 130 114 114 119 100 126 91 136 88 141 87 148 89 152 91 154 94 154 104 138 108 134 121 127 136 122 153 119 172 121 187 127 199 139 202 144 204 148 205 156 204 164 201 174 197 179 193 185 192 187 196 190 200 191 207 184 210 178 212 172 213 167 211 163 211 159 210 153 211 150 210 143 206 136 "/></svg>
