---
title: "Glacier 60"
date: 2014-01-07 01:08:00
---
<svg xmlns="http://www.w3.org/2000/svg" version="1" x="0" y="0" width="310" height="310" viewBox="0 0 310 310" enable-background="new 0 0 310 310" xml:space="preserve"><polygon fill="#DCDCDC" points="137 141 138 138 147 135 148 134 149 133 151 131 154 128 159 126 175 127 179 127 181 129 182 135 182 145 182 147 183 149 183 153 184 156 181 169 176 173 173 174 169 178 167 182 165 184 159 184 157 184 155 183 150 181 144 179 136 178 134 176 131 170 130 169 129 168 127 165 126 160 "/></svg>
