---
title: "Glacier 247"
date: 2014-01-07 01:11:07
---
<svg xmlns="http://www.w3.org/2000/svg" version="1" x="0" y="0" width="310" height="310" viewBox="0 0 310 310" enable-background="new 0 0 310 310" xml:space="preserve"><polygon fill="#DCDCDC" points="138 151 137 148 143 139 146 137 149 137 154 137 156 138 158 139 160 141 169 149 170 149 171 149 171 150 173 156 169 160 168 161 168 162 166 165 163 168 162 169 161 170 160 171 160 171 157 173 153 173 146 170 145 165 139 155 139 153 138 152 138 151 138 151 138 151 138 151 138 151 138 151 "/></svg>
