---
title: "Glacier 99"
date: 2014-01-07 01:08:39
---
<svg xmlns="http://www.w3.org/2000/svg" version="1" x="0" y="0" width="310" height="310" viewBox="0 0 310 310" enable-background="new 0 0 310 310" xml:space="preserve"><polygon fill="#DCDCDC" points="164 156 162 155 160 153 159 151 158 151 157 150 154 148 153 148 152 148 151 148 149 148 148 149 148 149 147 150 146 152 146 153 146 157 147 158 147 158 147 159 148 160 149 160 150 161 150 161 151 161 151 162 152 162 155 163 157 162 159 161 161 159 161 159 162 158 163 158 164 157 164 156 "/></svg>
