---
title: "Bone 7"
date: 2014-12-08 12:08:07
---
<svg xmlns="http://www.w3.org/2000/svg" version="1" x="0" y="0" width="300" height="300" viewBox="0 0 300 300" enable-background="new 0 0 300 300" xml:space="preserve"><path fill="#FFFF78" d="M106 118c2-1 3-1 4 0 1 1 2 2 3 2 1 1 2 1 3 2 1 1 2 1 4 2 1 0 2-1 3 0 -1-4-4-7-6-11 1-1 4-2 6-2 1 0 3 1 4 2 1 1 2 2 3 3 1 1 1 2 1 3 0 1 1 1 1 2 5-1 9-3 14-5 2-1 4-2 6-2 1-1 4-1 5-2 1-1 0-3 0-4 0-2 0-3 1-5 2-2 5-3 7-4 2 3 1 6 3 9 3-1 3-2 5-5 1-2 1-5 3-7 1-1 4-2 5-1 2 0 5 1 7 2 1 1 1 4 2 5 1 1 1 3 1 4 1 3 3 5 6 7 2 1 3 2 3 4 1 2 0 5-1 8 0 1-1 3-1 4 -1 1-1 1-2 2 -2 3-2 6-3 9 -1 2-2 4-2 6 0 1 1 3 1 4 0 2 0 3 0 5 0 2 0 3 0 5 -1 3-2 6-4 8 -3 4-7 6-7 11 0 1 0 2 1 3 0 0 2 0 2 0 1 0 2 0 2 1 1 1 1 2 2 3 1 2 0 3 1 5 -1 1-3 1-4 2 -1 1-1 1 0 3 1 3 2 6 2 9 0 3-1 5-3 8 -3 3-5-1-6-4 -1 1-3-1-3-2 -1-1-1-2-2-3 -1-1-1-1-2-2 0-1 0-2 0-2 0-2 0-1-2-1 -3-1-4 0-7 1 0-1-2-3-2-4 0-3 3-1 5-3 0 0 1-1 0-2 0-1-1-1-2-2 -2-1-4-1-7-1 -2 0-4 0-6 0 -1 0-4 0-5 0 -2-1-3-4-5-6 -1-2-2-6-5-6 -1 0-2 0-3-1 -1 0-1 0-2-1 -2-1-2-3-3-5 -3-4-8-4-11-7 -1-1-3-2-4-3 0 0 0-1 0-1 0 0-1 0-1-1 -1-1-1-1-2-2 -3-3-5-8-6-12 0-2-3-11-1-11L106 118z"/></svg>
