---
title: "Bone 11"
date: 2014-12-08 12:08:11
---
<svg xmlns="http://www.w3.org/2000/svg" version="1" x="0" y="0" width="300" height="300" viewBox="0 0 300 300" enable-background="new 0 0 300 300" xml:space="preserve"><polygon fill="#FFFF78" points="234 227 231 219 220 210 193 193 134 163 56 125 50 126 43 128 36 126 30 121 28 114 31 105 35 98 47 76 57 70 66 71 69 74 77 90 80 100 110 124 133 139 152 150 216 181 225 186 246 194 250 194 254 193 257 192 262 192 272 198 272 204 268 209 265 211 261 219 258 223 252 227 248 225 245 230 240 230 "/></svg>
