---
title: "Bone 92"
date: 2014-12-08 12:09:32
---
<svg xmlns="http://www.w3.org/2000/svg" version="1" x="0" y="0" width="300" height="300" viewBox="0 0 300 300" enable-background="new 0 0 300 300" xml:space="preserve"><polygon fill="#FFFF78" points="139 137 143 129 145 127 150 126 154 126 156 135 157 139 160 140 160 146 162 145 166 145 168 147 169 150 170 154 167 155 160 151 159 156 157 157 154 159 152 163 152 169 152 172 148 174 147 172 147 164 146 161 144 159 140 157 138 154 138 153 138 151 136 152 135 154 130 155 131 150 136 147 138 143 138 140 "/></svg>
