---
title: "Glacier 295"
date: 2014-01-07 01:11:55
---
<svg xmlns="http://www.w3.org/2000/svg" version="1" x="0" y="0" width="310" height="310" viewBox="0 0 310 310" enable-background="new 0 0 310 310" xml:space="preserve"><polygon fill="#DCDCDC" points="133 167 130 166 129 162 131 157 132 155 135 155 137 154 139 152 140 151 141 148 145 140 146 137 149 134 151 133 154 130 156 132 158 133 165 138 168 139 174 146 176 147 179 153 179 159 181 161 179 163 172 171 169 174 168 176 162 176 156 176 152 179 147 180 140 179 133 167 133 167 133 167 133 167 133 167 133 167 133 167 "/></svg>
