---
title: "Blue Star 2"
date: 2014-10-30 10:30:02
---
<?xml version="1.0" encoding="utf-8"?>
<!-- Generator: Adobe Illustrator 15.1.0, SVG Export Plug-In . SVG Version: 6.00 Build 0)  -->
<!DOCTYPE svg PUBLIC "-//W3C//DTD SVG 1.1//EN" "http://www.w3.org/Graphics/SVG/1.1/DTD/svg11.dtd">
<svg version="1.1" id="Layer_1" xmlns="http://www.w3.org/2000/svg" xmlns:xlink="http://www.w3.org/1999/xlink" x="0px" y="0px"
	 width="72px" height="72px" viewBox="0 0 72 72" enable-background="new 0 0 72 72" xml:space="preserve">
<polygon fill="#00FFFF" points="64.424,43.184 64.142,42.737 60.512,37.392 58.06,33.085 59.556,28.816 63.017,23.644
	65.076,20.111 68.158,15.146 69.911,11.31 65.342,11.946 60.886,12.565 51.396,15.662 46.278,17.65 43.828,18.94 38.39,14.331
	31.723,7.272 25.73,1.692 24.405,0 22.962,6.997 23.798,18.168 25.236,23.11 16.406,22.101 9.766,21.343 1.811,20.863 0.058,21.191
	0,21.95 1.2,22.511 2.52,23.73 5.546,26.84 8.392,29.033 13.009,33.627 18.142,38.077 16.533,40.332 11.977,45.924 7.636,54.099
	5.89,57.453 4.629,59.352 6.944,58.485 12.812,56.495 22.772,53.164 27.852,51.417 31.103,50.637 33.035,52.948 35.329,56.886
	39.569,63.947 43.063,70.162 45.433,72 45.781,71.073 45.972,68.592 46.462,62.592 47.978,46.546 52.112,47.993 54.378,48.442
	56.983,49.604 62.444,51.417 68.423,52.846 72,53.7 68.595,49.391 66.401,45.797 64.424,43.184 "/>
</svg>
