---
title: "Glacier 14"
date: 2014-01-07 01:07:14
---
<svg xmlns="http://www.w3.org/2000/svg" version="1" x="0" y="0" width="310" height="310" viewBox="0 0 310 310" enable-background="new 0 0 310 310" xml:space="preserve"><polygon fill="#DCDCDC" points="148 164 147 164 146 163 142 161 141 160 140 160 139 158 136 158 136 156 136 147 137 143 139 141 140 140 140 140 142 139 143 138 145 138 146 137 150 138 155 139 155 140 160 142 163 143 167 145 168 146 169 146 169 147 172 153 172 153 173 155 173 159 173 162 174 163 171 169 170 170 169 172 168 172 157 172 154 170 153 169 "/></svg>
