---
title: "Glacier 58"
date: 2014-01-07 01:07:58
---
<svg xmlns="http://www.w3.org/2000/svg" version="1" x="0" y="0" width="310" height="310" viewBox="0 0 310 310" enable-background="new 0 0 310 310" xml:space="preserve"><polygon fill="#DCDCDC" points="163 152 163 152 160 150 158 150 157 149 156 148 154 145 151 145 149 146 148 146 147 146 147 147 146 151 146 153 146 154 146 154 146 156 145 156 145 157 145 158 146 159 148 161 154 163 157 164 159 165 162 163 164 161 165 158 165 155 163 152 "/></svg>
