---
title: "Glacier 140"
date: 2014-01-07 01:09:20
---
<svg xmlns="http://www.w3.org/2000/svg" version="1" x="0" y="0" width="310" height="310" viewBox="0 0 310 310" enable-background="new 0 0 310 310" xml:space="preserve"><polygon fill="#DCDCDC" points="135 148 138 146 141 144 148 142 158 135 172 135 173 136 175 136 175 137 178 146 174 157 167 162 167 162 164 169 158 174 156 174 153 175 150 172 147 171 142 169 141 168 139 167 138 165 135 162 133 157 132 151 135 148 135 148 135 148 135 148 135 148 135 148 "/></svg>
