---
title: "Bone 70"
date: 2014-12-08 12:09:10
---
<svg xmlns="http://www.w3.org/2000/svg" version="1" x="0" y="0" width="300" height="300" viewBox="0 0 300 300" enable-background="new 0 0 300 300" xml:space="preserve"><path fill="#FFFF78" d="M176 162l-1-2 -10-5 0-1 -1-3 0-6 2-1 3-1 1-2 -5-4 2-1 1-2 -1-1 -8 5 -4 1 -4-3 -2-3 -3-2 -8 0 -8 3 -4 6 0 6 2 2 -1 5 1 3 7 6 8-1 1-2 2 0 1 4 0 6 3-1 2-4 2 0 1 4 4-2 1-2 3-1h6l3 3 5-1L176 162 176 162zM136 143l-2-3 2-1L136 143 136 143zM154 154l-3-3 -6 1 -1-6 4-4 4 0 1 1 3 6 0 2L154 154 154 154z"/></svg>
