---
title: "Glacier 149"
date: 2014-01-07 01:09:29
---
<svg xmlns="http://www.w3.org/2000/svg" version="1" x="0" y="0" width="310" height="310" viewBox="0 0 310 310" enable-background="new 0 0 310 310" xml:space="preserve"><polygon fill="#DCDCDC" points="138 168 137 167 133 155 134 154 135 153 137 151 137 150 139 148 143 141 146 139 152 132 155 131 162 132 165 133 170 137 172 138 173 139 177 141 177 144 177 165 175 167 175 170 173 172 171 175 169 177 161 177 159 178 148 179 148 177 146 175 144 175 140 173 138 168 138 168 138 168 138 168 "/></svg>
