---
title: "Glacier 128"
date: 2014-01-07 01:09:08
---
<svg xmlns="http://www.w3.org/2000/svg" version="1" x="0" y="0" width="310" height="310" viewBox="0 0 310 310" enable-background="new 0 0 310 310" xml:space="preserve"><polygon fill="#DCDCDC" points="125 131 126 130 127 129 130 127 137 124 138 123 144 121 152 120 158 120 168 120 169 122 169 122 170 123 171 124 183 130 186 131 192 137 193 139 194 140 195 144 195 145 195 147 193 151 191 161 191 171 185 183 185 185 176 186 173 187 169 188 168 188 167 189 164 190 162 190 154 185 152 183 136 172 127 168 127 167 125 166 123 164 121 160 121 159 120 159 116 153 115 147 119 140 123 138 123 135 125 131 125 131 125 131 125 131 125 131 125 131 "/></svg>
