---
title: "Bone 37"
date: 2014-12-08 12:08:37
---
<svg xmlns="http://www.w3.org/2000/svg" version="1" x="0" y="0" width="300" height="300" viewBox="0 0 300 300" enable-background="new 0 0 300 300" xml:space="preserve"><polygon fill="#FFFF78" points="200 140 207 155 209 160 212 168 214 172 213 176 210 180 204 184 200 185 199 179 200 173 200 164 195 152 190 144 184 137 176 131 167 126 160 124 151 123 136 127 127 132 105 147 101 152 90 160 88 160 87 158 88 154 93 149 124 125 131 121 141 118 152 115 164 117 173 119 184 124 "/></svg>
