---
title: "Glacier 44"
date: 2014-01-07 01:07:44
---
<svg xmlns="http://www.w3.org/2000/svg" version="1" x="0" y="0" width="310" height="310" viewBox="0 0 310 310" enable-background="new 0 0 310 310" xml:space="preserve"><polygon fill="#DCDCDC" points="104 148 107 146 112 141 117 135 124 128 138 119 148 114 154 109 165 104 168 104 171 105 174 109 179 112 184 117 184 122 190 131 194 134 196 138 198 139 200 141 203 142 204 144 208 146 207 157 205 159 201 163 191 171 189 174 183 178 178 184 172 189 169 191 163 196 159 200 153 204 150 206 143 205 139 206 137 205 126 189 125 186 123 186 120 185 120 184 119 184 118 178 115 176 109 175 103 171 102 158 104 148 104 148 104 148 104 148 104 148 104 148 "/></svg>
