---
title: "Blue Star 7"
date: 2014-10-30 10:30:07
---
<?xml version="1.0" encoding="utf-8"?>
<!-- Generator: Adobe Illustrator 15.1.0, SVG Export Plug-In . SVG Version: 6.00 Build 0)  -->
<!DOCTYPE svg PUBLIC "-//W3C//DTD SVG 1.1//EN" "http://www.w3.org/Graphics/SVG/1.1/DTD/svg11.dtd">
<svg version="1.1" id="Layer_1" xmlns="http://www.w3.org/2000/svg" xmlns:xlink="http://www.w3.org/1999/xlink" x="0px" y="0px"
	 width="72px" height="72px" viewBox="0 0 72 72" enable-background="new 0 0 72 72" xml:space="preserve">
<polygon fill="#00FFFF" points="34.304,12.976 31.783,20.003 30.743,21.388 28.823,23.044 26.597,22.92 20.993,21.841
	16.141,21.638 22.149,27.071 24.074,28.7 25.149,29.513 15.979,36.76 12.406,39.61 11,40.99 14.369,40.67 17.998,40.083
	24.386,38.874 24.02,40.76 21.402,45.631 19.359,48.932 17.699,51.868 22.464,49.357 27.957,45.878 29.519,45.186 32.027,44.619
	36.153,56.996 37.831,61 39.317,58.491 41.86,51.387 41.979,45.324 45.272,48.457 48.935,50.883 52.831,51.701 51.209,45.676
	49.426,40.379 49.605,39.255 55.114,36.109 59.848,33.378 61,32.512 52.064,30.805 47.847,30.399 50.625,25.731 52.741,22.937
	54.173,21.464 55.53,18.658 52.451,19.981 44.732,23.459 40.751,23.799 39.345,20.777 37.979,16.903 35.486,11 34.304,12.976 "/>
</svg>
