<svg xmlns="http://www.w3.org/2000/svg" version="1" x="0" y="0" width="310" height="310" viewBox="0 0 310 310" enable-background="new 0 0 310 310" xml:space="preserve"><polygon fill="#DCDCDC" points="146 161 145 161 143 158 143 154 142 152 140 146 140 145 141 144 144 142 150 141 155 141 156 142 158 143 162 145 164 147 168 149 169 153 169 154 170 155 170 160 169 162 168 162 166 166 165 167 165 168 164 169 156 169 154 167 152 166 151 166 148 166 146 165 146 163 146 162 146 161 146 161 146 161 146 161 146 161 146 161 146 161 "/></svg>
