---
title: "Glacier 75"
date: 2014-01-07 01:08:15
---
<svg xmlns="http://www.w3.org/2000/svg" version="1" x="0" y="0" width="310" height="310" viewBox="0 0 310 310" enable-background="new 0 0 310 310" xml:space="preserve"><polygon fill="#DCDCDC" points="136 154 134 152 130 147 131 143 132 141 138 136 142 132 144 131 145 131 149 131 151 131 155 134 155 135 159 136 160 137 164 137 166 137 168 142 170 144 172 145 173 146 175 153 178 155 178 156 179 158 179 162 180 166 180 167 180 170 179 171 176 172 171 175 170 175 163 175 162 175 161 175 160 175 156 176 154 175 153 175 149 175 146 177 144 178 143 180 141 180 136 176 136 165 136 162 136 160 137 156 136 154 136 154 136 154 "/></svg>
