---
title: "Testbone 01"
date: 2014-12-08 12:08:01
---
<?xml version="1.0" encoding="utf-8"?>
<!-- Generator: Adobe Illustrator 15.1.0, SVG Export Plug-In . SVG Version: 6.00 Build 0)  -->
<!DOCTYPE svg PUBLIC "-//W3C//DTD SVG 1.1//EN" "http://www.w3.org/Graphics/SVG/1.1/DTD/svg11.dtd">
<svg version="1.1" id="Layer_1" xmlns="http://www.w3.org/2000/svg" xmlns:xlink="http://www.w3.org/1999/xlink" x="0px" y="0px"
	 width="329px" height="122px" viewBox="-215.5 486.5 329 122" enable-background="new -215.5 486.5 329 122" xml:space="preserve">
<g id="Layer_2">
</g>
<polygon fill="#FFFFFF" points="-171.524,604.715 -153.65,590.691 -132.754,581.61 -36.129,559.411 -18.589,557.354 30.396,550.932
	49.607,551.828 66.987,557.368 72.132,560.906 83.67,558.447 89.815,555.226 95.198,550.113 95.581,546.079 95.091,542.849
	94.086,535.375 94.289,532.281 105.603,521.508 111.568,514.865 113.385,510.584 113.5,501.484 111.348,494.13 103.337,487.77
	98.929,486.773 93.848,486.695 83.188,486.5 75.31,496.331 75.438,501.295 72.305,507.95 62.093,513.893 51.69,515.114
	44.622,511.797 39.394,512.376 34.361,519.016 33.581,524.517 -62.536,539.691 -110.953,546.566 -148.359,549.703 -160.643,549.391
	-167.218,546.473 -174.45,542.543 -181.142,536.207 -191.664,534.856 -203.992,537.886 -212.043,544.066 -215.5,550.195
	-213.297,560.643 -208.367,564.716 -205.2,570.156 -199.71,573.028 -194.994,578.736 -198.208,583.286 -203.198,588.483
	-204.905,593.011 -204.375,600.127 -197.244,608.124 -183.559,608.5 -171.524,604.715 -171.524,604.715 "/>
</svg>
