---
title: "Glacier 162"
date: 2014-01-07 01:09:42
---
<svg xmlns="http://www.w3.org/2000/svg" version="1" x="0" y="0" width="310" height="310" viewBox="0 0 310 310" enable-background="new 0 0 310 310" xml:space="preserve"><polygon fill="#DCDCDC" points="159 162 161 160 160 154 160 153 160 151 159 146 159 146 159 145 158 145 155 145 152 148 152 149 150 151 150 153 150 154 149 158 149 160 150 163 150 164 151 165 151 166 154 166 157 165 158 163 159 162 159 162 159 162 159 162 159 162 159 162 "/></svg>
