---
title: "Glacier 108"
date: 2014-01-07 01:08:48
---
<svg xmlns="http://www.w3.org/2000/svg" version="1" x="0" y="0" width="310" height="310" viewBox="0 0 310 310" enable-background="new 0 0 310 310" xml:space="preserve"><polygon fill="#DCDCDC" points="161 181 153 178 144 168 141 163 139 161 135 153 130 144 128 141 125 137 122 131 121 128 120 127 119 124 121 122 124 120 126 118 134 118 140 116 149 128 151 129 157 140 159 143 163 146 164 149 169 155 171 157 176 162 178 164 181 167 182 168 186 174 188 175 189 176 189 177 191 178 191 179 189 182 187 185 175 194 170 192 164 185 164 185 164 185 164 185 164 185 164 185 164 185 "/></svg>
