---
title: "Glacier 118"
date: 2014-01-07 01:08:58
---
<svg xmlns="http://www.w3.org/2000/svg" version="1" x="0" y="0" width="310" height="310" viewBox="0 0 310 310" enable-background="new 0 0 310 310" xml:space="preserve"><polygon fill="#DCDCDC" points="121 163 121 162 122 161 122 136 123 132 124 129 125 125 125 116 126 113 127 111 129 109 137 108 140 106 147 105 153 107 160 110 163 111 167 113 172 122 175 128 184 141 185 144 191 151 193 154 193 156 194 158 192 166 186 178 184 180 182 181 174 182 171 187 170 190 160 202 148 205 140 205 132 195 117 184 118 175 121 163 121 163 121 163 121 163 121 163 121 163 "/></svg>
