---
title: "Glacier 259"
date: 2014-01-07 01:11:19
---
<svg xmlns="http://www.w3.org/2000/svg" version="1" x="0" y="0" width="310" height="310" viewBox="0 0 310 310" enable-background="new 0 0 310 310" xml:space="preserve"><polygon fill="#DCDCDC" points="142 145 139 148 137 151 137 152 139 153 143 154 146 155 150 158 155 162 162 167 165 167 165 166 166 166 170 163 171 161 172 161 173 159 172 158 171 157 170 156 169 155 168 155 165 153 164 152 161 150 159 150 158 150 157 147 156 146 156 146 150 143 142 145 142 145 142 145 142 145 142 145 142 145 142 145 "/></svg>
