---
title: "Glacier 252"
date: 2014-01-07 01:11:12
---
<svg xmlns="http://www.w3.org/2000/svg" version="1" x="0" y="0" width="310" height="310" viewBox="0 0 310 310" enable-background="new 0 0 310 310" xml:space="preserve"><polygon fill="#DCDCDC" points="154 169 154 168 152 167 150 164 149 161 148 161 143 155 140 153 140 152 142 147 143 145 144 145 145 142 150 140 155 139 158 139 164 142 166 147 167 148 168 148 169 150 169 152 169 154 170 158 170 165 167 169 164 170 163 170 161 171 154 169 154 169 154 169 154 169 154 169 154 169 "/></svg>
