---
title: "Glacier 127"
date: 2014-01-07 01:09:07
---
<svg xmlns="http://www.w3.org/2000/svg" version="1" x="0" y="0" width="310" height="310" viewBox="0 0 310 310" enable-background="new 0 0 310 310" xml:space="preserve"><polygon fill="#DCDCDC" points="131 138 133 136 138 134 141 133 158 129 162 129 165 131 169 131 172 133 174 134 174 136 180 144 180 148 179 153 179 159 177 167 173 169 172 170 171 172 165 173 162 176 162 177 161 178 161 179 155 181 140 167 136 162 134 158 130 150 130 144 131 138 131 138 131 138 131 138 131 138 "/></svg>
