---
title: "Glacier 26"
date: 2014-01-07 01:07:26
---
<svg xmlns="http://www.w3.org/2000/svg" version="1" x="0" y="0" width="310" height="310" viewBox="0 0 310 310" enable-background="new 0 0 310 310" xml:space="preserve"><polygon fill="#DCDCDC" points="111 163 116 158 119 155 119 151 136 93 137 85 141 76 144 58 153 46 168 49 170 52 181 58 187 69 187 78 188 86 198 99 202 101 202 106 200 114 207 137 213 144 216 161 213 177 212 192 215 210 211 217 212 225 200 255 190 265 164 262 156 262 142 253 127 252 119 249 110 236 103 232 94 216 95 209 103 196 105 188 105 188 105 188 105 188 105 188 105 188 105 188 105 188 105 188 "/></svg>
