---
title: "Glacier 248"
date: 2014-01-07 01:11:08
---
<svg xmlns="http://www.w3.org/2000/svg" version="1" x="0" y="0" width="310" height="310" viewBox="0 0 310 310" enable-background="new 0 0 310 310" xml:space="preserve"><polygon fill="#DCDCDC" points="144 150 141 153 144 155 145 155 150 161 151 162 152 163 153 165 154 166 158 169 161 168 165 166 167 166 168 162 169 159 167 152 167 150 166 149 164 147 162 144 157 141 152 143 149 144 146 146 146 147 145 148 144 150 144 150 144 150 144 150 144 150 144 150 "/></svg>
