---
title: "Glacier 235"
date: 2014-01-07 01:10:55
---
<svg xmlns="http://www.w3.org/2000/svg" version="1" x="0" y="0" width="310" height="310" viewBox="0 0 310 310" enable-background="new 0 0 310 310" xml:space="preserve"><polygon fill="#DCDCDC" points="149 137 157 132 158 132 160 133 165 137 173 144 173 146 173 150 172 152 168 156 167 156 166 157 164 160 159 167 156 172 154 176 153 177 152 178 150 179 145 178 143 178 140 178 140 177 139 177 139 176 139 169 138 166 137 164 137 163 137 147 142 141 149 137 149 137 149 137 149 137 149 137 149 137 149 137 "/></svg>
