---
title: "Glacier 25"
date: 2014-01-07 01:07:25
---
<svg xmlns="http://www.w3.org/2000/svg" version="1" x="0" y="0" width="310" height="310" viewBox="0 0 310 310" enable-background="new 0 0 310 310" xml:space="preserve"><polygon fill="#DCDCDC" points="137 173 136 166 138 162 139 153 141 146 143 138 146 131 149 128 158 126 165 124 170 123 174 123 174 128 172 132 166 142 165 146 165 149 163 156 159 162 158 164 155 168 153 171 154 178 155 180 155 184 153 187 148 185 144 181 140 177 137 173 "/></svg>
