---
title: "Glacier 299"
date: 2014-01-07 01:11:59
---
<svg xmlns="http://www.w3.org/2000/svg" version="1" x="0" y="0" width="310" height="310" viewBox="0 0 310 310" enable-background="new 0 0 310 310" xml:space="preserve"><polygon fill="#DCDCDC" points="139 145 143 141 147 138 151 137 156 139 162 142 163 143 166 145 167 148 170 154 172 158 173 161 174 163 174 166 172 166 169 166 165 171 164 173 159 171 154 172 154 171 153 170 143 170 137 162 136 155 137 150 139 146 139 146 139 146 139 146 139 146 139 146 139 146 "/></svg>
