---
title: "Big circle 1"
date: 2014-12-09 12:09:01
---
<svg xmlns="http://www.w3.org/2000/svg" version="1" x="0" y="0" width="520" height="520" viewBox="0 0 520 520" enable-background="new 0 0 520 520" xml:space="preserve"><polygon fill="#FFFFFF" points="515 315 503 351 464 428 445 449 427 463 415 471 398 483 352 503 338 509 329 513 316 512 292 515 282 517 275 520 250 517 219 514 191 513 145 495 135 489 121 484 97 463 71 430 59 415 45 395 42 389 27 368 14 341 0 302 0 279 1 251 4 229 10 198 32 139 65 96 80 77 95 65 124 45 142 36 172 20 189 11 232 5 261 0 301 1 324 7 335 11 347 16 397 43 430 63 447 72 485 121 494 141 498 150 518 204 520 233 "/></svg>
