---
title: "Bone 60"
date: 2014-12-08 12:08:60
---
<svg xmlns="http://www.w3.org/2000/svg" version="1" x="0" y="0" width="300" height="300" viewBox="0 0 300 300" enable-background="new 0 0 300 300" xml:space="preserve"><polygon fill="#FFFF78" points="195 128 188 123 178 117 169 115 159 113 149 113 135 114 120 116 101 121 91 126 86 131 89 133 93 134 108 126 121 122 142 120 148 119 156 119 163 121 173 124 183 128 193 136 200 145 204 157 205 167 202 174 198 177 190 176 188 182 193 186 198 187 203 186 208 183 210 179 213 172 214 163 213 155 210 147 204 137 195 128 "/></svg>
