---
title: "Glacier 24"
date: 2014-01-07 01:07:24
---
<svg xmlns="http://www.w3.org/2000/svg" version="1" x="0" y="0" width="310" height="310" viewBox="0 0 310 310" enable-background="new 0 0 310 310" xml:space="preserve"><polygon fill="#DCDCDC" points="118 120 116 112 116 100 118 98 121 98 137 102 144 102 146 103 150 105 167 110 171 110 176 113 189 120 192 122 194 126 194 131 191 141 191 151 193 156 193 162 189 169 182 193 179 198 169 209 166 212 153 212 151 209 146 208 143 200 141 197 140 194 138 174 133 170 131 162 131 155 132 149 124 139 122 128 119 123 119 123 119 123 119 123 "/></svg>
