---
title: "Bone 36"
date: 2014-12-08 12:08:36
---
<svg xmlns="http://www.w3.org/2000/svg" version="1" x="0" y="0" width="300" height="300" viewBox="0 0 300 300" enable-background="new 0 0 300 300" xml:space="preserve"><polygon fill="#FFFF78" points="205 138 208 149 208 162 205 172 196 182 186 191 180 194 174 194 171 193 168 190 169 185 172 183 177 183 184 181 191 175 196 170 199 165 200 157 199 150 196 142 192 137 186 132 174 124 154 119 129 119 119 120 105 121 96 125 92 122 92 113 95 110 112 107 124 106 139 106 153 107 165 109 176 112 190 119 199 127 "/></svg>
