---
title: "Glacier 57"
date: 2014-01-07 01:07:57
---
<svg xmlns="http://www.w3.org/2000/svg" version="1" x="0" y="0" width="310" height="310" viewBox="0 0 310 310" enable-background="new 0 0 310 310" xml:space="preserve"><polygon fill="#DCDCDC" points="126 167 125 166 122 165 121 163 119 162 114 156 113 154 108 149 108 136 108 134 108 131 108 126 111 120 113 117 116 111 118 106 120 103 122 103 125 102 132 102 139 106 147 112 166 127 168 128 179 133 181 133 187 135 187 140 194 147 196 158 201 165 199 168 198 169 198 173 200 174 202 182 203 183 202 185 199 194 198 196 195 199 194 200 190 203 189 203 175 204 173 206 167 207 162 208 159 207 150 206 148 205 146 201 131 191 128 184 127 177 127 173 "/></svg>
