<svg xmlns="http://www.w3.org/2000/svg" version="1" x="0" y="0" width="310" height="310" viewBox="0 0 310 310" enable-background="new 0 0 310 310" xml:space="preserve"><polygon fill="#DCDCDC" points="172 166 170 168 170 168 169 168 169 168 166 168 165 167 161 168 157 168 149 166 143 166 143 165 143 165 142 164 141 164 141 163 138 157 138 152 139 151 143 145 145 144 148 142 150 142 151 143 153 145 154 146 158 148 164 154 168 159 170 160 172 166 172 166 172 166 172 166 172 166 172 166 172 166 "/></svg>
