---
title: "Glacier 16"
date: 2014-01-07 01:07:16
---
<svg xmlns="http://www.w3.org/2000/svg" version="1" x="0" y="0" width="310" height="310" viewBox="0 0 310 310" enable-background="new 0 0 310 310" xml:space="preserve"><polygon fill="#DCDCDC" points="165 159 163 160 162 161 160 163 159 163 158 164 152 166 151 167 150 167 148 165 148 165 147 164 146 162 146 161 145 159 145 158 144 157 144 155 144 151 145 149 145 148 146 147 147 146 149 145 151 144 152 144 153 144 153 144 154 145 156 146 159 147 160 147 161 148 162 148 162 149 163 149 164 150 165 151 166 154 166 155 166 156 166 158 "/></svg>
