---
title: "Glacier 258"
date: 2014-01-07 01:11:18
---
<svg xmlns="http://www.w3.org/2000/svg" version="1" x="0" y="0" width="310" height="310" viewBox="0 0 310 310" enable-background="new 0 0 310 310" xml:space="preserve"><polygon fill="#DCDCDC" points="144 171 143 166 142 159 142 158 143 157 143 155 144 153 145 152 149 148 149 146 151 143 153 139 157 137 159 137 163 141 163 142 167 144 168 145 168 147 168 150 167 153 166 155 165 157 165 161 164 162 152 172 149 173 144 173 144 171 144 171 144 171 144 171 144 171 144 171 144 171 "/></svg>
