---
title: "Glacier 106"
date: 2014-01-07 01:08:46
---
<svg xmlns="http://www.w3.org/2000/svg" version="1" x="0" y="0" width="310" height="310" viewBox="0 0 310 310" enable-background="new 0 0 310 310" xml:space="preserve"><polygon fill="#DCDCDC" points="155 165 155 165 154 164 153 164 152 164 151 163 150 163 150 163 149 162 149 161 151 159 152 158 154 154 154 153 154 152 155 150 155 149 156 147 158 146 159 145 160 145 160 147 160 147 161 147 161 148 161 149 161 149 161 150 159 154 158 160 158 160 157 161 157 162 157 163 157 163 156 164 156 164 155 165 155 165 155 165 "/></svg>
