---
title: "Glacier 147"
date: 2014-01-07 01:09:27
---
<svg xmlns="http://www.w3.org/2000/svg" version="1" x="0" y="0" width="310" height="310" viewBox="0 0 310 310" enable-background="new 0 0 310 310" xml:space="preserve"><polygon fill="#DCDCDC" points="157 170 153 169 147 169 146 169 143 168 140 166 138 165 133 163 131 162 124 158 123 157 121 157 120 156 120 156 119 156 116 154 116 152 117 151 120 148 121 143 126 139 130 136 132 135 141 136 142 136 145 136 148 135 150 135 155 135 162 136 164 136 165 137 166 139 167 139 171 140 172 140 174 140 175 140 176 141 181 145 182 145 183 146 185 147 192 154 194 154 194 155 194 166 193 168 192 170 188 172 186 172 184 171 180 170 175 172 174 173 167 175 164 174 161 172 158 172 157 170 157 170 157 170 157 170 157 170 157 170 157 170 "/></svg>
