---
title: "Glacier 11"
date: 2014-01-07 01:07:11
---
<svg xmlns="http://www.w3.org/2000/svg" version="1" x="0" y="0" width="310" height="310" viewBox="0 0 310 310" enable-background="new 0 0 310 310" xml:space="preserve"><polygon fill="#DCDCDC" points="164 159 162 160 161 160 161 160 159 161 157 161 156 161 152 160 152 159 151 159 146 156 144 155 142 154 142 154 142 153 142 152 143 151 145 150 145 149 147 150 148 150 151 151 154 151 154 150 155 150 156 149 157 149 158 149 162 150 163 151 166 151 167 152 167 152 168 153 169 156 "/></svg>
