---
title: "Glacier 55"
date: 2014-01-07 01:07:55
---
<svg xmlns="http://www.w3.org/2000/svg" version="1" x="0" y="0" width="310" height="310" viewBox="0 0 310 310" enable-background="new 0 0 310 310" xml:space="preserve"><polygon fill="#DCDCDC" points="162 161 162 161 161 162 157 163 156 164 153 165 151 165 149 165 147 164 146 164 145 164 144 160 143 159 142 158 142 157 141 154 142 149 145 145 146 145 149 146 149 146 150 146 158 146 162 148 164 149 166 150 169 153 168 154 167 155 167 158 165 159 163 160 163 160 163 160 163 160 163 160 "/></svg>
