---
title: "Glacier 5"
date: 2014-01-07 01:07:05
---
<svg xmlns="http://www.w3.org/2000/svg" version="1" x="0" y="0" width="310" height="310" viewBox="0 0 310 310" enable-background="new 0 0 310 310" xml:space="preserve"><polygon fill="#DCDCDC" points="62 86 66 83 73 78 74 74 75 73 82 70 87 70 96 68 98 65 113 65 117 63 127 63 135 66 143 67 149 70 160 71 177 74 183 77 189 83 192 85 193 85 195 87 197 87 206 90 212 92 217 93 230 97 233 100 235 101 237 102 239 105 245 115 246 124 247 129 251 134 252 140 253 142 259 148 258 153 257 155 256 160 257 162 257 168 252 175 250 180 249 182 246 185 239 189 234 192 233 200 232 208 226 218 224 223 223 225 220 228 217 228 211 229 208 231 204 232 203 231 199 231 198 243 189 247 186 246 181 246 170 245 167 246 165 246 162 247 153 243 143 235 137 222 129 219 127 218 111 210 102 203 99 201 96 200 94 193 93 191 90 179 87 176 68 157 66 154 64 153 61 151 56 143 55 132 52 128 55 114 56 113 56 111 52 101 62 86 62 86 62 86 62 86 62 86 62 86 "/></svg>
