---
title: "Glacier 79"
date: 2014-01-07 01:08:19
---
<svg xmlns="http://www.w3.org/2000/svg" version="1" x="0" y="0" width="310" height="310" viewBox="0 0 310 310" enable-background="new 0 0 310 310" xml:space="preserve"><polygon fill="#DCDCDC" points="134 151 136 150 138 149 141 147 148 143 151 141 153 140 158 139 161 139 164 137 176 137 177 138 178 139 180 142 181 144 181 146 180 149 178 154 177 154 177 154 175 156 175 156 174 161 173 163 172 165 171 165 171 165 165 167 163 168 163 168 160 169 157 169 154 170 148 172 146 173 143 173 141 172 137 166 133 166 129 162 131 157 134 151 134 151 134 151 "/></svg>
