---
title: "Glacier 102"
date: 2014-01-07 01:08:42
---
<svg xmlns="http://www.w3.org/2000/svg" version="1" x="0" y="0" width="310" height="310" viewBox="0 0 310 310" enable-background="new 0 0 310 310" xml:space="preserve"><polygon fill="#DCDCDC" points="141 129 142 128 146 123 150 122 157 122 164 123 165 123 165 124 166 124 168 125 169 126 171 128 177 134 178 137 178 149 177 151 177 176 175 180 172 182 169 185 166 187 162 187 161 188 155 188 153 185 152 183 152 182 151 181 151 179 148 175 144 172 138 160 132 145 134 140 137 137 138 134 138 133 138 133 138 133 138 133 138 133 138 133 "/></svg>
