---
title: "Glacier 180"
date: 2014-01-07 01:10:00
---
<svg xmlns="http://www.w3.org/2000/svg" version="1" x="0" y="0" width="310" height="310" viewBox="0 0 310 310" enable-background="new 0 0 310 310" xml:space="preserve"><polygon fill="#DCDCDC" points="142 179 140 178 132 169 132 167 131 164 129 160 129 157 128 153 129 152 134 147 138 143 140 142 147 136 153 133 157 129 161 126 162 126 163 126 166 126 168 127 170 127 173 129 173 130 174 133 175 135 176 135 178 142 179 144 181 149 182 150 182 152 181 167 181 170 180 173 176 177 175 178 174 179 169 182 165 182 163 182 162 182 160 183 158 184 157 184 156 184 153 184 152 184 "/></svg>
