---
title: "Glacier 10"
date: 2014-01-07 01:07:10
---
<svg xmlns="http://www.w3.org/2000/svg" version="1" x="0" y="0" width="310" height="310" viewBox="0 0 310 310" enable-background="new 0 0 310 310" xml:space="preserve"><polygon fill="#DCDCDC" points="159 158 159 158 158 159 157 160 157 161 156 161 156 162 156 163 152 163 149 161 148 160 148 160 148 158 148 157 148 156 148 155 149 154 149 153 150 152 151 150 151 150 151 150 152 150 154 149 154 148 155 148 157 148 158 148 158 148 161 149 162 149 162 150 162 150 163 151 162 154 161 156 161 156 "/></svg>
