---
title: "Glacier 226"
date: 2014-01-07 01:10:46
---
<svg xmlns="http://www.w3.org/2000/svg" version="1" x="0" y="0" width="310" height="310" viewBox="0 0 310 310" enable-background="new 0 0 310 310" xml:space="preserve"><polygon fill="#DCDCDC" points="143 163 142 162 142 161 142 155 142 154 143 152 143 152 143 151 144 150 144 150 144 149 145 148 148 147 149 145 153 143 155 142 157 142 159 143 160 143 161 144 162 146 164 149 165 150 165 151 166 152 167 154 167 156 168 158 168 159 169 160 168 161 167 162 164 164 164 164 162 164 160 165 154 167 149 168 146 166 144 165 143 163 143 163 143 163 "/></svg>
