---
title: "Glacier 169"
date: 2014-01-07 01:09:49
---
<svg xmlns="http://www.w3.org/2000/svg" version="1" x="0" y="0" width="310" height="310" viewBox="0 0 310 310" enable-background="new 0 0 310 310" xml:space="preserve"><polygon fill="#DCDCDC" points="160 163 159 163 158 163 156 164 154 165 152 164 151 163 150 163 148 162 147 162 147 161 147 160 148 159 149 159 149 157 150 155 150 155 151 154 152 151 152 151 153 150 155 147 156 147 156 146 158 146 159 146 159 146 160 147 160 147 161 148 161 148 162 150 163 150 162 152 162 153 161 154 159 156 157 157 155 158 155 159 156 160 157 160 158 159 159 159 162 159 163 160 161 162 160 163 160 163 160 163 160 163 160 163 160 163 160 163 160 163 "/></svg>
