---
title: "Glacier 200"
date: 2014-01-07 01:10:20
---
<svg xmlns="http://www.w3.org/2000/svg" version="1" x="0" y="0" width="310" height="310" viewBox="0 0 310 310" enable-background="new 0 0 310 310" xml:space="preserve"><polygon fill="#DCDCDC" points="139 162 138 159 138 153 139 151 139 148 139 146 141 141 145 138 147 137 148 136 150 136 155 137 160 139 163 141 164 141 164 144 166 149 170 157 171 161 171 163 172 165 172 167 168 170 166 170 162 170 158 171 151 174 140 166 139 162 139 162 139 162 "/></svg>
