---
title: "Glacier 22"
date: 2014-01-07 01:07:22
---
<svg xmlns="http://www.w3.org/2000/svg" version="1" x="0" y="0" width="310" height="310" viewBox="0 0 310 310" enable-background="new 0 0 310 310" xml:space="preserve"><polygon fill="#DCDCDC" points="125 187 125 181 131 168 133 161 137 148 141 139 145 133 148 128 149 126 151 121 154 120 160 104 165 101 167 101 175 104 182 105 186 113 185 118 182 121 182 137 180 145 179 156 176 159 173 168 170 171 164 182 162 185 161 187 158 190 152 196 146 201 141 207 133 209 129 207 126 202 126 197 125 187 125 187 125 187 125 187 125 187 "/></svg>
