---
title: "Glacier 293"
date: 2014-01-07 01:11:53
---
<svg xmlns="http://www.w3.org/2000/svg" version="1" x="0" y="0" width="310" height="310" viewBox="0 0 310 310" enable-background="new 0 0 310 310" xml:space="preserve"><polygon fill="#DCDCDC" points="136 149 132 150 132 153 131 154 131 156 131 158 131 160 132 164 134 167 136 168 137 170 137 171 142 172 144 173 146 174 157 175 159 174 160 173 162 169 168 165 176 161 178 161 179 153 178 141 176 136 172 135 169 135 166 137 163 138 161 140 152 143 145 147 141 148 136 149 136 149 136 149 136 149 136 149 136 149 136 149 "/></svg>
