---
title: "Bone 27"
date: 2014-12-08 12:08:27
---
<svg xmlns="http://www.w3.org/2000/svg" version="1" x="0" y="0" width="300" height="300" viewBox="0 0 300 300" enable-background="new 0 0 300 300" xml:space="preserve"><polygon fill="#FFFF78" points="175 117 163 115 147 117 136 120 125 126 116 132 102 155 97 169 96 178 98 183 101 185 104 185 104 179 105 170 110 157 116 149 129 137 142 130 150 127 168 127 182 130 194 142 196 150 196 156 192 163 197 166 202 162 204 157 201 150 202 146 202 142 195 130 184 120 "/></svg>
