---
title: "Glacier 105"
date: 2014-01-07 01:08:45
---
<svg xmlns="http://www.w3.org/2000/svg" version="1" x="0" y="0" width="310" height="310" viewBox="0 0 310 310" enable-background="new 0 0 310 310" xml:space="preserve"><polygon fill="#DCDCDC" points="153 143 156 145 158 148 166 152 171 156 174 160 175 161 176 162 178 165 178 166 177 167 167 167 163 167 154 165 150 164 148 163 146 163 143 163 134 163 133 161 132 159 133 155 133 153 135 152 135 150 138 149 139 147 142 146 144 144 153 143 153 143 153 143 "/></svg>
