---
title: "Glacier 145"
date: 2014-01-07 01:09:25
---
<svg xmlns="http://www.w3.org/2000/svg" version="1" x="0" y="0" width="310" height="310" viewBox="0 0 310 310" enable-background="new 0 0 310 310" xml:space="preserve"><polygon fill="#DCDCDC" points="133 152 134 148 136 144 139 141 142 135 147 130 149 129 150 128 153 123 157 123 164 124 167 126 169 126 170 126 172 131 172 134 172 137 173 149 176 158 177 162 176 166 175 167 173 176 170 185 158 187 156 186 154 185 152 183 147 180 145 180 139 174 139 171 "/></svg>
