---
title: "Bone 2"
date: 2014-12-08 12:08:02
---
<svg xmlns="http://www.w3.org/2000/svg" version="1" x="0" y="0" width="300" height="300" viewBox="0 0 300 300" enable-background="new 0 0 300 300" xml:space="preserve"><polygon fill="#FFFF78" points="106 115 113 105 129 85 152 77 169 76 182 83 191 91 195 98 198 106 195 118 191 126 181 133 168 155 165 160 157 167 143 191 139 194 137 203 137 207 133 215 123 224 115 223 110 218 109 213 105 196 102 177 106 158 110 156 114 157 121 159 125 162 128 160 132 151 130 147 124 146 119 147 115 145 110 140 111 136 106 132 104 123 "/></svg>
