---
title: "Glacier 287"
date: 2014-01-07 01:11:47
---
<svg xmlns="http://www.w3.org/2000/svg" version="1" x="0" y="0" width="310" height="310" viewBox="0 0 310 310" enable-background="new 0 0 310 310" xml:space="preserve"><polygon fill="#DCDCDC" points="157 163 153 159 151 155 147 148 147 148 146 147 146 146 146 145 148 145 149 144 150 143 150 143 151 143 152 143 154 143 155 146 156 148 157 149 157 150 159 154 160 155 160 156 161 157 163 160 164 163 164 164 163 165 163 165 163 165 162 166 161 167 159 167 158 166 "/></svg>
