---
title: "Blue Star 8"
date: 2014-10-30 10:30:08
---
<?xml version="1.0" encoding="utf-8"?>
<!-- Generator: Adobe Illustrator 15.1.0, SVG Export Plug-In . SVG Version: 6.00 Build 0)  -->
<!DOCTYPE svg PUBLIC "-//W3C//DTD SVG 1.1//EN" "http://www.w3.org/Graphics/SVG/1.1/DTD/svg11.dtd">
<svg version="1.1" id="Layer_1" xmlns="http://www.w3.org/2000/svg" xmlns:xlink="http://www.w3.org/1999/xlink" x="0px" y="0px"
	 width="72px" height="72px" viewBox="0 0 72 72" enable-background="new 0 0 72 72" xml:space="preserve">
<polygon fill="#00FFFF" points="56.545,20.583 57.775,15.507 58.532,6.271 59.042,0 56.309,1.972 45.205,26.545 32.61,14.008
	23.675,6.018 23.675,14.973 25.945,28.676 11.641,30.826 0,33.76 15.08,39.455 25.173,43.577 19.85,59.969 15.318,72 31.764,56.847
	38.823,52.671 46.76,55.354 64.532,60.691 62.252,51.943 58.933,44.149 57.759,40.062 59.703,38.297 63.487,35.848 67.942,32.124
	72.001,28.562 56.108,24.567 "/>
</svg>
