<svg xmlns="http://www.w3.org/2000/svg" version="1" x="0" y="0" width="310" height="310" viewBox="0 0 310 310" enable-background="new 0 0 310 310" xml:space="preserve"><polygon fill="#DCDCDC" points="152 174 146 169 140 167 138 165 138 158 141 147 141 141 143 140 143 138 145 137 149 133 156 133 158 134 160 136 163 141 165 141 168 147 169 148 170 148 171 149 172 151 173 152 173 155 170 156 169 157 169 160 165 170 163 172 161 175 157 177 154 176 152 174 152 174 152 174 152 174 152 174 152 174 152 174 "/></svg>
