---
title: "Blue Star 14"
date: 2014-10-30 10:30:14
---
<?xml version="1.0" encoding="utf-8"?>
<!-- Generator: Adobe Illustrator 15.1.0, SVG Export Plug-In . SVG Version: 6.00 Build 0)  -->
<!DOCTYPE svg PUBLIC "-//W3C//DTD SVG 1.1//EN" "http://www.w3.org/Graphics/SVG/1.1/DTD/svg11.dtd">
<svg version="1.1" id="Layer_1" xmlns="http://www.w3.org/2000/svg" xmlns:xlink="http://www.w3.org/1999/xlink" x="0px" y="0px"
	 width="72px" height="72px" viewBox="0 0 72 72" enable-background="new 0 0 72 72" xml:space="preserve">
<polygon fill="#00FFFF" points="51.014,10.555 46.694,13.036 40.289,17.173 38.125,18.009 35.463,15.223 32.378,11.602
	28.861,6.237 22.387,0 21.332,8.001 21.947,16.784 22.584,21.585 23.217,23.955 17.389,27.656 8.879,31.897 0,36.653 6.831,38.357
	20.15,39.981 18.596,42.68 15.835,47.651 11.14,57.446 9.031,64.454 7.236,70.738 9.776,69.322 15.351,64.644 25.192,57.181
	32.023,51.207 34.256,53.207 36.279,55.958 39.007,61.423 40.947,64.627 43.757,68.323 45.221,70.011 45.791,70.324 46.243,70.97
	46.905,71.618 47.475,72 47.595,69.362 48.003,64.29 48.375,54.139 48.188,50.262 48.171,48.011 54.314,45.886 58.403,45.468
	66.248,44.824 72,45.319 69.102,42.814 64,38.042 61.969,36.745 58.036,34.389 53.947,31.694 50.653,29.787 50.948,28.313
	53.513,23.446 62.196,10.247 65.284,5.886 66.41,4.3 54.674,8.511 51.014,10.555 "/>
</svg>
