---
title: "Star 2"
date: 2014-10-24 13:35:16
---
<svg version="1.1" xmlns="http://www.w3.org/2000/svg" xmlns:xlink="http://www.w3.org/1999/xlink" x="0px" y="0px"
	 width="72px" height="72px" viewBox="0 0 72 72" enable-background="new 0 0 72 72" xml:space="preserve">
<polygon fill="#00FFFF" points="65.943,33.716 57.895,29.702 54.495,28.5 53.117,28.254 53.673,27.437 54.426,25.996 60.604,14.185 
	62.789,8.814 60.895,9.468 57.726,10.907 53.646,12.819 48.062,16.315 44.688,19.518 43.32,20.43 42.479,21.174 37.897,12.978 
	33.142,5.726 31.477,3.5 30.107,6.212 30.204,18.098 29.822,19.52 29.712,21.201 21.719,16.676 17.535,12.826 11.821,9.191 
	10.231,7.96 7.837,7.208 13.448,18.108 15.319,21.249 16.758,22.66 22.772,29.794 16.104,32.104 3.5,37.932 9.427,40.553 
	12.415,41.349 16.332,42.639 19.814,44.06 23.57,45.188 24.681,45.623 25.138,46.087 20.834,53.062 16.821,60.505 15.485,66.832 
	15.137,68.5 18.84,66.812 24.863,63.336 29.675,60.625 38.739,52.487 41.349,54.532 50.321,62.317 52.525,63.572 60.053,66.505 
	61.307,66.6 63.584,66.242 63.111,65.194 60.198,59.304 56.465,52.905 52.068,47.588 50.101,44.228 53.396,42.448 55.956,41.286 
	57.853,40.014 60,38.912 64.986,36.767 68.5,35.348 65.943,33.716 "/>
</svg>
