---
title: "Glacier 153"
date: 2014-01-07 01:09:33
---
<svg xmlns="http://www.w3.org/2000/svg" version="1" x="0" y="0" width="310" height="310" viewBox="0 0 310 310" enable-background="new 0 0 310 310" xml:space="preserve"><polygon fill="#DCDCDC" points="151 163 150 163 147 161 145 160 145 158 145 156 145 156 146 155 147 154 149 151 150 147 151 146 155 146 156 145 158 145 159 145 163 144 164 143 165 143 165 144 165 148 165 151 165 153 164 153 163 155 163 163 162 165 159 167 155 166 151 163 151 163 151 163 151 163 151 163 151 163 "/></svg>
