---
title: "Glacier 82"
date: 2014-01-07 01:08:22
---
<svg xmlns="http://www.w3.org/2000/svg" version="1" x="0" y="0" width="310" height="310" viewBox="0 0 310 310" enable-background="new 0 0 310 310" xml:space="preserve"><polygon fill="#DCDCDC" points="141 176 140 171 139 169 136 160 135 158 130 148 130 145 130 140 132 135 133 134 133 133 134 130 136 129 145 124 147 124 149 123 157 121 170 123 179 129 181 132 179 137 178 138 178 140 177 141 177 143 176 156 176 163 172 174 171 177 169 182 160 189 155 185 146 184 141 176 141 176 141 176 141 176 "/></svg>
