---
title: "Glacier 155"
date: 2014-01-07 01:09:35
---
<svg xmlns="http://www.w3.org/2000/svg" version="1" x="0" y="0" width="310" height="310" viewBox="0 0 310 310" enable-background="new 0 0 310 310" xml:space="preserve"><polygon fill="#DCDCDC" points="153 170 155 170 157 170 158 169 158 169 160 166 161 163 161 162 161 161 161 159 163 155 164 150 165 148 166 144 166 143 165 140 162 140 159 140 158 140 157 140 157 141 156 141 155 143 154 144 154 146 153 147 153 148 152 150 152 150 151 153 150 154 150 154 150 155 149 156 148 158 146 163 145 164 145 165 144 166 146 169 148 170 149 171 153 170 153 170 153 170 153 170 153 170 153 170 153 170 "/></svg>
