---
title: "Bone 45"
date: 2014-12-08 12:08:45
---
<svg xmlns="http://www.w3.org/2000/svg" version="1" x="0" y="0" width="300" height="300" viewBox="0 0 300 300" enable-background="new 0 0 300 300" xml:space="preserve"><polygon fill="#FFFF78" points="113 136 127 128 140 123 153 121 168 121 179 123 187 128 193 133 203 147 209 158 209 164 208 169 205 171 199 173 197 171 195 168 194 157 187 144 179 136 171 133 153 129 140 129 122 137 112 145 105 154 99 166 98 174 96 179 91 179 92 170 97 155 100 149 107 142 "/></svg>
