---
title: "Glacier 35"
date: 2014-01-07 01:07:35
---
<svg xmlns="http://www.w3.org/2000/svg" version="1" x="0" y="0" width="310" height="310" viewBox="0 0 310 310" enable-background="new 0 0 310 310" xml:space="preserve"><polygon fill="#DCDCDC" points="161 212 158 213 151 213 144 214 138 212 130 211 127 211 124 208 123 204 120 197 118 195 113 189 103 185 100 184 100 183 98 182 95 171 90 161 88 156 88 139 91 132 108 126 109 125 119 122 121 122 123 121 128 112 137 107 138 106 141 105 147 106 151 103 153 102 162 96 174 96 178 97 185 103 190 104 192 104 195 106 196 108 200 113 200 114 204 117 205 119 209 123 210 126 211 129 212 130 213 133 216 134 218 135 222 140 222 149 220 155 222 159 221 166 219 171 217 172 216 175 210 178 203 184 201 191 198 194 191 194 188 200 185 203 178 209 172 209 169 210 165 211 165 211 165 211 165 211 165 211 165 211 165 211 "/></svg>
