---
title: "Glacier 135"
date: 2014-01-07 01:09:15
---
<svg xmlns="http://www.w3.org/2000/svg" version="1" x="0" y="0" width="310" height="310" viewBox="0 0 310 310" enable-background="new 0 0 310 310" xml:space="preserve"><polygon fill="#DCDCDC" points="149 155 149 155 149 154 148 154 148 153 148 152 148 148 149 146 155 145 157 145 157 145 158 145 159 145 160 147 161 149 162 152 162 154 161 157 159 158 159 158 158 159 158 162 158 163 157 165 156 165 156 165 155 165 154 165 153 165 152 165 151 162 151 161 151 160 151 160 151 160 151 160 "/></svg>
