---
title: "Glacier 81"
date: 2014-01-07 01:08:21
---
<svg xmlns="http://www.w3.org/2000/svg" version="1" x="0" y="0" width="310" height="310" viewBox="0 0 310 310" enable-background="new 0 0 310 310" xml:space="preserve"><polygon fill="#DCDCDC" points="122 151 123 151 126 143 129 137 130 133 132 130 138 129 146 129 156 132 181 140 188 142 191 144 193 144 196 146 194 151 193 153 193 155 192 155 192 159 187 170 183 176 182 181 176 181 164 178 147 178 139 179 138 179 135 179 131 180 128 180 126 181 124 181 122 181 119 174 115 166 117 159 120 155 122 151 122 151 122 151 122 151 122 151 122 151 "/></svg>
