---
title: "Glacier 94"
date: 2014-01-07 01:08:34
---
<svg xmlns="http://www.w3.org/2000/svg" version="1" x="0" y="0" width="310" height="310" viewBox="0 0 310 310" enable-background="new 0 0 310 310" xml:space="preserve"><polygon fill="#DCDCDC" points="164 151 164 152 164 153 165 153 166 154 167 155 167 159 166 159 166 159 166 163 166 163 166 164 164 166 162 166 161 165 159 165 158 164 157 163 155 164 154 165 153 165 152 165 150 164 149 163 149 163 146 162 145 161 143 161 143 159 143 158 143 155 143 151 144 151 144 150 145 149 145 147 146 147 147 147 147 146 148 145 148 145 153 144 154 145 157 146 159 148 162 150 162 150 162 150 162 150 162 150 162 150 162 150 162 150 "/></svg>
