---
title: "Glacier 43"
date: 2014-01-07 01:07:43
---
<svg xmlns="http://www.w3.org/2000/svg" version="1" x="0" y="0" width="310" height="310" viewBox="0 0 310 310" enable-background="new 0 0 310 310" xml:space="preserve"><polygon fill="#DCDCDC" points="130 192 128 191 127 190 128 188 128 185 136 172 139 167 146 155 151 149 159 139 170 126 173 120 177 117 182 117 183 118 180 123 178 126 176 128 174 133 169 145 166 148 159 171 156 177 152 182 151 183 148 188 147 188 144 194 136 193 136 193 136 193 136 193 "/></svg>
