---
title: "Blue Star 11"
date: 2014-10-30 10:30:11
---
<?xml version="1.0" encoding="utf-8"?>
<!-- Generator: Adobe Illustrator 15.1.0, SVG Export Plug-In . SVG Version: 6.00 Build 0)  -->
<!DOCTYPE svg PUBLIC "-//W3C//DTD SVG 1.1//EN" "http://www.w3.org/Graphics/SVG/1.1/DTD/svg11.dtd">
<svg version="1.1" id="Layer_1" xmlns="http://www.w3.org/2000/svg" xmlns:xlink="http://www.w3.org/1999/xlink" x="0px" y="0px"
	 width="72px" height="72px" viewBox="0 0 72 72" enable-background="new 0 0 72 72" xml:space="preserve">
<polygon fill="#00FFFF" points="52.486,33.356 51.454,32.515 49.799,31.397 50.723,30.083 51.208,29.181 51.86,27.872
	53.718,25.103 54.483,22.921 53.465,23.292 52.584,23.497 50.188,24.292 47.808,25.188 46.207,25.506 46.284,21.963 46.418,20.121
	45.743,16 41.999,18.893 40.062,21.112 38.755,21.86 37.462,20.989 36.383,19.887 35.419,19.039 34.214,17.892 33.496,17.266
	32.253,16.55 31.828,17.835 31.629,21.021 31.486,23.078 31.418,23.85 31.137,24.961 30.245,24.928 29.015,24.403 27.065,23.774
	22.63,22.633 21.51,22.163 22.978,25.869 24.08,27.362 25.354,28.85 23.552,29.196 19.873,29.333 17.501,29.418 16.67,29.461
	19.989,31.97 21.558,33.161 22.862,33.764 24.195,34.797 22.735,35.495 20.979,36.202 19.19,36.929 16,38.184 18.249,38.347
	22.561,38.779 24.357,39.006 24.371,39.536 23.54,40.221 20.972,42.446 18.627,45.462 16.407,49.736 17.959,49.983 28.213,47.247
	28.164,47.917 27.199,51.1 26.348,53.487 25.423,56 28.48,54.293 28.724,53.968 29.358,53.12 31.229,50.625 32.995,48.268
	33.926,47.326 34.714,49.658 35.908,51.666 36.957,53.074 37.539,52.104 39.297,48.868 40.919,46.876 41.408,46.343 43.611,49.89
	45.52,52.985 46.974,54.813 46.707,50.318 46.467,46.262 46.367,44.587 46.335,43.917 46.989,43.776 48.276,43.981 49.185,44.343
	51.316,45.362 53.144,46.06 53.019,43.921 52.476,41.813 51.689,38.704 50.714,37.323 50.557,36.569 51.618,36.486 53.288,36.45
	54.326,36.26 56,35.948 54.104,34.677 52.486,33.356 "/>
</svg>
