---
title: "Blue Star 3"
date: 2014-10-30 10:30:03
---
<?xml version="1.0" encoding="utf-8"?>
<!-- Generator: Adobe Illustrator 15.1.0, SVG Export Plug-In . SVG Version: 6.00 Build 0)  -->
<!DOCTYPE svg PUBLIC "-//W3C//DTD SVG 1.1//EN" "http://www.w3.org/Graphics/SVG/1.1/DTD/svg11.dtd">
<svg version="1.1" id="Layer_1" xmlns="http://www.w3.org/2000/svg" xmlns:xlink="http://www.w3.org/1999/xlink" x="0px" y="0px"
	 width="72px" height="72px" viewBox="0 0 72 72" enable-background="new 0 0 72 72" xml:space="preserve">
<polygon fill="#00FFFF" points="38.042,47.418 39.636,45.895 42.041,47.306 43.547,48.112 45.03,49.36 47.179,50.355 51.552,53.05
	57.425,56.044 61.523,57.203 59.7,54.312 53.419,47.684 47.658,39.364 46.628,37.426 47.754,36.399 52.574,34.081 60.694,29.383
	64.578,27.14 66,26.063 64.94,25.688 62.418,25.105 56.366,25.419 48.968,26.921 46.673,27.267 43.486,27.712 44.08,20.183
	45.438,11.187 46.215,6 44.915,7.872 42.287,11.698 39.476,15.631 37.334,18.91 35.383,21.934 35.169,22.336 34.046,23.844
	30.977,22.149 29.644,19.708 26.708,16.222 22.066,12.334 16.683,8.816 17.237,15.591 18.45,20.934 19.404,25.215 20.189,27.134
	19.362,28.14 17.814,28.552 13.498,30.092 8.652,32.074 6,33.136 8.154,35.098 14.821,38.237 21.827,40.501 25.71,42.172
	26.12,43.953 24.769,51.905 24.154,56.556 23.098,61.427 23.059,66 23.788,65.363 24.967,64.375 28.291,60.921 33.568,54.442 "/>
</svg>
