---
title: "Glacier 237"
date: 2014-01-07 01:10:57
---
<svg xmlns="http://www.w3.org/2000/svg" version="1" x="0" y="0" width="310" height="310" viewBox="0 0 310 310" enable-background="new 0 0 310 310" xml:space="preserve"><polygon fill="#DCDCDC" points="142 147 142 146 143 145 147 142 149 140 156 140 157 141 158 143 164 149 166 153 167 154 167 156 168 157 167 159 163 164 159 167 154 169 152 170 151 170 149 168 147 165 146 165 146 164 145 163 144 161 143 158 142 154 142 154 142 154 142 154 "/></svg>
