---
title: "Glacier 96"
date: 2014-01-07 01:08:36
---
<svg xmlns="http://www.w3.org/2000/svg" version="1" x="0" y="0" width="310" height="310" viewBox="0 0 310 310" enable-background="new 0 0 310 310" xml:space="preserve"><polygon fill="#DCDCDC" points="149 142 154 140 155 139 157 139 158 139 159 138 162 137 172 137 178 140 178 142 180 152 181 155 181 159 180 160 179 165 176 168 171 170 162 173 159 172 151 170 148 166 148 164 146 163 139 163 134 162 131 159 130 157 130 156 129 156 129 153 130 151 130 150 131 147 139 145 141 145 143 145 143 145 143 145 143 145 "/></svg>
