---
title: "Bone 95"
date: 2014-12-08 12:09:35
---
<svg xmlns="http://www.w3.org/2000/svg" version="1" x="0" y="0" width="300" height="300" viewBox="0 0 300 300" enable-background="new 0 0 300 300" xml:space="preserve"><polygon fill="#FFFF78" points="143 133 146 129 150 127 155 127 164 139 164 143 169 145 170 148 170 151 166 152 162 151 161 154 159 155 157 160 157 171 155 174 153 173 151 165 148 160 143 157 139 151 137 150 135 152 132 153 130 149 130 146 131 143 136 143 139 144 138 138 141 138 143 140 "/></svg>
