---
title: "Glacier 64"
date: 2014-01-07 01:08:04
---
<svg xmlns="http://www.w3.org/2000/svg" version="1" x="0" y="0" width="310" height="310" viewBox="0 0 310 310" enable-background="new 0 0 310 310" xml:space="preserve"><polygon fill="#DCDCDC" points="107 155 108 160 111 162 115 166 124 175 128 176 138 182 139 183 143 183 146 181 149 181 152 180 160 180 163 180 165 180 172 177 176 176 177 173 178 173 187 167 190 160 191 158 199 143 202 139 203 136 201 133 199 129 197 128 192 128 191 127 185 127 183 128 181 128 156 128 145 127 127 127 125 128 124 130 115 130 107 138 107 155 107 155 107 155 107 155 107 155 107 155 "/></svg>
