---
title: "Glacier 168"
date: 2014-01-07 01:09:48
---
<svg xmlns="http://www.w3.org/2000/svg" version="1" x="0" y="0" width="310" height="310" viewBox="0 0 310 310" enable-background="new 0 0 310 310" xml:space="preserve"><polygon fill="#DCDCDC" points="139 169 134 157 134 156 136 155 138 153 139 153 141 149 146 147 147 146 147 145 148 145 152 139 154 137 155 136 157 134 159 133 160 132 164 130 169 128 173 128 175 136 176 138 176 139 175 152 174 155 173 159 171 163 166 168 166 169 164 170 163 172 159 179 159 179 151 182 146 182 144 179 139 169 139 169 139 169 139 169 139 169 139 169 139 169 "/></svg>
