---
title: "Glacier 86"
date: 2014-01-07 01:08:26
---
<svg xmlns="http://www.w3.org/2000/svg" version="1" x="0" y="0" width="310" height="310" viewBox="0 0 310 310" enable-background="new 0 0 310 310" xml:space="preserve"><polygon fill="#DCDCDC" points="121 167 124 164 126 163 126 162 130 159 131 157 136 153 136 146 136 140 143 133 149 129 150 128 154 124 158 119 162 116 182 116 183 116 191 116 192 119 192 122 192 124 189 126 181 130 178 135 173 145 173 146 173 148 169 155 166 161 163 165 162 167 158 172 158 174 157 175 156 178 154 179 136 191 135 193 133 194 125 194 125 193 118 177 121 167 121 167 121 167 121 167 121 167 121 167 "/></svg>
