---
title: "Glacier 139"
date: 2014-01-07 01:09:19
---
<svg xmlns="http://www.w3.org/2000/svg" version="1" x="0" y="0" width="310" height="310" viewBox="0 0 310 310" enable-background="new 0 0 310 310" xml:space="preserve"><polygon fill="#DCDCDC" points="164 156 163 154 162 154 162 154 161 152 160 150 158 146 157 145 157 144 155 144 155 143 153 143 150 145 150 146 146 150 146 151 146 153 147 157 149 161 150 162 150 163 151 164 155 167 157 167 157 166 159 163 160 163 161 162 162 161 163 161 164 159 164 156 164 156 164 156 164 156 164 156 "/></svg>
