---
title: "Glacier 109"
date: 2014-01-07 01:08:49
---
<svg xmlns="http://www.w3.org/2000/svg" version="1" x="0" y="0" width="310" height="310" viewBox="0 0 310 310" enable-background="new 0 0 310 310" xml:space="preserve"><polygon fill="#DCDCDC" points="125 134 126 132 131 127 134 127 146 131 153 133 155 135 167 147 180 163 183 166 184 167 185 169 183 175 183 177 181 182 179 183 166 182 150 181 144 178 141 177 139 175 137 173 134 170 129 161 129 159 126 153 125 149 125 134 125 134 125 134 125 134 125 134 "/></svg>
