---
title: "Bone 5"
date: 2014-12-08 12:08:05
---
<svg xmlns="http://www.w3.org/2000/svg" version="1" x="0" y="0" width="300" height="300" viewBox="0 0 300 300" enable-background="new 0 0 300 300" xml:space="preserve"><polygon fill="#FFFF78" points="276 159 255 161 235 159 148 130 133 123 91 105 76 95 65 82 63 77 53 73 46 73 40 74 37 77 36 80 33 86 32 89 18 92 10 94 6 97 2 104 0 111 3 120 6 123 10 125 19 130 30 126 32 122 37 119 48 119 57 123 61 129 66 131 73 128 76 124 159 158 201 176 232 191 241 197 245 203 249 210 251 218 259 224 270 227 279 226 285 223 288 214 286 208 286 202 283 197 282 191 287 189 294 187 297 184 300 178 298 169 288 162 276 159 "/></svg>
