---
title: "Glacier 183"
date: 2014-01-07 01:10:03
---
<svg xmlns="http://www.w3.org/2000/svg" version="1" x="0" y="0" width="310" height="310" viewBox="0 0 310 310" enable-background="new 0 0 310 310" xml:space="preserve"><polygon fill="#DCDCDC" points="146 144 147 143 156 139 161 138 164 140 166 142 168 143 170 145 173 155 173 162 174 163 174 164 174 165 174 167 173 169 171 170 168 171 166 172 151 167 149 166 147 164 141 161 139 159 138 158 138 156 137 156 137 155 136 153 136 149 138 146 "/></svg>
