---
title: "Glacier 47"
date: 2014-01-07 01:07:47
---
<svg xmlns="http://www.w3.org/2000/svg" version="1" x="0" y="0" width="310" height="310" viewBox="0 0 310 310" enable-background="new 0 0 310 310" xml:space="preserve"><polygon fill="#DCDCDC" points="127 173 125 168 124 161 125 157 125 152 129 142 130 137 133 131 137 127 139 124 142 120 144 118 146 118 154 112 162 113 165 116 171 122 171 125 174 130 176 132 181 145 182 147 183 149 185 152 186 158 185 167 182 172 176 179 172 182 172 183 168 192 164 195 154 196 151 197 148 198 142 191 139 189 135 188 133 188 128 184 127 173 127 173 127 173 127 173 "/></svg>
