<svg xmlns="http://www.w3.org/2000/svg" version="1" x="0" y="0" width="310" height="310" viewBox="0 0 310 310" enable-background="new 0 0 310 310" xml:space="preserve"><polygon fill="#DCDCDC" points="151 143 152 143 163 147 166 152 168 153 171 155 171 157 170 157 170 160 169 164 167 166 164 167 160 167 151 166 148 164 147 163 147 162 143 160 142 158 142 157 142 156 144 153 144 152 145 152 145 150 143 149 141 150 139 149 139 144 144 143 147 143 151 143 151 143 151 143 151 143 151 143 151 143 151 143 "/></svg>
