---
title: "Bone 50"
date: 2014-12-08 12:08:50
---
<svg xmlns="http://www.w3.org/2000/svg" version="1" x="0" y="0" width="300" height="300" viewBox="0 0 300 300" enable-background="new 0 0 300 300" xml:space="preserve"><polygon fill="#FFFF78" points="190 157 192 144 191 137 184 135 176 133 172 131 165 129 163 125 163 123 167 122 169 120 170 114 168 110 166 108 164 107 162 107 158 101 160 96 161 90 160 86 156 82 153 82 150 81 144 84 138 91 139 101 145 108 138 113 126 118 124 132 125 138 124 148 121 152 117 166 117 168 116 184 110 194 108 205 112 217 118 219 122 219 143 211 150 204 160 192 175 176 185 166 "/></svg>
