---
title: "Glacier 144"
date: 2014-01-07 01:09:24
---
<svg xmlns="http://www.w3.org/2000/svg" version="1" x="0" y="0" width="310" height="310" viewBox="0 0 310 310" enable-background="new 0 0 310 310" xml:space="preserve"><polygon fill="#DCDCDC" points="120 178 125 183 128 185 137 186 138 186 141 188 143 189 144 190 146 190 153 190 160 187 160 187 161 186 162 183 165 181 170 168 169 167 171 165 173 165 176 164 180 163 182 162 183 161 188 158 188 157 192 154 197 154 196 150 197 149 199 140 191 133 188 132 187 132 180 132 179 131 177 131 173 129 172 128 172 128 171 128 169 123 168 122 164 122 162 122 161 121 159 120 158 120 155 120 155 120 155 121 152 122 151 122 150 123 140 129 139 129 135 131 131 137 130 137 129 138 127 139 126 144 126 145 113 154 113 158 111 164 118 171 119 174 120 178 120 178 120 178 120 178 120 178 120 178 120 178 "/></svg>
