---
title: "Glacier 157"
date: 2014-01-07 01:09:37
---
<svg xmlns="http://www.w3.org/2000/svg" version="1" x="0" y="0" width="310" height="310" viewBox="0 0 310 310" enable-background="new 0 0 310 310" xml:space="preserve"><polygon fill="#DCDCDC" points="147 161 147 162 148 162 151 164 151 164 152 165 152 165 154 167 155 167 156 167 156 166 159 164 160 164 160 163 162 162 163 160 164 158 164 157 164 154 164 151 164 148 164 147 163 145 163 144 162 143 161 143 160 143 157 144 155 144 153 146 152 147 150 147 149 147 149 148 148 149 148 151 147 153 147 157 148 159 147 160 146 161 147 161 147 161 147 161 147 161 147 161 147 161 147 161 "/></svg>
