---
title: "Blue Star 12"
date: 2014-10-30 10:30:12
---
<?xml version="1.0" encoding="utf-8"?>
<!-- Generator: Adobe Illustrator 15.1.0, SVG Export Plug-In . SVG Version: 6.00 Build 0)  -->
<!DOCTYPE svg PUBLIC "-//W3C//DTD SVG 1.1//EN" "http://www.w3.org/Graphics/SVG/1.1/DTD/svg11.dtd">
<svg version="1.1" id="Layer_1" xmlns="http://www.w3.org/2000/svg" xmlns:xlink="http://www.w3.org/1999/xlink" x="0px" y="0px"
	 width="72px" height="72px" viewBox="0 0 72 72" enable-background="new 0 0 72 72" xml:space="preserve">
<polygon fill="#00FFFF" points="62.537,53.82 69.381,52.049 67.52,50.564 65.806,49.93 63.377,48.303 57.358,45.531 52.803,43.711
	50.318,43.918 48.488,43.324 50.952,42.002 53.868,40.475 59.938,37.602 67.596,34.646 72,32.508 67.639,31.832 63.397,30.592
	60.449,29.723 62.645,26.576 65.997,22.396 54.613,23.014 55.942,20.137 57.854,12.873 58.842,8.959 59.325,7.727 59.834,2.711
	55.882,5.684 48.629,10.748 44.318,14.205 42.206,10.188 39.088,5.248 38.166,2.699 37.269,0 35.886,4.32 34.663,8.148
	33.885,11.992 33.001,13.268 31.818,16.293 22.713,7.814 19.302,4.77 18.281,4.039 21.674,18.158 22.212,23.105 21.203,22.934
	15.8,22.32 12.18,21.207 0,17.25 15.863,33.01 18.097,35.723 19.993,38.85 19.018,39.818 17.305,41.4 13.09,44.168 7.982,48.648
	7.364,50.227 10.868,50.695 18.164,51.773 22.368,51.824 21.935,53.281 21.094,57.857 21.248,69.416 24.33,66.068 26.434,64.43
	29.596,61.502 33.812,58.271 35.661,60.139 38.278,63.814 42.197,68.104 45.935,72 47.188,65.67 48.009,60.854 49.562,58.18
	50.892,59.131 51.581,59.289 52.831,60.35 56.119,62.381 62.314,66.48 66.393,69.73 67.388,67.105 66.396,65.156 65.422,63.111
	62.085,59.312 58.435,55.295 58.094,54.74 57.656,54.312 59.312,54.186 62.537,53.82 "/>
</svg>
