---
title: "Bone 51"
date: 2014-12-08 12:08:51
---
<svg xmlns="http://www.w3.org/2000/svg" version="1" x="0" y="0" width="300" height="300" viewBox="0 0 300 300" enable-background="new 0 0 300 300" xml:space="preserve"><polygon fill="#FFFF78" points="143 117 170 128 181 139 185 148 187 160 187 171 184 179 180 181 176 181 174 183 171 187 165 188 161 186 160 183 163 179 169 179 173 175 178 168 178 159 175 150 172 145 168 139 164 136 150 129 139 125 117 122 114 118 113 115 116 113 127 114 "/></svg>
