---
title: "Glacier 63"
date: 2014-01-07 01:08:03
---
<svg xmlns="http://www.w3.org/2000/svg" version="1" x="0" y="0" width="310" height="310" viewBox="0 0 310 310" enable-background="new 0 0 310 310" xml:space="preserve"><polygon fill="#DCDCDC" points="155 199 147 199 144 194 141 192 140 191 138 190 133 187 130 185 128 183 127 181 124 174 117 164 117 160 119 151 121 148 127 142 129 138 133 134 135 133 138 130 140 128 141 123 143 120 147 116 157 111 164 114 168 120 171 123 175 128 182 133 188 138 192 141 192 144 193 148 188 152 188 156 186 163 178 171 176 173 174 180 172 183 164 184 161 185 161 188 158 193 157 197 155 199 155 199 155 199 155 199 155 199 "/></svg>
