---
title: "Glacier 221"
date: 2014-01-07 01:10:41
---
<svg xmlns="http://www.w3.org/2000/svg" version="1" x="0" y="0" width="310" height="310" viewBox="0 0 310 310" enable-background="new 0 0 310 310" xml:space="preserve"><polygon fill="#DCDCDC" points="163 168 165 165 165 162 165 160 168 157 169 156 169 153 168 150 162 148 162 147 161 146 161 145 159 144 156 142 155 142 152 145 150 148 148 150 147 151 144 155 142 157 141 160 141 161 145 163 150 164 152 165 153 165 154 166 159 168 161 169 163 168 163 168 163 168 163 168 163 168 163 168 163 168 "/></svg>
