---
title: "Glacier 42"
date: 2014-01-07 01:07:42
---
<svg xmlns="http://www.w3.org/2000/svg" version="1" x="0" y="0" width="310" height="310" viewBox="0 0 310 310" enable-background="new 0 0 310 310" xml:space="preserve"><polygon fill="#DCDCDC" points="162 168 162 166 162 164 162 162 161 162 161 161 161 156 161 152 160 148 160 138 160 138 159 138 159 137 157 137 156 138 156 138 155 141 155 143 155 143 155 144 155 146 153 150 153 151 152 152 152 153 152 154 152 154 152 155 152 156 152 157 150 161 149 162 147 164 147 165 147 166 150 167 151 168 152 169 153 170 154 171 156 171 156 171 158 171 160 171 162 173 163 172 162 168 162 168 162 168 162 168 162 168 162 168 162 168 "/></svg>
