---
title: "Glacier 97"
date: 2014-01-07 01:08:37
---
<svg xmlns="http://www.w3.org/2000/svg" version="1" x="0" y="0" width="310" height="310" viewBox="0 0 310 310" enable-background="new 0 0 310 310" xml:space="preserve"><polygon fill="#DCDCDC" points="173 154 172 152 171 150 171 149 170 148 167 140 166 139 165 138 158 137 154 137 152 139 152 140 151 141 148 142 145 143 143 144 141 145 141 145 137 149 136 153 136 156 137 161 137 162 137 163 138 163 139 167 139 167 142 168 145 170 146 171 151 170 157 169 161 170 165 171 166 171 168 172 171 172 173 171 173 170 174 168 174 166 173 163 "/></svg>
