---
title: "Glacier 90"
date: 2014-01-07 01:08:30
---
<svg xmlns="http://www.w3.org/2000/svg" version="1" x="0" y="0" width="310" height="310" viewBox="0 0 310 310" enable-background="new 0 0 310 310" xml:space="preserve"><polygon fill="#DCDCDC" points="155 164 155 164 153 164 150 163 150 163 149 163 148 162 147 162 147 161 149 159 149 158 150 157 150 156 150 156 150 153 150 150 151 150 151 149 152 148 152 147 153 146 156 146 157 146 157 146 158 147 159 149 160 150 160 151 162 152 162 153 162 155 163 157 163 158 162 158 160 161 159 162 159 162 158 164 "/></svg>
