---
title: "Bone 01"
date: 2014-12-08 12:08:01
---
<?xml version="1.0" encoding="utf-8"?>
<!-- Generator: Adobe Illustrator 15.1.0, SVG Export Plug-In . SVG Version: 6.00 Build 0)  -->
<!DOCTYPE svg PUBLIC "-//W3C//DTD SVG 1.1//EN" "http://www.w3.org/Graphics/SVG/1.1/DTD/svg11.dtd">
<svg version="1.1" id="Layer_1" xmlns="http://www.w3.org/2000/svg" xmlns:xlink="http://www.w3.org/1999/xlink" x="0px" y="0px"
	 width="243px" height="252px" viewBox="-233.5 468.5 243 252" enable-background="new -233.5 468.5 243 252" xml:space="preserve">
<polygon fill="#FFFFFF" points="-211.2,624.5 -218,621.6 -212.9,611.9 -201.4,614 -185,612.7 -181,606.4 -184.8,604 -193.6,602
	-200.4,600.5 -203.8,598.2 -202.3,594.6 -199.8,591.5 -194.3,587.9 -190.2,587.8 -181.8,591.6 -173.2,593.7 -156.9,592.5
	-153.9,591.5 -152.9,587.7 -170,584.3 -181.4,580.6 -185.2,578.2 -184.1,573.7 -181.1,569.4 -175.7,567.8 -154.7,575.1
	-136.4,576.6 -118.4,572.1 -99.8,564.2 -106.4,564.8 -117.8,568.6 -128.4,570.5 -156.4,565.5 -162.6,562.3 -167.4,557.6 -165.5,553
	-160.6,549 -156.5,549.4 -149.7,554.1 -140.6,559.2 -130.9,559.6 -124.1,558.4 -114.4,557.9 -105.3,555.4 -96,554.1 -93.6,550.4
	-104.4,550.7 -134.5,543.4 -149,535.1 -144.8,527 -139.4,524.4 -127,531.9 -105.2,538.7 -90.9,538 -88.2,533.7 -97.8,530.1
	-109.8,526.4 -124.6,516.9 -127.7,512.7 -126,507.7 -121,501 -115.3,504 -107.5,511.4 -101.4,515 -86.3,520.7 -79.7,516.9
	-78.6,513.5 -82.9,509.9 -97.3,504 -104.1,499.9 -110.1,494.5 -108.8,490 -103.5,485.5 -101.5,485 -98.3,486.6 -95.6,489.9
	-91.7,492.2 -82.9,496.2 -80,498.2 -77.2,497 -78.7,490.9 -82.4,489.4 -86.6,484.4 -93.4,479.4 -92.2,473.8 -86.1,468.5
	-76.1,473.6 -57.6,474.7 -54,477.2 -46.8,477.7 -40.9,479.8 -37,484.9 -32.4,487.9 -28.6,488.5 -19.9,485.7 -17.2,487.5
	-15.3,495.4 -17.6,499.3 -31.1,499.8 -40.1,503.6 -42.7,508.3 -35,511.2 -23.9,510 -16.4,508.9 -12.1,512.2 -13.6,521.5
	-23.7,522.9 -30.4,523.3 -35.9,522.8 -39.9,521.9 -47.4,521 -52.1,522.3 -55.2,529.4 -53.3,533.2 -48.4,535.5 -35.7,538.3
	-20.3,537.5 -16.9,536.8 -12.2,538.8 -9.9,548.4 -11,553.6 -15,554.3 -21.2,553.7 -29.2,553.5 -55.9,545.3 -58.7,546 -59.5,551.4
	-52.1,558 -30.1,565.7 -18.1,566.4 -11.2,565.8 -5,568.7 -4.6,578.6 -6.6,582.6 -30.5,578.5 -55.6,569.5 -62.5,563.3 -64.4,564.7
	-65,569.2 -53.8,582 -48.4,585.9 -28.1,591.8 -21.8,592.1 -9.9,589.1 -5.2,590.2 -3.3,594.4 -4.6,603.5 -8.3,606 -17,607 -31.1,605
	-48.3,598.9 -66.7,579.9 -70.6,575.5 -68.5,581.6 -49.9,603.6 -42.6,609.3 -22.1,613.7 -4.2,614.1 -1.7,616.6 -1.7,626.1
	-10.3,626.3 -36.3,623 -45,623.2 -46.5,627.2 -37.1,633.9 -24.2,637.8 -7.4,639.9 -3.4,641.7 -2.4,649.1 -3.7,654.2 -18.6,652.4
	-31,648.5 -35.7,649.4 -36.2,655.9 -14.1,663.3 1.4,666.1 4,672.6 1.8,678.1 -22,676.5 -20.7,679.3 -12.4,684.2 5,688.6 6.8,695.9
	5.3,700.6 -8.3,697.9 -10.1,700.3 1.5,707.5 7,710 9.5,714 6.2,720.5 -5.3,718.2 -18.3,708.1 -48.9,662.2 -66.9,636 -73.6,613.7
	-80.5,596.5 -83.5,591.3 -86,596.3 -94.1,602.5 -96.3,601.8 -99.1,597.9 -97.3,587.4 -99.6,584.8 -121,595.3 -202.8,654.7
	-220.8,664.3 -230.5,664.9 -233.5,661.5 -229.9,651.5 -212.7,649.6 -206.4,646.4 -207.6,644.7 -214.8,645.5 -222.4,647.5
	-227.7,646.3 -225.4,639.8 -221,635.4 -218.5,634.4 -203.9,634 -189.9,629 -186.5,625.1 -195.4,624.2 "/>
</svg>
