---
title: "Bone 89"
date: 2014-12-08 12:09:29
---
<svg xmlns="http://www.w3.org/2000/svg" version="1" x="0" y="0" width="300" height="300" viewBox="0 0 300 300" enable-background="new 0 0 300 300" xml:space="preserve"><path fill="#FFFF78" d="M171 153l-3-3 -2-1 -2-1 -1-2 -1-10 -1-5 -2-2 -2-2 -4-3h-3l-1 0 -2 1 -2 1 -4 2 -4 4 0 6 1 5 -1 4 0 1 0 2 -1 2 -2 0 -3 1 -3 3 1 4 1 1h1l4-1h3l1 1 2 1 1 1 1 0 1 1 4 3 3 6 2 5 5-3 -2-3 -1-2 1-2 1-2 1-1 1-2 0-1 0-1 2 0 1 0 3 1 3 1 2-3L171 153 171 153zM152 154l-6-4 0-6h7l1 4 -1 3L152 154z"/></svg>
