---
title: "Bone 57"
date: 2014-12-08 12:08:57
---
<svg xmlns="http://www.w3.org/2000/svg" version="1" x="0" y="0" width="300" height="300" viewBox="0 0 300 300" enable-background="new 0 0 300 300" xml:space="preserve"><polygon fill="#FFFF78" points="192 191 197 176 196 163 195 141 188 120 172 103 152 91 125 89 115 96 105 100 103 102 104 105 108 109 111 107 115 105 121 99 132 97 143 97 155 103 166 112 175 122 184 145 185 160 184 170 179 191 169 206 168 208 169 210 174 211 179 210 182 206 "/></svg>
