---
title: "Glacier 53"
date: 2014-01-07 01:07:53
---
<svg xmlns="http://www.w3.org/2000/svg" version="1" x="0" y="0" width="310" height="310" viewBox="0 0 310 310" enable-background="new 0 0 310 310" xml:space="preserve"><polygon fill="#DCDCDC" points="120 183 118 182 112 179 107 175 107 171 105 166 105 163 104 159 103 153 103 150 103 149 104 126 105 124 109 121 114 118 118 116 118 115 119 112 122 107 135 107 142 108 144 108 152 113 159 115 162 116 171 118 173 123 180 127 199 134 200 135 203 140 205 146 207 157 207 159 204 161 202 163 177 177 174 182 168 185 165 189 158 194 156 196 154 196 154 198 153 200 150 202 141 203 140 202 140 201 138 196 131 194 127 190 124 189 122 186 122 186 122 186 122 186 122 186 122 186 122 186 "/></svg>
