---
title: "Glacier 146"
date: 2014-01-07 01:09:26
---
<svg xmlns="http://www.w3.org/2000/svg" version="1" x="0" y="0" width="310" height="310" viewBox="0 0 310 310" enable-background="new 0 0 310 310" xml:space="preserve"><polygon fill="#DCDCDC" points="122 173 127 173 137 171 139 171 146 169 156 169 162 169 169 168 177 168 197 168 198 166 199 166 199 165 199 161 198 158 196 158 189 156 186 155 184 155 177 154 172 152 166 149 164 148 163 147 158 147 157 146 154 146 153 147 150 146 146 145 144 143 141 142 137 139 136 139 135 138 135 137 133 136 132 136 131 135 129 135 126 140 124 143 123 144 120 148 117 151 116 152 116 157 115 158 114 162 114 167 111 173 113 175 122 173 122 173 122 173 122 173 122 173 122 173 122 173 "/></svg>
