---
title: "Bone 8"
date: 2014-12-08 12:08:08
---
<svg xmlns="http://www.w3.org/2000/svg" version="1" x="0" y="0" width="300" height="300" viewBox="0 0 300 300" enable-background="new 0 0 300 300" xml:space="preserve"><polygon fill="#FFFF78" points="58 104 54 99 62 93 71 100 79 103 85 105 91 102 88 98 82 93 77 89 75 85 78 83 81 82 84 81 87 81 91 82 96 89 102 94 108 97 116 100 119 101 122 98 113 91 109 88 101 80 99 77 102 73 106 71 111 72 117 79 125 87 132 91 140 95 150 98 157 99 162 99 176 100 170 98 159 96 149 94 141 88 134 83 128 78 124 73 122 67 126 64 131 62 135 64 138 71 144 79 152 83 158 85 166 89 175 91 183 93 186 91 177 87 172 83 167 79 160 73 155 68 150 61 147 56 154 51 159 51 161 54 166 62 173 69 182 77 188 80 194 82 198 80 191 73 187 69 183 65 174 51 174 46 177 42 184 39 188 44 191 53 195 58 205 70 212 69 214 67 212 62 202 51 199 45 196 38 199 35 205 33 207 34 209 36 210 40 212 44 218 51 219 53 222 54 223 48 221 45 219 39 216 32 219 28 226 26 229 30 233 35 245 41 248 43 250 47 255 50 259 54 261 60 263 65 266 67 274 68 276 70 274 78 271 80 266 78 259 75 250 74 246 77 251 83 261 86 268 89 270 93 265 100 256 97 250 95 246 92 243 90 237 86 232 85 227 90 227 94 230 97 240 105 242 107 249 109 253 111 256 112 259 115 257 124 254 128 250 127 245 124 239 120 232 115 223 106 220 103 217 102 214 106 218 115 223 120 233 130 243 136 249 138 252 143 249 151 245 154 235 146 227 141 219 134 210 123 208 116 207 115 205 115 202 119 204 128 206 134 209 139 217 147 224 153 229 156 235 157 240 158 243 161 243 165 238 172 234 173 227 170 216 162 204 150 200 142 199 137 197 127 195 122 194 128 195 134 196 140 201 153 204 161 212 167 220 173 234 181 235 184 233 190 231 192 224 189 214 183 204 175 197 172 194 175 196 179 199 184 208 193 214 197 221 201 224 204 221 211 218 215 207 207 198 199 194 197 190 203 197 211 206 218 217 227 218 229 217 233 213 237 207 234 198 228 194 226 194 229 199 236 211 247 210 254 206 257 196 249 194 250 200 261 204 266 204 270 199 274 190 267 184 253 180 235 179 224 178 211 177 203 175 189 173 173 177 152 178 135 178 129 174 133 169 134 164 134 163 133 162 128 168 120 167 117 145 117 126 120 104 124 82 128 63 131 53 133 34 133 25 130 24 126 31 119 36 121 46 125 53 124 53 123 46 120 39 119 35 116 40 111 45 109 48 109 54 113 60 115 69 116 74 117 78 115 71 111 "/></svg>
