---
title: "Bone optimised 01"
date: 2014-12-08 12:08:01
---
<svg xmlns="http://www.w3.org/2000/svg" version="1" x="0" y="0" width="243" height="252" viewBox="-233 469 243 252" enable-background="new -233.5 468.5 243 252" xml:space="preserve"><polygon fill="#000000" points="-211 625 -218 622 -213 612 -201 614 -185 613 -181 606 -185 604 -194 602 -200 601 -204 598 -202 595 -200 592 -194 588 -190 588 -182 592 -173 594 -157 593 -154 592 -153 588 -170 584 -181 581 -185 578 -184 574 -181 569 -176 568 -155 575 -136 577 -118 572 -100 564 -106 565 -118 569 -128 571 -156 566 -163 562 -167 558 -165 553 -161 549 -156 549 -150 554 -141 559 -131 560 -124 558 -114 558 -105 555 -96 554 -94 550 -104 551 -134 543 -149 535 -145 527 -139 524 -127 532 -105 539 -91 538 -88 534 -98 530 -110 526 -125 517 -128 513 -126 508 -121 501 -115 504 -107 511 -101 515 -86 521 -80 517 -79 514 -83 510 -97 504 -104 500 -110 495 -109 490 -103 486 -101 485 -98 487 -96 490 -92 492 -83 496 -80 498 -77 497 -79 491 -82 489 -87 484 -93 479 -92 474 -86 469 -76 474 -58 475 -54 477 -47 478 -41 480 -37 485 -32 488 -29 489 -20 486 -17 488 -15 495 -18 499 -31 500 -40 504 -43 508 -35 511 -24 510 -16 509 -12 512 -14 522 -24 523 -30 523 -36 523 -40 522 -47 521 -52 522 -55 529 -53 533 -48 536 -36 538 -20 538 -17 537 -12 539 -10 548 -11 554 -15 554 -21 554 -29 554 -56 545 -59 546 -59 551 -52 558 -30 566 -18 566 -11 566 -5 569 -5 579 -7 583 -30 579 -56 570 -62 563 -64 565 -65 569 -54 582 -48 586 -28 592 -22 592 -10 589 -5 590 -3 594 -5 604 -8 606 -17 607 -31 605 -48 599 -67 580 -71 576 -68 582 -50 604 -43 609 -22 614 -4 614 -2 617 -2 626 -10 626 -36 623 -45 623 -46 627 -37 634 -24 638 -7 640 -3 642 -2 649 -4 654 -19 652 -31 649 -36 649 -36 656 -14 663 1 666 4 673 2 678 -22 677 -21 679 -12 684 5 689 7 696 5 701 -8 698 -10 700 2 708 7 710 10 714 6 721 -5 718 -18 708 -49 662 -67 636 -74 614 -80 597 -83 591 -86 596 -94 603 -96 602 -99 598 -97 587 -100 585 -121 595 -203 655 -221 664 -230 665 -233 662 -230 652 -213 650 -206 646 -208 645 -215 646 -222 648 -228 646 -225 640 -221 635 -218 634 -204 634 -190 629 -186 625 -195 624 "/></svg>
