---
title: "Glacier 67"
date: 2014-01-07 01:08:07
---
<svg xmlns="http://www.w3.org/2000/svg" version="1" x="0" y="0" width="310" height="310" viewBox="0 0 310 310" enable-background="new 0 0 310 310" xml:space="preserve"><polygon fill="#DCDCDC" points="116 146 113 151 112 159 112 168 114 176 116 181 118 186 118 189 123 193 128 195 133 197 145 198 161 202 167 202 171 200 182 197 188 190 189 189 190 188 192 181 194 173 195 169 197 151 199 143 200 140 200 126 197 126 191 125 182 124 171 123 170 122 162 121 148 121 148 120 144 117 127 110 118 108 111 111 110 114 110 123 111 129 116 146 116 146 116 146 116 146 116 146 116 146 "/></svg>
