---
title: "Bone 98"
date: 2014-12-08 12:09:38
---
<svg xmlns="http://www.w3.org/2000/svg" version="1" x="0" y="0" width="300" height="300" viewBox="0 0 300 300" enable-background="new 0 0 300 300" xml:space="preserve"><polygon fill="#FFFF78" points="295 205 283 210 274 207 269 204 266 195 262 188 255 184 242 181 240 184 233 184 228 180 226 174 185 166 151 158 114 153 75 150 52 150 30 159 20 157 15 153 8 151 0 145 0 138 5 127 16 125 23 118 15 114 14 100 17 92 22 91 27 92 40 95 47 101 55 108 70 116 75 117 114 127 151 136 220 149 245 151 261 141 272 141 282 146 285 155 283 161 283 167 286 173 294 177 300 186 299 199 "/></svg>
