---
title: "Bone 81"
date: 2014-12-08 12:09:21
---
<svg xmlns="http://www.w3.org/2000/svg" version="1" x="0" y="0" width="300" height="300" viewBox="0 0 300 300" enable-background="new 0 0 300 300" xml:space="preserve"><path fill="#FFFF78" d="M174 153l-3-1h-2l-2 0 -5-4 -3-4 4-5 -1-2 -1-2 -1-1 -3 2 -2 1 0-1 -1 0 -5 2 -7-2h-4l-5 1 0 0 -5 6 -1 4 0 6 2 4 5 5 3 1 9-1 4-1h3l3 5 1-1 1-1 0-1 2 1 2-1 3-2 5-3 3-1 2 0 2-2L174 153 174 153zM157 152l-2 1 -1-2 -3-1 -1 1 -3 0 -1-2 0-4 7-2 2 2 4 3L157 152 157 152z"/></svg>
