---
title: "H2O"
date: 2014-10-30 10:30:18
---
<?xml version="1.0" encoding="utf-8"?>
<!-- Generator: Adobe Illustrator 15.1.0, SVG Export Plug-In . SVG Version: 6.00 Build 0)  -->
<!DOCTYPE svg PUBLIC "-//W3C//DTD SVG 1.1//EN" "http://www.w3.org/Graphics/SVG/1.1/DTD/svg11.dtd">
<svg version="1.1" id="Layer_1" xmlns="http://www.w3.org/2000/svg" xmlns:xlink="http://www.w3.org/1999/xlink" x="0px" y="0px"
	 width="144px" height="110px" viewBox="0 0 144 110" enable-background="new 0 0 144 110" xml:space="preserve">
<g>
	<polygon fill="#F26531" points="113.548,55.952 109.385,50.042 104.833,43.992 98.967,36.715 100.526,31.354 102.48,20.401
		100.023,11.508 92.462,4.104 83.563,0 71.467,1.022 67.191,2.507 57.507,14.435 56.473,24.87 60.018,35.641 58.752,36.531
		57.062,38.098 53.616,41.611 49.653,45.676 45.544,50.059 44.712,50.642 42.99,52.865 40.837,54.713 38.23,56.929 33.77,61.375
		30.724,64.428 27.778,67.502 26.25,68.829 25.786,68.887 28.173,71.771 29.87,73.809 31.729,75.684 33.245,75.982 36.06,73.128
		38.419,71.599 41.443,68.606 45.931,64.069 51.017,59.47 59.62,50.872 68.101,42.432 72.694,44.216 80.273,45.229 83.194,44.842
		86.717,44.331 89.111,43.602 92.353,47.498 99.55,56.812 101.401,58.935 103.747,62.857 106.527,67.147 109.989,73.455
		114.321,80.763 114.716,81.104 115.575,80.669 118.158,78.934 122.61,75.885 124.94,74.451 119.036,65.019 113.548,55.952 	"/>
	<polygon fill="#FFFFFF" points="112.736,73.325 114.09,75.116 114.456,75.596 117.803,80.013 119.552,82.336 121.482,84.721
		122.496,85.966 123.124,86.788 124.675,88.899 124.854,89.137 124.011,89.919 122.884,91.174 121.913,92.562 120.805,96.072
		120.782,99.232 121.419,102.671 123.914,106.809 124.733,107.652 126.291,109.082 128.249,109.604 130.102,110 138.315,108.52
		143.694,101.501 144,97.685 142.646,91.692 141.852,90.589 140.668,89.654 135.729,87.009 130.973,86.306 129.913,86.616
		128.727,84.814 125.922,80.902 121.645,75.048 119.704,72.421 117.567,69.555 117.436,69.391 112.48,73.022 112.736,73.325 	"/>
	<polygon fill="#FFFFFF" points="29.719,67.789 23.423,74.057 20.743,76.734 18.63,78.828 17.184,78.211 15.36,77.373
		13.479,77.007 11.587,77.05 9.768,77.396 0.8,83.551 0,90.882 2.459,96.397 6.936,99.736 9.455,100.59 17.467,99.385
		21.716,95.113 22.717,92.919 23.359,90.676 23.493,85.383 22.881,83.706 23.997,82.168 31.575,74.448 37.237,68.701 33.013,64.481
		32.855,64.633 29.719,67.789 	"/>
</g>
</svg>
