---
title: "Bone 83"
date: 2014-12-08 12:09:23
---
<svg xmlns="http://www.w3.org/2000/svg" version="1" x="0" y="0" width="300" height="300" viewBox="0 0 300 300" enable-background="new 0 0 300 300" xml:space="preserve"><path fill="#FFFF78" d="M173 141l-3-2 -6 1 -2 2 -1 0 0-1 -1-3 -1 0 -1 1 -3 2 -2-3 -3-3 -6-4 -6-1 -5 0 -4 4 -1 5v6l-1 4 3 2 5 1 3 5 2 2 3 0 -2 8 1 6 3 1 2-1 1-3 3 0 10-2 4 2 2 2 3 1 -1-4 -3-5 -2-8 2-6 4-1 4 0V141L173 141zM154 154l-3-1 -1-3 -4 0 -1 1 1-5 4-2 4 1 2 3L154 154 154 154z"/></svg>
