---
title: "Blue Star 4"
date: 2014-10-30 10:30:04
---
<?xml version="1.0" encoding="utf-8"?>
<!-- Generator: Adobe Illustrator 15.1.0, SVG Export Plug-In . SVG Version: 6.00 Build 0)  -->
<!DOCTYPE svg PUBLIC "-//W3C//DTD SVG 1.1//EN" "http://www.w3.org/Graphics/SVG/1.1/DTD/svg11.dtd">
<svg version="1.1" id="Layer_1" xmlns="http://www.w3.org/2000/svg" xmlns:xlink="http://www.w3.org/1999/xlink" x="0px" y="0px"
	 width="72px" height="72px" viewBox="0 0 72 72" enable-background="new 0 0 72 72" xml:space="preserve">
<polygon fill="#00FFFF" points="20.045,43.748 19.467,45.964 13.415,54.388 9.211,63.727 14.407,61.684 22.264,56.129
	27.945,53.298 29.308,52.429 30.872,56.908 34.99,67.074 38.269,72 41.194,56.498 42.415,48.817 42.957,46.352 44.904,47.525
	51.958,52.486 56.829,57.826 58.744,58.672 58.1,56.366 54.626,48.395 51.476,38.957 53.997,32.835 63.814,23.68 70.358,19.469
	72,18.327 58.565,18.154 48.91,20.598 51.102,13.918 51.506,7.581 51.178,4.573 43.643,10.646 36.54,19.276 29.654,6.42 25.773,0
	24.947,3.524 24.724,10.833 24.128,17.683 23.834,19.709 19,18.263 5.899,16.278 7.281,19.007 10.472,24.478 17.133,30.365
	12.871,32.71 5.471,38.777 0,44.283 12.888,44.335 "/>
</svg>
