---
title: "Bone 52"
date: 2014-12-08 12:08:52
---
<svg xmlns="http://www.w3.org/2000/svg" version="1" x="0" y="0" width="300" height="300" viewBox="0 0 300 300" enable-background="new 0 0 300 300" xml:space="preserve"><path fill="#FFFF78" d="M173 151l-3-2 -7-2 -3-4 -2-3 0-3 -2-4 1-1 -3-2 -5 3 0-6 0-3 -2 0 -3 2 -3 7 0 6 -6 1 -6 5 -2 3 -1 5 0 3 1 2 5 13 5 2 8 1 3-2 15 5 3-2 2-2 -1-2 -2-2 -1-2 3-4 -2-4 4-4L173 151 173 151zM158 154l-2 2 -2 1 -1-3 -2-2 -2-5 1-3h3l1 1 2 1 3 2 2 2L158 154 158 154z"/></svg>
