---
title: "Glacier 142"
date: 2014-01-07 01:09:22
---
<svg xmlns="http://www.w3.org/2000/svg" version="1" x="0" y="0" width="310" height="310" viewBox="0 0 310 310" enable-background="new 0 0 310 310" xml:space="preserve"><polygon fill="#DCDCDC" points="139 157 136 152 136 150 136 147 134 145 134 137 135 131 137 128 137 121 143 120 147 120 149 121 151 121 154 125 159 129 160 131 162 132 164 135 165 137 166 142 169 145 171 149 172 150 176 166 176 171 174 172 173 174 173 183 171 186 168 188 167 190 160 190 152 186 144 179 141 171 139 157 139 157 139 157 139 157 139 157 "/></svg>
