---
title: "Glacier 36"
date: 2014-01-07 01:07:36
---
<svg xmlns="http://www.w3.org/2000/svg" version="1" x="0" y="0" width="310" height="310" viewBox="0 0 310 310" enable-background="new 0 0 310 310" xml:space="preserve"><polygon fill="#DCDCDC" points="139 159 136 157 135 155 134 154 134 146 136 140 136 138 137 137 138 137 140 135 144 133 146 131 155 125 162 126 168 131 170 132 171 138 172 143 176 153 177 156 175 160 175 163 173 165 171 171 170 172 165 175 156 184 154 185 148 176 145 167 139 159 "/></svg>
