---
title: "Glacier 121"
date: 2014-01-07 01:09:01
---
<svg xmlns="http://www.w3.org/2000/svg" version="1" x="0" y="0" width="310" height="310" viewBox="0 0 310 310" enable-background="new 0 0 310 310" xml:space="preserve"><polygon fill="#DCDCDC" points="148 162 147 158 147 158 145 157 144 155 143 153 144 147 144 146 144 145 147 144 151 144 152 144 154 144 155 143 161 145 161 145 161 146 162 147 163 148 164 149 166 150 167 151 167 154 166 156 165 157 165 160 164 163 164 163 161 165 161 165 160 165 159 166 157 167 "/></svg>
