---
title: "Glacier 95"
date: 2014-01-07 01:08:35
---
<svg xmlns="http://www.w3.org/2000/svg" version="1" x="0" y="0" width="310" height="310" viewBox="0 0 310 310" enable-background="new 0 0 310 310" xml:space="preserve"><polygon fill="#DCDCDC" points="145 161 144 160 142 159 142 157 142 154 142 152 142 151 143 151 143 151 143 150 144 149 144 149 146 146 148 146 152 146 153 146 155 146 163 146 165 147 166 148 168 151 168 152 168 153 168 155 167 156 166 156 166 156 166 157 165 157 163 158 162 159 157 162 151 164 149 164 148 162 147 162 146 162 146 162 146 162 146 162 146 162 146 162 "/></svg>
