---
title: "Glacier 70"
date: 2014-01-07 01:08:10
---
<svg xmlns="http://www.w3.org/2000/svg" version="1" x="0" y="0" width="310" height="310" viewBox="0 0 310 310" enable-background="new 0 0 310 310" xml:space="preserve"><polygon fill="#DCDCDC" points="148 169 148 169 147 165 145 162 145 161 144 160 141 155 140 154 138 149 138 143 138 142 139 141 143 138 146 137 148 136 150 136 151 135 156 134 157 134 162 135 162 136 164 139 166 140 167 141 171 144 172 146 172 149 172 151 171 154 171 155 171 156 170 157 170 158 166 164 164 174 163 175 159 176 155 176 150 174 148 170 148 170 148 170 148 170 "/></svg>
