---
title: "Glacier 13"
date: 2014-01-07 01:07:13
---
<svg xmlns="http://www.w3.org/2000/svg" version="1" x="0" y="0" width="310" height="310" viewBox="0 0 310 310" enable-background="new 0 0 310 310" xml:space="preserve"><polygon fill="#DCDCDC" points="116 164 119 168 130 184 130 186 131 186 132 188 133 190 134 193 145 193 161 187 163 187 166 187 174 183 174 181 177 179 184 176 185 174 192 165 195 160 195 157 194 154 191 152 191 151 185 148 176 137 174 137 170 134 161 125 159 121 158 120 155 118 154 117 146 117 143 118 139 118 136 120 131 122 129 123 126 127 120 136 118 143 116 147 115 155 116 164 "/></svg>
