---
title: "Glacier 18"
date: 2014-01-07 01:07:18
---
<svg xmlns="http://www.w3.org/2000/svg" version="1" x="0" y="0" width="310" height="310" viewBox="0 0 310 310" enable-background="new 0 0 310 310" xml:space="preserve"><polygon fill="#DCDCDC" points="110 177 105 175 103 172 101 170 100 167 99 164 99 157 101 155 103 150 109 138 114 130 122 119 124 118 136 114 143 113 147 111 149 110 152 110 156 111 160 112 172 112 179 113 181 115 184 119 190 122 200 130 206 142 209 148 210 149 211 157 210 159 209 162 208 185 205 188 202 190 200 191 191 195 187 197 180 200 166 195 160 194 146 193 129 192 120 187 110 177 110 177 110 177 110 177 "/></svg>
