---
title: "Glacier 8"
date: 2014-01-07 01:07:08
---
<svg xmlns="http://www.w3.org/2000/svg" version="1" x="0" y="0" width="310" height="310" viewBox="0 0 310 310" enable-background="new 0 0 310 310" xml:space="preserve"><polygon fill="#DCDCDC" points="14 193 25 200 35 203 40 206 58 213 93 231 130 245 135 245 147 248 154 248 157 250 159 253 191 257 193 258 194 256 198 253 210 252 221 245 226 245 234 241 253 242 257 239 260 234 267 230 275 229 278 222 277 215 275 213 272 212 269 206 269 203 273 203 276 206 278 209 280 212 290 208 297 203 299 190 300 188 300 185 302 181 303 173 305 168 305 158 308 154 308 152 310 150 310 137 309 137 309 128 305 125 304 118 308 113 308 110 303 104 301 96 299 83 297 77 288 75 288 71 288 63 287 61 284 60 268 59 267 58 265 58 262 56 252 53 244 53 239 57 220 65 215 68 208 69 207 73 205 76 191 76 186 81 162 81 161 79 155 79 146 83 139 84 134 85 132 86 130 86 127 87 121 89 118 90 99 98 95 99 86 99 79 100 76 101 72 102 60 102 55 104 36 116 32 120 30 123 25 126 14 137 13 141 10 147 7 150 6 153 3 164 0 173 0 176 0 180 1 182 1 190 "/></svg>
