---
title: "Glacier 167"
date: 2014-01-07 01:09:47
---
<svg xmlns="http://www.w3.org/2000/svg" version="1" x="0" y="0" width="310" height="310" viewBox="0 0 310 310" enable-background="new 0 0 310 310" xml:space="preserve"><polygon fill="#DCDCDC" points="153 163 153 164 154 164 155 165 156 165 157 165 157 165 158 164 158 164 160 164 160 163 161 162 162 162 162 162 162 160 162 159 163 159 163 154 163 154 163 153 161 152 160 152 159 150 158 148 157 146 157 146 157 146 154 145 153 145 151 146 151 146 151 146 149 146 148 146 147 147 147 148 147 150 148 151 148 152 149 153 150 156 152 159 152 161 153 163 153 163 153 163 153 163 153 163 153 163 153 163 "/></svg>
