---
title: "Glacier 275"
date: 2014-01-07 01:11:35
---
<svg xmlns="http://www.w3.org/2000/svg" version="1" x="0" y="0" width="310" height="310" viewBox="0 0 310 310" enable-background="new 0 0 310 310" xml:space="preserve"><polygon fill="#DCDCDC" points="142 177 140 176 139 175 138 174 138 173 138 173 139 169 139 168 139 165 139 162 139 158 140 147 140 144 141 143 141 140 142 139 142 139 143 139 144 137 145 137 147 136 152 134 159 134 162 136 164 136 168 140 169 142 172 145 172 147 172 148 169 151 168 152 164 159 158 164 156 167 153 169 152 171 150 172 145 175 142 177 142 177 142 177 142 177 142 177 142 177 142 177 "/></svg>
