---
title: "Glacier 7"
date: 2014-01-07 01:07:07
---
<svg xmlns="http://www.w3.org/2000/svg" version="1" x="0" y="0" width="310" height="310" viewBox="0 0 310 310" enable-background="new 0 0 310 310" xml:space="preserve"><polygon fill="#DCDCDC" points="90 151 95 144 105 131 119 116 128 109 132 105 135 103 147 93 150 91 153 88 162 79 165 78 173 78 183 81 188 81 200 82 204 83 206 85 217 89 219 89 221 90 230 93 230 102 225 115 223 118 222 121 221 124 218 125 218 127 217 129 213 136 212 141 210 145 210 146 209 148 207 151 205 153 197 160 196 162 192 164 189 167 184 169 168 183 166 187 159 195 156 200 153 203 150 208 148 209 147 211 140 222 137 224 135 228 128 233 117 231 116 229 114 227 113 223 110 217 107 214 97 207 89 190 80 176 84 166 86 159 90 151 90 151 90 151 90 151 90 151 90 151 90 151 "/></svg>
