---
title: "Glacier 160"
date: 2014-01-07 01:09:40
---
<svg xmlns="http://www.w3.org/2000/svg" version="1" x="0" y="0" width="310" height="310" viewBox="0 0 310 310" enable-background="new 0 0 310 310" xml:space="preserve"><polygon fill="#DCDCDC" points="130 171 131 169 132 154 134 152 134 151 135 150 135 149 135 141 136 136 137 135 138 134 138 130 140 126 141 125 144 124 145 121 146 120 154 120 159 119 162 119 163 120 167 121 169 122 178 125 180 132 180 136 180 141 181 146 174 158 173 161 173 163 173 167 173 170 173 175 172 178 168 180 163 182 162 182 162 184 160 187 160 188 160 190 159 190 158 191 153 191 150 190 148 188 146 188 143 188 141 190 134 190 132 190 131 187 130 185 129 175 130 171 130 171 130 171 130 171 130 171 130 171 130 171 "/></svg>
