---
title: "Blue Star 5"
date: 2014-10-30 10:30:05
---
<?xml version="1.0" encoding="utf-8"?>
<!-- Generator: Adobe Illustrator 15.1.0, SVG Export Plug-In . SVG Version: 6.00 Build 0)  -->
<!DOCTYPE svg PUBLIC "-//W3C//DTD SVG 1.1//EN" "http://www.w3.org/Graphics/SVG/1.1/DTD/svg11.dtd">
<svg version="1.1" id="Layer_1" xmlns="http://www.w3.org/2000/svg" xmlns:xlink="http://www.w3.org/1999/xlink" x="0px" y="0px"
	 width="72px" height="72px" viewBox="0 0 72 72" enable-background="new 0 0 72 72" xml:space="preserve">
<polygon fill="#00FFFF" points="62.001,22.376 65.249,19.548 68.5,16.601 66.744,16.766 62.836,17.792 56.144,19.528 51.418,21.902
	52.169,15.55 52.699,10.197 51.613,3.499 49.081,5.537 47.506,8.086 46.479,9.072 44.292,11.217 41.421,14.954 38.285,20.092
	35.906,14.815 33.011,9.12 30.157,4.737 27.265,10.405 25.288,15.137 23.688,17.768 20.765,17.021 14.4,14.279 12.599,13.514
	14.961,19.538 19.608,25.865 16.522,28.865 10.414,33.393 3.5,37.54 19.94,41.678 13.549,47.037 9.934,50.136 7.021,52.446
	9.967,53.342 16.164,54.535 20.561,54.746 20.729,62.084 18.896,68.5 21.086,67.483 23.042,65.293 26.791,60.981 31.135,56.793
	32.658,56.239 33.339,57.988 34.984,61.18 39.836,66.923 41.693,63.107 45.913,52.948 47.438,53.729 50.188,54.746 55.773,57.298
	60.117,59.067 59.017,55.468 55.906,47.445 54.858,43.679 54.21,42.799 54.303,41.725 55.902,40.798 59.916,38.672 64.626,36.702
	66.996,35.617 63.534,33.736 56.863,28.841 59.192,25.484 "/>
</svg>
