---
title: "Glacier 4"
date: 2014-01-07 01:07:04
---
<svg xmlns="http://www.w3.org/2000/svg" version="1" x="0" y="0" width="310" height="310" viewBox="0 0 310 310" enable-background="new 0 0 310 310" xml:space="preserve"><polygon fill="#DCDCDC" points="66 190 61 190 47 180 46 177 40 166 36 163 33 162 26 153 15 134 15 104 17 93 24 88 40 78 43 76 47 74 50 74 53 65 58 62 71 58 94 57 98 54 106 53 145 51 159 49 170 49 176 52 189 55 202 58 219 66 227 69 244 77 246 80 256 83 257 84 264 98 266 102 271 107 274 110 279 114 281 115 285 127 292 145 293 147 295 152 295 158 293 162 290 166 283 172 281 174 281 178 281 184 280 187 278 189 274 196 269 200 265 210 265 233 262 238 258 242 252 249 248 251 243 254 239 258 234 254 229 250 225 248 223 249 211 255 197 255 194 257 186 261 176 261 169 258 167 257 166 256 158 255 148 253 138 252 137 252 128 251 123 251 121 250 120 248 119 246 117 243 117 240 118 239 116 236 115 221 115 218 116 214 119 205 119 203 120 201 106 197 94 196 87 196 77 193 75 192 72 192 70 192 69 191 66 190 66 190 "/></svg>
