---
title: "Glacier 255"
date: 2014-01-07 01:11:15
---
<svg xmlns="http://www.w3.org/2000/svg" version="1" x="0" y="0" width="310" height="310" viewBox="0 0 310 310" enable-background="new 0 0 310 310" xml:space="preserve"><polygon fill="#DCDCDC" points="157 173 152 173 149 171 145 166 144 165 143 164 141 162 142 156 142 140 144 138 148 137 151 138 152 139 153 140 155 142 167 147 168 149 169 151 166 156 167 160 168 163 167 172 159 172 158 172 158 172 158 172 158 172 158 172 158 172 158 172 "/></svg>
