---
title: "Glacier 76"
date: 2014-01-07 01:08:16
---
<svg xmlns="http://www.w3.org/2000/svg" version="1" x="0" y="0" width="310" height="310" viewBox="0 0 310 310" enable-background="new 0 0 310 310" xml:space="preserve"><polygon fill="#DCDCDC" points="123 177 121 164 122 159 128 155 132 143 133 136 139 133 147 125 153 113 158 111 178 117 183 119 184 127 190 138 185 155 188 162 189 168 186 175 183 180 184 187 184 192 180 197 175 200 157 192 153 189 144 191 133 186 131 183 129 182 123 177 123 177 123 177 123 177 123 177 123 177 123 177 "/></svg>
