---
title: "Blue Star 10"
date: 2014-10-30 10:30:10
---
<?xml version="1.0" encoding="utf-8"?>
<!-- Generator: Adobe Illustrator 15.1.0, SVG Export Plug-In . SVG Version: 6.00 Build 0)  -->
<!DOCTYPE svg PUBLIC "-//W3C//DTD SVG 1.1//EN" "http://www.w3.org/Graphics/SVG/1.1/DTD/svg11.dtd">
<svg version="1.1" id="Layer_1" xmlns="http://www.w3.org/2000/svg" xmlns:xlink="http://www.w3.org/1999/xlink" x="0px" y="0px"
	 width="72px" height="72px" viewBox="0 0 72 72" enable-background="new 0 0 72 72" xml:space="preserve">
<polygon fill="#00FFFF" points="42.041,56.85 43.383,53.865 44.636,49.33 44.974,49.265 45.099,49.49 46.225,50.431 51.797,57.01
	57.985,63.271 62.086,67.004 62.509,64.713 59.201,55.3 56.301,49.824 54.531,47.335 52.534,43.738 50.544,41.155 49.99,39.562
	51.377,39.528 53.129,39.689 55.874,40.424 59.539,41.348 64.244,43.03 66,43.139 65.932,42.341 65.47,41.017 55.512,30.639
	54.599,29.014 52.635,26.634 59.507,18.838 61.815,15.409 63.771,12.596 64.729,9.511 64.284,9.238 63.408,9.806 62.452,10.305
	59.291,12.648 46.635,19.809 45.106,18.188 44.252,16.297 44.104,15.6 43.572,14.761 41.797,10.512 39.581,5.828 38.243,3.966
	37.766,3.5 37.302,3.927 36.447,7.063 33.021,19.95 31.998,19.723 30.759,18.225 29.284,17.203 21.898,11.463 16.306,9.137
	14.659,9.145 14.831,11.424 17.012,16.077 21.33,20.428 22.094,21.221 22.974,22.164 18.042,21.11 16.092,20.69 14.399,20.064
	9.503,18.659 6.854,19.103 7.953,20.94 11.781,24.44 18.261,29.009 19.69,30.399 20.335,31.106 17.833,32.255 14.725,34.188
	11.978,35.235 7.309,38.003 6.566,38.979 6,39.818 20.224,41.312 24.004,42.284 24.931,42.745 18.765,49.968 15.205,55.134
	12.813,58.107 11.46,60.766 14.702,59.618 18.118,57.911 24.619,55.484 30.65,50.565 31.931,49.609 35.444,60.095 38.18,65.374
	39.736,68.5 39.978,64.396 "/>
</svg>
