---
title: "Glacier 1"
date: 2014-01-07 01:07:01
---
<svg xmlns="http://www.w3.org/2000/svg" version="1" x="0" y="0" width="310" height="310" viewBox="0 0 310 310" enable-background="new 0 0 310 310" xml:space="preserve"><polygon fill="#DCDCDC" points="165 181 154 180 150 179 148 178 143 175 139 172 136 170 133 169 125 164 123 153 123 150 125 146 136 137 137 135 140 132 150 130 153 130 157 130 172 135 173 138 173 141 174 145 175 147 180 150 180 151 182 153 185 158 187 161 187 166 185 171 184 174 180 175 179 176 175 177 170 177 167 178 165 181 165 181 165 181 "/></svg>
