---
title: "Glacier 163"
date: 2014-01-07 01:09:43
---
<svg xmlns="http://www.w3.org/2000/svg" version="1" x="0" y="0" width="310" height="310" viewBox="0 0 310 310" enable-background="new 0 0 310 310" xml:space="preserve"><polygon fill="#DCDCDC" points="168 172 165 171 160 171 158 169 157 167 152 164 150 162 144 158 143 157 142 155 137 151 135 150 134 149 132 149 128 148 125 145 125 143 123 141 123 137 124 137 127 136 133 138 138 139 139 139 144 139 146 140 147 141 151 141 153 140 155 139 171 142 175 144 179 146 180 147 182 148 183 149 185 151 186 153 187 154 187 155 187 157 185 160 184 161 183 163 182 164 182 165 182 166 182 167 177 171 175 174 169 173 168 172 168 172 168 172 168 172 168 172 168 172 168 172 "/></svg>
