<svg xmlns="http://www.w3.org/2000/svg" version="1" x="0" y="0" width="310" height="310" viewBox="0 0 310 310" enable-background="new 0 0 310 310" xml:space="preserve"><polygon fill="#DCDCDC" points="169 159 166 162 166 163 165 164 165 165 164 167 164 167 163 168 157 169 148 166 144 166 143 165 142 164 141 163 141 163 140 162 138 160 138 154 139 153 144 149 144 147 149 144 150 143 150 143 151 142 152 142 153 141 155 141 156 143 157 144 159 144 166 147 167 147 168 149 171 150 172 154 172 156 "/></svg>
