---
title: "Glacier 101"
date: 2014-01-07 01:08:41
---
<svg xmlns="http://www.w3.org/2000/svg" version="1" x="0" y="0" width="310" height="310" viewBox="0 0 310 310" enable-background="new 0 0 310 310" xml:space="preserve"><polygon fill="#DCDCDC" points="153 176 158 174 158 172 162 169 171 166 174 164 177 163 181 160 182 159 182 158 183 156 184 155 186 150 180 143 177 142 169 132 166 132 159 132 151 134 148 136 137 141 134 143 131 144 124 155 124 157 125 160 127 161 127 161 128 161 134 165 135 167 138 170 140 174 141 175 145 179 153 176 153 176 153 176 153 176 153 176 "/></svg>
