---
title: "Bone 66"
date: 2014-12-08 12:09:06
---
<svg xmlns="http://www.w3.org/2000/svg" version="1" x="0" y="0" width="300" height="300" viewBox="0 0 300 300" enable-background="new 0 0 300 300" xml:space="preserve"><polygon fill="#FFFF78" points="124 210 145 177 160 163 173 151 184 138 192 126 203 112 218 95 225 89 231 82 231 78 226 72 221 64 213 60 207 59 201 61 192 67 188 74 190 82 192 87 189 94 175 118 152 146 111 187 96 198 80 199 75 198 69 206 72 212 71 220 80 226 82 231 92 241 98 241 105 239 110 234 115 226 "/></svg>
