---
title: "Glacier 119"
date: 2014-01-07 01:08:59
---
<svg xmlns="http://www.w3.org/2000/svg" version="1" x="0" y="0" width="310" height="310" viewBox="0 0 310 310" enable-background="new 0 0 310 310" xml:space="preserve"><polygon fill="#DCDCDC" points="139 152 139 149 140 148 140 147 143 140 147 138 149 137 150 136 151 136 154 134 156 134 161 132 163 131 166 131 170 132 171 135 170 138 172 144 172 147 171 151 170 157 167 160 166 161 161 168 159 169 158 171 155 174 154 177 151 179 147 179 145 178 142 177 139 176 139 173 "/></svg>
