---
title: "Glacier 170"
date: 2014-01-07 01:09:50
---
<svg xmlns="http://www.w3.org/2000/svg" version="1" x="0" y="0" width="310" height="310" viewBox="0 0 310 310" enable-background="new 0 0 310 310" xml:space="preserve"><polygon fill="#DCDCDC" points="138 170 139 164 143 161 145 157 145 156 145 156 145 152 151 142 152 141 152 140 155 138 160 138 162 138 170 144 172 150 172 151 172 154 169 156 168 158 167 165 166 167 165 169 163 171 161 171 158 171 153 170 150 170 145 170 144 170 143 171 141 172 140 172 139 173 138 170 138 170 138 170 "/></svg>
