---
title: "Circle 1"
date: 2014-10-30 10:30:17
---
<?xml version="1.0" encoding="utf-8"?>
<!-- Generator: Adobe Illustrator 15.1.0, SVG Export Plug-In . SVG Version: 6.00 Build 0)  -->
<!DOCTYPE svg PUBLIC "-//W3C//DTD SVG 1.1//EN" "http://www.w3.org/Graphics/SVG/1.1/DTD/svg11.dtd">
<svg version="1.1" id="Layer_1" xmlns="http://www.w3.org/2000/svg" xmlns:xlink="http://www.w3.org/1999/xlink" x="0px" y="0px"
	 width="144px" height="144px" viewBox="0 0 144 144" enable-background="new 0 0 144 144" xml:space="preserve">
<polygon fill="#FFFFFF" points="143.756,83.804 140.985,93.932 131.21,115.896 126.176,121.789 121.279,125.963 118.243,128.366
	113.553,131.948 101.11,138.288 97.365,140.013 94.764,141.289 91.261,141.26 84.552,142.256 82.001,143.032 79.987,144
	72.848,143.436 64.344,143.038 56.488,143.251 43.41,138.832 40.654,137.506 36.763,136.172 29.642,130.711 22.118,121.947
	18.404,118.057 14.231,112.736 13.257,111.142 8.95,105.43 5.015,98.217 0.557,87.559 0.161,81.172 0,73.434 0.669,67.165
	1.818,58.435 6.983,41.949 15.613,29.618 19.625,24.172 23.553,20.46 31.375,14.622 36.299,11.859 44.175,7.02 48.751,4.305
	60.805,2.039 68.659,0.193 79.895,0 86.361,1.349 89.357,2.186 92.859,3.468 107.254,10.232 116.6,15.203 121.402,17.445
	132.619,30.376 135.371,35.868 136.82,38.351 143,52.979 144,61.058 "/>
</svg>
