---
title: "Glacier 87"
date: 2014-01-07 01:08:27
---
<svg xmlns="http://www.w3.org/2000/svg" version="1" x="0" y="0" width="310" height="310" viewBox="0 0 310 310" enable-background="new 0 0 310 310" xml:space="preserve"><polygon fill="#DCDCDC" points="135 172 127 163 120 150 119 148 119 144 118 142 120 138 121 135 122 135 124 131 126 129 127 129 129 128 130 126 138 120 138 119 140 118 143 117 151 113 154 112 156 111 157 109 162 108 169 108 170 109 175 113 181 114 185 115 190 116 192 122 191 129 191 129 190 139 190 142 186 145 186 163 187 175 187 176 185 179 183 180 181 182 179 189 172 195 170 197 166 200 165 201 163 202 159 202 153 199 148 195 141 190 140 190 140 189 138 184 "/></svg>
