---
title: "Glacier 110"
date: 2014-01-07 01:08:50
---
<svg xmlns="http://www.w3.org/2000/svg" version="1" x="0" y="0" width="310" height="310" viewBox="0 0 310 310" enable-background="new 0 0 310 310" xml:space="preserve"><polygon fill="#DCDCDC" points="168 154 167 156 166 157 164 160 164 161 163 162 160 161 158 161 158 160 157 160 156 160 153 158 151 156 150 156 150 156 149 155 148 155 144 153 143 153 142 152 142 151 142 151 142 150 142 149 149 149 152 148 155 148 160 149 161 149 165 149 166 150 167 151 167 151 168 154 168 154 168 154 168 154 168 154 "/></svg>
