---
title: "Glacier 172"
date: 2014-01-07 01:09:52
---
<svg xmlns="http://www.w3.org/2000/svg" version="1" x="0" y="0" width="310" height="310" viewBox="0 0 310 310" enable-background="new 0 0 310 310" xml:space="preserve"><polygon fill="#DCDCDC" points="161 165 161 164 155 164 153 163 153 163 149 163 147 163 147 162 145 162 143 161 143 161 142 160 142 159 141 159 141 159 141 155 140 153 140 152 141 152 142 150 142 149 143 146 146 145 147 145 150 145 150 145 151 145 151 144 155 147 156 147 158 148 160 148 160 148 161 148 163 148 164 148 165 149 166 152 166 152 166 152 167 153 167 153 168 153 169 153 169 153 170 154 170 156 169 157 168 158 168 159 168 160 169 161 169 161 169 163 169 164 168 165 167 165 163 166 161 165 161 165 161 165 161 165 161 165 161 165 161 165 "/></svg>
