---
title: "Glacier 49"
date: 2014-01-07 01:07:49
---
<svg xmlns="http://www.w3.org/2000/svg" version="1" x="0" y="0" width="310" height="310" viewBox="0 0 310 310" enable-background="new 0 0 310 310" xml:space="preserve"><polygon fill="#DCDCDC" points="115 149 117 147 117 144 117 143 117 121 119 118 126 108 129 105 129 103 131 103 144 104 149 107 152 107 155 111 158 112 162 118 162 121 165 124 166 127 172 136 177 152 177 156 179 158 179 163 181 166 195 176 195 187 194 190 193 193 188 202 177 207 172 206 158 201 128 192 117 182 116 173 115 149 115 149 115 149 115 149 115 149 115 149 "/></svg>
