---
title: "Blue Star 15"
date: 2014-10-30 10:30:15
---
<?xml version="1.0" encoding="utf-8"?>
<!-- Generator: Adobe Illustrator 15.1.0, SVG Export Plug-In . SVG Version: 6.00 Build 0)  -->
<!DOCTYPE svg PUBLIC "-//W3C//DTD SVG 1.1//EN" "http://www.w3.org/Graphics/SVG/1.1/DTD/svg11.dtd">
<svg version="1.1" id="Layer_1" xmlns="http://www.w3.org/2000/svg" xmlns:xlink="http://www.w3.org/1999/xlink" x="0px" y="0px"
	 width="72px" height="72px" viewBox="0 0 72 72" enable-background="new 0 0 72 72" xml:space="preserve">
<polygon fill="#00FFFF" points="40.624,22.646 38.791,24.769 36.407,22.287 34.84,19.824 33.99,18.581 28.038,11.688 26.401,11
	26.405,12.653 26.207,23.546 25.702,28.142 25.523,29.605 25.197,29.812 24.485,30.442 19.122,32.8 13.986,34.072 12.199,35.046
	11.415,35.593 11.219,35.693 11,35.964 11.734,36.397 12.37,36.503 13.807,37.211 22.071,39.831 23.279,40.011 21.804,41.92
	19.955,44.682 18.658,46.895 17.341,49.186 15.881,52.423 15.613,52.688 15.604,52.942 15.334,53.376 16.862,53.311 20.339,52.119
	29.235,47.758 30.525,46.858 31.485,45.952 31.531,46.979 31.774,48.721 32.172,51.781 33.73,58.358 34.496,59.547 35.207,61
	35.473,60.164 38.4,52.634 39.318,48.81 39.826,47.071 40.191,46.246 43.764,48.009 52.116,52.371 54.791,53.058 54.118,49.778
	53.501,48.87 50.529,43.683 46.642,39.095 45.407,37.67 47.526,37.028 56.043,36.942 58.066,36.817 61,35.638 54.717,32.763
	52.743,31.313 51.849,31.163 50.028,30.703 47.768,30.298 45.92,29.981 47.121,27.55 51.17,17.765 52.181,15.04 52.623,12.999
	51.836,13.243 49.496,14.155 48.062,15.551 "/>
</svg>
