---
title: "Bone 55"
date: 2014-12-08 12:08:55
---
<svg xmlns="http://www.w3.org/2000/svg" version="1" x="0" y="0" width="300" height="300" viewBox="0 0 300 300" enable-background="new 0 0 300 300" xml:space="preserve"><polygon fill="#FFFF78" points="111 204 139 201 161 195 172 188 182 177 192 159 194 145 193 137 184 118 171 107 159 101 149 96 144 97 137 101 135 104 136 111 139 113 141 113 150 111 162 114 174 122 184 137 185 155 181 168 167 184 156 188 135 192 118 192 111 193 108 195 106 200 108 203 "/></svg>
