---
title: "Green sphere"
date: 2014-11-17 11:17:00
---
<?xml version="1.0" encoding="utf-8"?>
<!-- Generator: Adobe Illustrator 15.1.0, SVG Export Plug-In . SVG Version: 6.00 Build 0)  -->
<!DOCTYPE svg PUBLIC "-//W3C//DTD SVG 1.1//EN" "http://www.w3.org/Graphics/SVG/1.1/DTD/svg11.dtd">
<svg version="1.1" id="Layer_1" xmlns="http://www.w3.org/2000/svg" xmlns:xlink="http://www.w3.org/1999/xlink" x="0px" y="0px"
	 width="108px" height="108px" viewBox="0 0 108 108" enable-background="new 0 0 108 108" xml:space="preserve">
<g>
	<g enable-background="new    ">
		<g enable-background="new    ">
			<defs>
				<path id="SVGID_1_" enable-background="new    " d="M27.361,100.951c7.616,4.327,16.733,6.214,26.536,4.896
					C44.094,107.165,34.977,105.278,27.361,100.951c-1.462-0.867-3.42-2.025-4.774-3.053c-1.143-0.866-2.665-2.023-3.76-2.949
					c-0.898-0.758-2.07-1.807-2.881-2.658c-0.962-1.01-2.249-2.354-3.157-3.412c-0.792-0.923-1.79-2.203-2.504-3.186
					c-2.888-3.975-4.474-7.303-4.541-7.441c-0.589-1.244-1.371-2.906-1.887-4.182c-0.475-1.172-1.023-2.767-1.413-3.969
					c-0.709-2.189-1.418-5.191-1.756-7.469c-0.385-2.598-0.7-6.1-0.687-8.726c0.008-1.442,0.097-3.364,0.22-4.801
					c0.112-1.298,0.383-3.015,0.563-4.305c0.195-1.398,0.646-3.232,1-4.599c0.318-1.23,0.822-2.849,1.241-4.048
					c0.463-1.327,1.168-3.066,1.74-4.351c0.507-1.137,1.295-2.599,1.852-3.711c0.64-1.277,1.684-2.878,2.471-4.07
					c0.671-1.017,1.666-2.303,2.383-3.288c0.881-1.209,2.231-2.687,3.253-3.779c0.805-0.861,1.919-1.975,2.799-2.758
					c1.237-1.1,2.944-2.501,4.252-3.515c0.869-0.674,2.087-1.493,3.011-2.088C25.709,8,26.978,7.271,27.927,6.72
					c1.605-0.934,3.85-2.006,5.581-2.679c1.127-0.439,2.636-1.012,3.787-1.385c1.173-0.378,2.757-0.826,3.954-1.118
					c1.123-0.274,2.632-0.597,3.773-0.783c0.536-0.087,1.25-0.205,1.788-0.273c0.825-0.104,1.929-0.22,2.757-0.299
					c0.062-0.005,1.541-0.144,3.67-0.176c0.352-0.005,0.82-0.01,1.171-0.003c0,0,0,0,0.001,0c0.702,0.021,1.639,0.038,2.342,0.069
					c0.773,0.035,2.564,0.171,3.776,0.326c1.948,0.25,2.326,0.323,4.43,0.727c1.542,0.296,4.571,1.093,6.455,1.763
					c1.115,0.397,2.593,0.958,3.686,1.412c0.843,0.351,1.95,0.858,2.765,1.271c1.178,0.596,2.725,1.435,3.859,2.106
					c0.948,0.559,2.188,1.347,3.08,1.991c1.824,1.318,3.895,2.812,6.496,5.306c2.85,2.731,4.809,5.187,5.723,6.407
					c1.39,1.854,2.916,4.02,4.67,7.292c1.183,2.208,2.443,5.313,3.336,7.653c0.498,1.303,0.984,3.102,1.328,4.453
					c0.318,1.247,0.617,2.938,0.879,4.197c0.291,1.39,0.491,3.281,0.58,4.698c0.102,1.611,0.246,3.768,0.158,5.381
					c-0.07,1.316-0.125,3.076-0.262,4.388c-0.148,1.421-0.371,3.319-0.686,4.713c-0.281,1.251-0.622,2.928-0.967,4.163
					c-0.383,1.368-0.961,3.176-1.456,4.508c-0.438,1.174-1.075,2.721-1.61,3.855c-0.617,1.309-1.48,3.04-2.226,4.281
					c-1.255,2.094-3.122,4.768-4.591,6.716c-0.904,1.2-2.3,2.645-3.305,3.761c-0.787,0.873-1.934,1.949-2.82,2.722
					c-1.26,1.097-3.01,2.476-4.328,3.501c-1.025,0.797-2.482,1.748-3.602,2.406c-1.609,0.945-3.807,2.119-5.484,2.934
					c-1.458,0.707-4.792,2.076-8.004,2.951c-2.379,0.647-3.453,0.877-5.682,1.279c-1.016,0.184-3.039,0.455-4.537,0.57
					c-2.406,0.186-6.161,0.365-10.956-0.217c-1.566-0.189-2.878-0.428-2.891-0.431c-1.334-0.244-1.334-0.244-3.477-0.734
					c-1.652-0.378-3.66-1.04-4.518-1.324c-1.124-0.371-2.606-0.925-3.686-1.411C31.201,102.928,28.995,101.818,27.361,100.951z"/>
			</defs>
			<clipPath id="SVGID_2_">
				<use xlink:href="#SVGID_1_"  overflow="visible"/>
			</clipPath>
			<g clip-path="url(#SVGID_2_)" enable-background="new    ">
				<path fill="#00A800" d="M27.361,100.951c3.896,2.066,7.925,4.204,15.521,5.881c4.79,1.057,10.596,1.42,15.532,0.973
					c11.48-1.041,21.365-5.102,30.218-12.412c17.028-14.062,23.671-37.645,16.527-58.683c-4.944-14.562-14.553-22.676-17.38-24.816
					C83.799,8.881,73.226,0.878,56.757,0.073C40.069-0.743,28.862,6.097,25.18,8.344c-3.181,1.941-14.053,9.37-20.414,23.459
					C-3.22,49.492,0.97,65.59,2.444,70.102c3.025,9.258,6.619,14.165,10.345,18.777C16.315,93.245,21.218,97.307,27.361,100.951
					c7.616,4.327,16.733,6.214,26.536,4.896C44.094,107.165,34.977,105.278,27.361,100.951"/>
				<path fill="#00A800" d="M53.897,105.847c-49.066,1.237-65.486-52.092-41.821-74.639c24.962-23.783,72.69,3.488,70.928,40.528
					C81.828,96.441,64.344,102.328,53.897,105.847c-9.803,1.318-18.92-0.568-26.536-4.896c0.828,0.439,1.932,1.025,2.76,1.465
					c1.245,0.572,2.907,1.328,4.174,1.848l2.277,0.835c0.802,0.255,1.867,0.603,2.675,0.837l1.842,0.487
					c0.581,0.133,1.354,0.317,1.938,0.438l1.539,0.296c0.464,0.075,1.082,0.183,1.547,0.251l1.344,0.18
					c0.4,0.045,0.932,0.107,1.332,0.146l1.228,0.104c0.365,0.023,0.851,0.059,1.217,0.076l1.172,0.048
					c0.351,0.007,0.819,0.022,1.17,0.022l1.17-0.004c0.354-0.009,0.828-0.029,1.184-0.029l1.227-0.059
					c0.378-0.025,0.883-0.059,1.261-0.089l1.354-0.129c0.426-0.052,0.996-0.114,1.422-0.172l1.756-0.269
					c4.007-0.754,6.535-1.372,10.926-3.044l2.76-1.187c3.548-1.769,3.838-1.912,6.072-3.299l3.014-2.041
					c1.316-1.028,3.066-2.407,4.328-3.501l2.82-2.722c1.002-1.119,2.355-2.598,3.305-3.761l2.414-3.259
					c0.762-1.21,1.807-2.809,2.516-4.051l1.887-3.688c0.543-1.299,1.301-3.014,1.786-4.334l1.28-4.029
					c0.319-1.375,0.787-3.198,1.046-4.585l0.606-4.291c0.096-1.606,0.256-3.749,0.273-5.359l-0.17-4.409
					c-0.169-1.411-0.349-3.297-0.58-4.698l-0.879-4.197c-0.393-1.337-0.877-3.134-1.328-4.453l-1.525-3.907
					c-0.605-1.251-1.376-2.937-2.034-4.161l-2.101-3.536c-0.81-1.154-1.861-2.713-2.721-3.831l-2.576-3.068
					c-1.024-1.054-2.375-2.476-3.445-3.482l-2.846-2.448c-3.768-2.816-4.162-3.11-7.154-4.858l-2.762-1.464
					C76.619,5,74.957,4.243,73.69,3.724l-2.277-0.835c-0.802-0.254-1.867-0.603-2.675-0.836l-1.843-0.488
					c-0.581-0.132-1.354-0.316-1.938-0.438L63.42,0.83c-0.465-0.075-1.082-0.182-1.549-0.25l-1.343-0.181
					c-0.399-0.043-0.933-0.107-1.332-0.146l-1.229-0.104c-0.364-0.023-0.851-0.058-1.216-0.076l-1.173-0.047
					c-0.352-0.007-0.819-0.01-1.17-0.022l-1.171,0.003c-0.354,0.009-0.83-0.006-1.183,0.029l-1.227,0.058
					c-0.378,0.027-0.883,0.059-1.261,0.089l-1.354,0.129c-0.427,0.051-0.996,0.115-1.422,0.172l-1.769,0.271
					c-5.131,0.97-7.597,1.763-11.514,3.286l-2.794,1.243c-3.617,1.864-3.833,1.976-5.926,3.311l-3.011,2.088
					c-1.293,1.033-3.013,2.417-4.252,3.515l-2.799,2.758c-0.987,1.125-2.319,2.61-3.253,3.779l-2.383,3.288
					c-0.749,1.216-1.777,2.822-2.471,4.07l-1.852,3.711c-0.528,1.303-1.27,3.026-1.74,4.351l-1.241,4.048
					c-0.306,1.378-0.755,3.208-1,4.599l-0.563,4.305c-0.071,1.44-0.212,3.359-0.22,4.801l0.17,4.409
					c0.277,2.313,0.724,5.391,1.167,7.679l1.105,4.107c0.466,1.31,1.048,3.07,1.57,4.358l1.729,3.792
					c0.674,1.219,1.541,2.863,2.267,4.052l2.274,3.39c0.88,1.119,2.029,2.633,2.958,3.713l2.704,2.885
					c1.106,1.021,2.569,2.396,3.721,3.365l2.92,2.242c1.415,0.942,3.312,2.186,4.774,3.053
					C34.977,105.278,44.094,107.165,53.897,105.847"/>
				<path fill="#00A300" d="M35.787,104.539C-6.168,89.062-9.716,38.217,21.172,23.592C53.534,8.271,95.174,47.746,83.055,82.257
					C73.66,109.008,48.028,108.529,35.787,104.539c-2.966-0.881-5.787-2.088-8.426-3.588c0.828,0.439,1.932,1.025,2.76,1.465
					c1.245,0.572,2.907,1.328,4.174,1.848l2.277,0.835c0.802,0.255,1.867,0.603,2.675,0.837l1.842,0.487
					c0.581,0.133,1.354,0.317,1.938,0.438l1.539,0.296c0.464,0.075,1.082,0.183,1.547,0.251l1.344,0.18
					c0.4,0.045,0.932,0.107,1.332,0.146l1.228,0.104c0.365,0.023,0.851,0.059,1.217,0.076l1.172,0.048
					c0.351,0.007,0.819,0.022,1.17,0.022l1.17-0.004c0.354-0.009,0.828-0.029,1.184-0.029l1.227-0.059
					c0.378-0.025,0.883-0.059,1.261-0.089l1.354-0.129c0.426-0.052,0.996-0.114,1.422-0.172l1.756-0.269
					c4.007-0.754,6.535-1.372,10.926-3.044l2.76-1.187c3.548-1.769,3.838-1.912,6.072-3.299l3.014-2.041
					c1.316-1.028,3.066-2.407,4.328-3.501l2.82-2.722c1.002-1.119,2.355-2.598,3.305-3.761l2.414-3.259
					c0.762-1.21,1.807-2.809,2.516-4.051l1.887-3.688c0.543-1.299,1.301-3.014,1.786-4.334l1.28-4.029
					c0.319-1.375,0.787-3.198,1.046-4.585l0.606-4.291c0.096-1.606,0.256-3.749,0.273-5.359l-0.17-4.409
					c-0.169-1.411-0.349-3.297-0.58-4.698l-0.879-4.197c-0.393-1.337-0.877-3.134-1.328-4.453l-1.525-3.907
					c-0.605-1.251-1.376-2.937-2.034-4.161l-2.101-3.536c-0.81-1.154-1.861-2.713-2.721-3.831l-2.576-3.068
					c-1.024-1.054-2.375-2.476-3.445-3.482l-2.846-2.448c-3.768-2.816-4.162-3.11-7.154-4.858l-2.762-1.464
					C76.619,5,74.957,4.243,73.69,3.724l-2.277-0.835c-0.802-0.254-1.867-0.603-2.675-0.836l-1.843-0.488
					c-0.581-0.132-1.354-0.316-1.938-0.438L63.42,0.83c-0.465-0.075-1.082-0.182-1.549-0.25l-1.343-0.181
					c-0.399-0.043-0.933-0.107-1.332-0.146l-1.229-0.104c-0.364-0.023-0.851-0.058-1.216-0.076l-1.173-0.047
					c-0.352-0.007-0.819-0.01-1.17-0.022l-1.171,0.003c-0.354,0.009-0.83-0.006-1.183,0.029l-1.227,0.058
					c-0.378,0.027-0.883,0.059-1.261,0.089l-1.354,0.129c-0.427,0.051-0.996,0.115-1.422,0.172l-1.769,0.271
					c-5.131,0.97-7.597,1.763-11.514,3.286l-2.794,1.243c-3.617,1.864-3.833,1.976-5.926,3.311l-3.011,2.088
					c-1.293,1.033-3.013,2.417-4.252,3.515l-2.799,2.758c-0.987,1.125-2.319,2.61-3.253,3.779l-2.383,3.288
					c-0.749,1.216-1.777,2.822-2.471,4.07l-1.852,3.711c-0.528,1.303-1.27,3.026-1.74,4.351l-1.241,4.048
					c-0.306,1.378-0.755,3.208-1,4.599l-0.563,4.305c-0.071,1.44-0.212,3.359-0.22,4.801l0.17,4.409
					c0.277,2.313,0.724,5.391,1.167,7.679l1.105,4.107c0.466,1.31,1.048,3.07,1.57,4.358l1.729,3.792
					c0.674,1.219,1.541,2.863,2.267,4.052l2.274,3.39c0.88,1.119,2.029,2.633,2.958,3.713l2.704,2.885
					c1.106,1.021,2.569,2.396,3.721,3.365l2.92,2.242c1.415,0.942,3.312,2.186,4.774,3.053
					C30,102.451,32.821,103.658,35.787,104.539"/>
				<g>
					<path fill="#009E00" d="M2.24,69.402C-8.26,31.92,26.204,5.881,60.774,25.177C95.95,44.812,95.871,96.029,60.65,105.77
						c-7.197,1.99-18.65,2.859-32.347-4.3c-0.317-0.169-0.631-0.341-0.942-0.519c0.828,0.439,1.932,1.025,2.76,1.465
						c1.245,0.572,2.907,1.328,4.174,1.848l2.277,0.835c0.802,0.255,1.867,0.603,2.675,0.837l1.842,0.487
						c0.581,0.133,1.354,0.317,1.938,0.438l1.539,0.296c0.464,0.075,1.082,0.183,1.547,0.251l1.344,0.18
						c0.4,0.045,0.932,0.107,1.332,0.146l1.228,0.104c0.365,0.023,0.851,0.059,1.217,0.076l1.172,0.048
						c0.351,0.007,0.819,0.022,1.17,0.022l1.17-0.004c0.354-0.009,0.828-0.029,1.184-0.029l1.227-0.059
						c0.378-0.025,0.883-0.059,1.261-0.089l1.354-0.129c0.426-0.052,0.996-0.114,1.422-0.172l1.756-0.269
						c4.007-0.754,6.535-1.372,10.926-3.044l2.76-1.187c3.548-1.769,3.838-1.912,6.072-3.299l3.014-2.041
						c1.316-1.028,3.066-2.407,4.328-3.501l2.82-2.722c1.002-1.119,2.355-2.598,3.305-3.761l2.414-3.259
						c0.762-1.21,1.807-2.809,2.516-4.051l1.887-3.688c0.543-1.299,1.301-3.014,1.786-4.334l1.28-4.029
						c0.319-1.375,0.787-3.198,1.046-4.585l0.606-4.291c0.096-1.606,0.256-3.749,0.273-5.359l-0.17-4.409
						c-0.169-1.411-0.349-3.297-0.58-4.698l-0.879-4.197c-0.393-1.337-0.877-3.134-1.328-4.453l-1.525-3.907
						c-0.605-1.251-1.376-2.937-2.034-4.161l-2.101-3.536c-0.81-1.154-1.861-2.713-2.721-3.831l-2.576-3.068
						c-1.024-1.054-2.375-2.476-3.445-3.482l-2.846-2.448c-3.768-2.816-4.162-3.11-7.154-4.858l-2.762-1.464
						C76.619,5,74.957,4.243,73.69,3.724l-2.277-0.835c-0.802-0.254-1.867-0.603-2.675-0.836l-1.843-0.488
						c-0.581-0.132-1.354-0.316-1.938-0.438L63.42,0.83c-0.465-0.075-1.082-0.182-1.549-0.25l-1.343-0.181
						c-0.399-0.043-0.933-0.107-1.332-0.146l-1.229-0.104c-0.364-0.023-0.851-0.058-1.216-0.076l-1.173-0.047
						c-0.352-0.007-0.819-0.01-1.17-0.022l-1.171,0.003c-0.354,0.009-0.83-0.006-1.183,0.029l-1.227,0.058
						c-0.378,0.027-0.883,0.059-1.261,0.089l-1.354,0.129c-0.427,0.051-0.996,0.115-1.422,0.172l-1.769,0.271
						c-5.131,0.97-7.597,1.763-11.514,3.286l-2.794,1.243c-3.617,1.864-3.833,1.976-5.926,3.311l-3.011,2.088
						c-1.293,1.033-3.013,2.417-4.252,3.515l-2.799,2.758c-0.987,1.125-2.319,2.61-3.253,3.779l-2.383,3.288
						c-0.749,1.216-1.777,2.822-2.471,4.07l-1.852,3.711c-0.528,1.303-1.27,3.026-1.74,4.351l-1.241,4.048
						c-0.306,1.378-0.755,3.208-1,4.599l-0.563,4.305c-0.071,1.44-0.212,3.359-0.22,4.801l0.17,4.409
						c0.277,2.313,0.724,5.391,1.167,7.679l1.105,4.107l1.174,3.363l-1.318-3.858C2.284,69.545,2.257,69.464,2.24,69.402"/>
					<path fill="#009E00" d="M28.303,101.47c-0.977-0.527-2.235-1.308-3.193-1.87c0.675,0.405,1.576,0.945,2.251,1.352
						C27.672,101.129,27.986,101.301,28.303,101.47"/>
				</g>
				<path fill="#009900" d="M0.657,62.43C-4.446,19.387,39.49,4.03,69.367,28.4c31.991,26.093,23.078,75.567-14.232,79.01
					c-9.54,0.88-16.971-1.746-19.413-2.609l2.253,0.756l1.273,0.379l1.842,0.487c0.581,0.133,1.354,0.317,1.938,0.438l1.539,0.296
					c0.464,0.075,1.082,0.183,1.547,0.251l1.344,0.18c0.4,0.045,0.932,0.107,1.332,0.146l1.228,0.104
					c0.365,0.023,0.851,0.059,1.217,0.076l1.172,0.048c0.351,0.007,0.819,0.022,1.17,0.022l1.17-0.004
					c0.354-0.009,0.828-0.029,1.184-0.029l1.227-0.059c0.378-0.025,0.883-0.059,1.261-0.089l1.354-0.129
					c0.426-0.052,0.996-0.114,1.422-0.172l1.756-0.269c4.007-0.754,6.535-1.372,10.926-3.044l2.76-1.187
					c3.548-1.769,3.838-1.912,6.072-3.299l3.014-2.041c1.316-1.028,3.066-2.407,4.328-3.501l2.82-2.722
					c1.002-1.119,2.355-2.598,3.305-3.761l2.414-3.259c0.762-1.21,1.807-2.809,2.516-4.051l1.887-3.688
					c0.543-1.299,1.301-3.014,1.786-4.334l1.28-4.029c0.319-1.375,0.787-3.198,1.046-4.585l0.606-4.291
					c0.096-1.606,0.256-3.749,0.273-5.359l-0.17-4.409c-0.169-1.411-0.349-3.297-0.58-4.698l-0.879-4.197
					c-0.393-1.337-0.877-3.134-1.328-4.453l-1.525-3.907c-0.605-1.251-1.376-2.937-2.034-4.161l-2.101-3.536
					c-0.81-1.154-1.861-2.713-2.721-3.831l-2.576-3.068c-1.024-1.054-2.375-2.476-3.445-3.482l-2.846-2.448
					c-3.768-2.816-4.162-3.11-7.154-4.858l-2.762-1.464C76.619,5,74.957,4.243,73.69,3.724l-2.277-0.835
					c-0.802-0.254-1.867-0.603-2.675-0.836l-1.843-0.488c-0.581-0.132-1.354-0.316-1.938-0.438L63.42,0.83
					c-0.465-0.075-1.082-0.182-1.549-0.25l-1.343-0.181c-0.399-0.043-0.933-0.107-1.332-0.146l-1.229-0.104
					c-0.364-0.023-0.851-0.058-1.216-0.076l-1.173-0.047c-0.352-0.007-0.819-0.01-1.17-0.022l-1.171,0.003
					c-0.354,0.009-0.83-0.006-1.183,0.029l-1.227,0.058c-0.378,0.027-0.883,0.059-1.261,0.089l-1.354,0.129
					c-0.427,0.051-0.996,0.115-1.422,0.172l-1.769,0.271c-5.131,0.97-7.597,1.763-11.514,3.286l-2.794,1.243
					c-3.617,1.864-3.833,1.976-5.926,3.311l-3.011,2.088c-1.293,1.033-3.013,2.417-4.252,3.515l-2.799,2.758
					c-0.987,1.125-2.319,2.61-3.253,3.779l-2.383,3.288c-0.749,1.216-1.777,2.822-2.471,4.07l-1.852,3.711
					c-0.528,1.303-1.27,3.026-1.74,4.351l-1.241,4.048c-0.306,1.378-0.755,3.208-1,4.599l-0.563,4.305
					c-0.071,1.44-0.212,3.359-0.22,4.801l0.17,4.409c0.177,1.479,0.374,3.458,0.618,4.929L0.657,62.43"/>
				<path fill="#009400" d="M0.002,53.863C2.166,7.921,51.93,5.255,76.153,31.53c28.925,31.375,13.562,77.727-25.289,76.302
					c-0.788-0.029-3.185-0.117-6.651-0.738l1.507,0.254l0.394,0.061l1.344,0.18c0.4,0.045,0.932,0.107,1.332,0.146l1.228,0.104
					c0.365,0.023,0.851,0.059,1.217,0.076l1.172,0.048c0.351,0.007,0.819,0.022,1.17,0.022l1.17-0.004
					c0.354-0.009,0.828-0.029,1.184-0.029l1.227-0.059c0.378-0.025,0.883-0.059,1.261-0.089l1.354-0.129
					c0.426-0.052,0.996-0.114,1.422-0.172l1.756-0.269c4.007-0.754,6.535-1.372,10.926-3.044l2.76-1.187
					c3.548-1.769,3.838-1.912,6.072-3.299l3.014-2.041c1.316-1.028,3.066-2.407,4.328-3.501l2.82-2.722
					c1.002-1.119,2.355-2.598,3.305-3.761l2.414-3.259c0.762-1.21,1.807-2.809,2.516-4.051l1.887-3.688
					c0.543-1.299,1.301-3.014,1.786-4.334l1.28-4.029c0.319-1.375,0.787-3.198,1.046-4.585l0.606-4.291
					c0.096-1.606,0.256-3.749,0.273-5.359l-0.17-4.409c-0.169-1.411-0.349-3.297-0.58-4.698l-0.879-4.197
					c-0.393-1.337-0.877-3.134-1.328-4.453l-1.525-3.907c-0.605-1.251-1.376-2.937-2.034-4.161l-2.101-3.536
					c-0.81-1.154-1.861-2.713-2.721-3.831l-2.576-3.068c-1.024-1.054-2.375-2.476-3.445-3.482l-2.846-2.448
					c-3.768-2.816-4.162-3.11-7.154-4.858l-2.762-1.464C76.619,5,74.957,4.243,73.69,3.724l-2.277-0.835
					c-0.802-0.254-1.867-0.603-2.675-0.836l-1.843-0.488c-0.581-0.132-1.354-0.316-1.938-0.438L63.42,0.83
					c-0.465-0.075-1.082-0.182-1.549-0.25l-1.343-0.181c-0.399-0.043-0.933-0.107-1.332-0.146l-1.229-0.104
					c-0.364-0.023-0.851-0.058-1.216-0.076l-1.173-0.047c-0.352-0.007-0.819-0.01-1.17-0.022l-1.171,0.003
					c-0.354,0.009-0.83-0.006-1.183,0.029l-1.227,0.058c-0.378,0.027-0.883,0.059-1.261,0.089l-1.354,0.129
					c-0.427,0.051-0.996,0.115-1.422,0.172l-1.769,0.271c-5.131,0.97-7.597,1.763-11.514,3.286l-2.794,1.243
					c-3.617,1.864-3.833,1.976-5.926,3.311l-3.011,2.088c-1.293,1.033-3.013,2.417-4.252,3.515l-2.799,2.758
					c-0.987,1.125-2.319,2.61-3.253,3.779l-2.383,3.288c-0.749,1.216-1.777,2.822-2.471,4.07l-1.852,3.711
					c-0.528,1.303-1.27,3.026-1.74,4.351l-1.241,4.048c-0.306,1.378-0.755,3.208-1,4.599l-0.563,4.305
					c-0.071,1.44-0.212,3.359-0.22,4.801L0.002,53.863"/>
				<path fill="#008F00" d="M1.201,42.764C10.42,3.517,62.649,1.946,85.876,40.218c19.179,31.602,1.134,68.325-33.29,67.749
					c0.649,0.012,1.513,0.016,2.162,0.014c0.354-0.009,0.828-0.029,1.184-0.029l1.227-0.059c0.378-0.025,0.883-0.059,1.261-0.089
					l1.354-0.129c0.426-0.052,0.996-0.114,1.422-0.172l1.756-0.269c4.007-0.754,6.535-1.372,10.926-3.044l2.76-1.187
					c3.548-1.769,3.838-1.912,6.072-3.299l3.014-2.041c1.316-1.028,3.066-2.407,4.328-3.501l2.82-2.722
					c1.002-1.119,2.355-2.598,3.305-3.761l2.414-3.259c0.762-1.21,1.807-2.809,2.516-4.051l1.887-3.688
					c0.543-1.299,1.301-3.014,1.786-4.334l1.28-4.029c0.319-1.375,0.787-3.198,1.046-4.585l0.606-4.291
					c0.096-1.606,0.256-3.749,0.273-5.359l-0.17-4.409c-0.169-1.411-0.349-3.297-0.58-4.698l-0.879-4.197
					c-0.393-1.337-0.877-3.134-1.328-4.453l-1.525-3.907c-0.605-1.251-1.376-2.937-2.034-4.161l-2.101-3.536
					c-0.81-1.154-1.861-2.713-2.721-3.831l-2.576-3.068c-1.024-1.054-2.375-2.476-3.445-3.482l-2.846-2.448
					c-3.768-2.816-4.162-3.11-7.154-4.858l-2.762-1.464C76.619,5,74.957,4.243,73.69,3.724l-2.277-0.835
					c-0.802-0.254-1.867-0.603-2.675-0.836l-1.843-0.488c-0.581-0.132-1.354-0.316-1.938-0.438L63.42,0.83
					c-0.465-0.075-1.082-0.182-1.549-0.25l-1.343-0.181c-0.399-0.043-0.933-0.107-1.332-0.146l-1.229-0.104
					c-0.364-0.023-0.851-0.058-1.216-0.076l-1.173-0.047c-0.352-0.007-0.819-0.01-1.17-0.022l-1.171,0.003
					c-0.354,0.009-0.83-0.006-1.183,0.029l-1.227,0.058c-0.378,0.027-0.883,0.059-1.261,0.089l-1.354,0.129
					c-0.427,0.051-0.996,0.115-1.422,0.172l-1.769,0.271c-5.131,0.97-7.597,1.763-11.514,3.286l-2.794,1.243
					c-3.617,1.864-3.833,1.976-5.926,3.311l-3.011,2.088c-1.293,1.033-3.013,2.417-4.252,3.515l-2.799,2.758
					c-0.987,1.125-2.319,2.61-3.253,3.779l-2.383,3.288c-0.749,1.216-1.777,2.822-2.471,4.07l-1.852,3.711
					c-0.528,1.303-1.27,3.026-1.74,4.351l-1.241,4.048c-0.306,1.378-0.755,3.208-1,4.599c-0.066,0.416-0.154,0.97-0.22,1.386
					C0.756,45.16,0.986,43.786,1.201,42.764"/>
				<path fill="#008A00" d="M2.649,37.27C18.491-4.639,72.373,4.988,90.635,43.044c13.824,28.81-0.333,60.114-29.131,64.417
					l1.772-0.282c2.691-0.524,5.743-1.118,10.601-2.988l2.76-1.187c3.548-1.769,3.838-1.912,6.072-3.299l3.014-2.041
					c1.316-1.028,3.066-2.407,4.328-3.501l2.82-2.722c1.002-1.119,2.355-2.598,3.305-3.761l2.414-3.259
					c0.762-1.21,1.807-2.809,2.516-4.051l1.887-3.688c0.543-1.299,1.301-3.014,1.786-4.334l1.28-4.029
					c0.319-1.375,0.787-3.198,1.046-4.585l0.606-4.291c0.096-1.606,0.256-3.749,0.273-5.359l-0.17-4.409
					c-0.169-1.411-0.349-3.297-0.58-4.698l-0.879-4.197c-0.393-1.337-0.877-3.134-1.328-4.453l-1.525-3.907
					c-0.605-1.251-1.376-2.937-2.034-4.161l-2.101-3.536c-0.81-1.154-1.861-2.713-2.721-3.831l-2.576-3.068
					c-1.024-1.054-2.375-2.476-3.445-3.482l-2.846-2.448c-3.768-2.816-4.162-3.11-7.154-4.858l-2.762-1.464
					C76.619,5,74.957,4.243,73.69,3.724l-2.277-0.835c-0.802-0.254-1.867-0.603-2.675-0.836l-1.843-0.488
					c-0.581-0.132-1.354-0.316-1.938-0.438L63.42,0.83c-0.465-0.075-1.082-0.182-1.549-0.25l-1.343-0.181
					c-0.399-0.043-0.933-0.107-1.332-0.146l-1.229-0.104c-0.364-0.023-0.851-0.058-1.216-0.076l-1.173-0.047
					c-0.352-0.007-0.819-0.01-1.17-0.022l-1.171,0.003c-0.354,0.009-0.83-0.006-1.183,0.029l-1.227,0.058
					c-0.378,0.027-0.883,0.059-1.261,0.089l-1.354,0.129c-0.427,0.051-0.996,0.115-1.422,0.172l-1.769,0.271
					c-5.131,0.97-7.597,1.763-11.514,3.286l-2.794,1.243c-3.617,1.864-3.833,1.976-5.926,3.311l-3.011,2.088
					c-1.293,1.033-3.013,2.417-4.252,3.515l-2.799,2.758c-0.987,1.125-2.319,2.61-3.253,3.779l-2.383,3.288
					c-0.749,1.216-1.777,2.822-2.471,4.07l-1.852,3.711c-0.528,1.303-1.27,3.026-1.74,4.351c-0.168,0.505-0.391,1.178-0.559,1.683
					C2.521,37.667,2.59,37.439,2.649,37.27"/>
				<path fill="#008500" d="M8.694,24.733C34.245-11.786,90.463,13.36,97.715,54.24c6.959,39.22-24.117,50.182-27.684,51.302
					l1.97-0.65l1.876-0.701l2.76-1.187c3.548-1.769,3.838-1.912,6.072-3.299l3.014-2.041c1.316-1.028,3.066-2.407,4.328-3.501
					l2.82-2.722c1.002-1.119,2.355-2.598,3.305-3.761l2.414-3.259c0.762-1.21,1.807-2.809,2.516-4.051l1.887-3.688
					c0.543-1.299,1.301-3.014,1.786-4.334l1.28-4.029c0.319-1.375,0.787-3.198,1.046-4.585l0.606-4.291
					c0.096-1.606,0.256-3.749,0.273-5.359l-0.17-4.409c-0.169-1.411-0.349-3.297-0.58-4.698l-0.879-4.197
					c-0.393-1.337-0.877-3.134-1.328-4.453l-1.525-3.907c-0.605-1.251-1.376-2.937-2.034-4.161l-2.101-3.536
					c-0.81-1.154-1.861-2.713-2.721-3.831l-2.576-3.068c-1.024-1.054-2.375-2.476-3.445-3.482l-2.846-2.448
					c-3.768-2.816-4.162-3.11-7.154-4.858l-2.762-1.464C76.619,5,74.957,4.243,73.69,3.724l-2.277-0.835
					c-0.802-0.254-1.867-0.603-2.675-0.836l-1.843-0.488c-0.581-0.132-1.354-0.316-1.938-0.438L63.42,0.83
					c-0.465-0.075-1.082-0.182-1.549-0.25l-1.343-0.181c-0.399-0.043-0.933-0.107-1.332-0.146l-1.229-0.104
					c-0.364-0.023-0.851-0.058-1.216-0.076l-1.173-0.047c-0.352-0.007-0.819-0.01-1.17-0.022l-1.171,0.003
					c-0.354,0.009-0.83-0.006-1.183,0.029l-1.227,0.058c-0.378,0.027-0.883,0.059-1.261,0.089l-1.354,0.129
					c-0.427,0.051-0.996,0.115-1.422,0.172l-1.769,0.271c-5.131,0.97-7.597,1.763-11.514,3.286l-2.794,1.243
					c-3.617,1.864-3.833,1.976-5.926,3.311l-3.011,2.088c-1.293,1.033-3.013,2.417-4.252,3.515l-2.799,2.758
					c-0.987,1.125-2.319,2.61-3.253,3.779l-2.383,3.288c-0.749,1.216-1.777,2.822-2.471,4.07l1.478-2.46
					C8.275,25.362,8.508,24.999,8.694,24.733"/>
				<path fill="#00AD00" d="M39.072,104.622c33.814,6.657,54.313-29.536,33.745-59.578C51.604,14.062,7.24,19.106,1.966,53.1
					C-1.519,75.557,16.167,100.113,39.072,104.622"/>
				<path fill="#00B300" d="M34.15,102.787c35.209,10.881,55.429-24.2,39.522-52.572C54.321,15.699,11.119,20.051,3.532,49.28
					C-2.797,73.672,14.253,96.64,34.15,102.787"/>
				<path fill="#00B800" d="M27.385,99.402c30.35,15.711,56.505-10.934,48.361-38.852C64.916,23.424,20.604,17.818,6.693,44.04
					C-3.206,62.702,6.463,88.572,27.385,99.402"/>
				<path fill="#00BD00" d="M25.278,97.649c28.4,16.054,56.966-5.937,48.515-37.349C65.813,30.637,20.98,16.336,6.659,46.671
					C-2.359,65.772,9.005,88.451,25.278,97.649"/>
				<path fill="#00C200" d="M22.079,94.873c25.936,17.629,54.984,0.684,50.955-29.725c-4.108-30.997-45.06-45.571-62.598-22.277
					C-2.13,59.562,6.219,84.092,22.079,94.873"/>
				<path fill="#00C700" d="M21.673,93.771c26.718,19.147,54.222-1.667,49.693-28.814C65.98,32.672,24.071,23.994,10.393,45.379
					C-0.526,62.451,7.747,83.791,21.673,93.771"/>
				<path fill="#00CC00" d="M22.103,93.17c27.552,19.457,52.084-4.715,47.571-28.389c-6.096-31.977-45.579-38.776-59.218-16.761
					C1.743,62.085,6.859,81.917,22.103,93.17"/>
				<path fill="#00D100" d="M18.916,89.439c23.974,21.719,50.049,3.035,49.552-19.959C67.785,37.916,30.49,29.099,15.094,44.759
					C2.273,57.8,6.72,78.391,18.916,89.439"/>
				<path fill="#00D600" d="M19.625,88.826c22.697,20.52,50.392,1.641,47.221-24.294C63.77,39.379,27.99,28.958,13.673,49.047
					C3.989,62.635,9.512,79.684,19.625,88.826"/>
				<path fill="#00DB00" d="M20.532,88.189c23.082,20.198,48.21-1.742,45.174-23.742C62.443,40.8,29.494,31.155,15.341,49.703
					C4.628,63.742,11.927,80.66,20.532,88.189"/>
				<path fill="#00E000" d="M18.176,84.014c18.71,21.875,45.25,5.963,46.533-14.841c1.482-24.016-29.446-35.634-44.506-21.851
					C5.38,60.889,12.395,77.256,18.176,84.014"/>
				<path fill="#00E600" d="M19.423,83.367c17.477,19.863,42.726,4.878,44.146-14.269c1.516-20.462-24.562-36.424-42.632-20.233
					C8.646,59.879,12.652,75.67,19.423,83.367"/>
				<path fill="#00EB00" d="M20.931,82.699c16.166,18.002,39.966,3.922,41.489-13.668c1.588-18.329-22.32-35.827-41.4-18.076
					C13.65,57.811,11.802,72.534,20.931,82.699"/>
				<path fill="#00F000" d="M22.674,82.041c14.562,14.891,36.806,4.58,38.616-13.066c2.062-20.095-21.681-31.98-37.361-18.703
					C13.352,59.229,14.741,73.93,22.674,82.041"/>
				<path fill="#00F500" d="M21.428,77.5c7.686,11.555,20.216,9.636,20.337,9.609c4.194-0.92,16.955-3.716,18.731-18.17
					c2.131-17.331-18.14-29.391-33.368-19.853C18.04,54.779,15.323,68.322,21.428,77.5"/>
				<path fill="#00FA00" d="M23.237,76.958c10.382,15.073,33.896,9.882,36.462-8.05c1.168-8.154-2.989-15.581-11.405-20.376
					c-2.283-1.3-10.548-5.009-21.057,1.88C20.963,54.525,15.928,66.346,23.237,76.958"/>
				<path fill="#00FF00" d="M24.739,76.556c10.452,13.222,31.524,8.487,34.163-7.676c0.591-3.618,0.741-12.755-10.591-19.438
					c-3.412-2.012-10.533-4.498-19.886,1.464C20.235,56.127,18.443,68.592,24.739,76.556"/>
				<path fill="#1FFF1F" d="M26.319,76.172c10.79,12.831,29.265,6.426,31.781-7.316c2.626-14.335-14.748-25.953-27.338-18.282
					C17.661,58.557,22.92,72.131,26.319,76.172"/>
				<path fill="#2BFF2B" d="M26.493,73.868c2.9,4.454,8.457,9.419,18.456,7.786c4.87-0.796,10.994-6.137,12.349-12.818
					c1.271-6.266-1.494-12.062-8.215-17.228c-3.61-2.775-12.246-3.498-15.931-1.333c-7.435,4.366-7.789,5.618-9.484,11.627
					C23.416,62.791,22.374,67.543,26.493,73.868"/>
				<path fill="#35FF35" d="M28.91,75.619c4.629,4.752,13.292,6.229,15.862,5.158c6.46-2.691,6.583-2.742,9.861-7.344
					c1.396-1.961,2.551-5.816,2.056-9.388c-0.729-5.252-4.265-8.888-5.331-9.878c-2.783-2.582-2.783-2.582-10.205-4.539
					c-4.695-1.238-12.794,4.433-14.166,6.586C20.353,66.639,28.558,75.258,28.91,75.619"/>
				<path fill="#3DFF3D" d="M26.992,71.188c1.91,3.637,6.738,9.605,17.607,8.705c3.131-0.26,9.881-5.317,11.087-11.084
					c1.829-8.744-5.016-14.39-5.308-14.625c-3.583-2.895-8.966-3.831-9.194-3.869c-2.096-0.354-5.043,0.289-6.994,1.132
					c-2.043,0.884-4.414,2.861-5.862,4.553c-0.511,0.597-2.755,5.488-2.769,5.528C25.544,61.568,24.608,66.648,26.992,71.188"/>
				<path fill="#44FF44" d="M27.901,71.01c1.185,2.094,5.878,8.859,16.529,7.987l5.145-2.222c2.638-2.567,4.38-4.264,5.33-7.976
					c1.594-6.229-1.799-11.624-5.505-14.597c-2.448-1.964-8.131-3.198-8.181-3.205c-2.104-0.272-5.023,0.382-6.963,1.242
					c-0.911,0.404-5.566,2.742-7.721,9.107C26.222,62.271,25.756,67.221,27.901,71.01"/>
				<path fill="#4BFF4B" d="M28.829,70.838c0.015,0.025,3.316,3.852,3.716,4.141c1.693,1.222,4.365,2.163,6.253,3.053
					c1.484,0.699,3.833,0.216,5.469,0.084c1.704-0.137,3.996-1.067,5.24-2.24c3.149-2.969,4.263-5.709,4.647-7.079
					c0.689-2.462,1.512-8.808-5.73-14.564c-1.787-1.42-4.895-2.355-7.17-2.549c-2.111-0.179-5.002,0.475-6.93,1.352
					C29.889,55.051,24.093,62.943,28.829,70.838"/>
				<path fill="#51FF51" d="M29.776,70.672c1.69,2.797,5.804,7.387,14.359,6.707c1.743-0.139,4.023-1.224,5.305-2.412
					c2.458-2.275,3.952-6.137,3.962-6.172c1.454-4.783-0.49-10.146-4.953-13.66c-0.679-0.535-6.232-2.683-7.159-2.77
					c-2.105-0.196-4.976,0.573-6.895,1.461C34.281,53.88,23.784,60.761,29.776,70.672"/>
				<path fill="#57FF57" d="M30.742,70.512c1.915,3.144,6.125,5.088,7.508,5.727c1.571,0.725,4.031,0.533,5.756,0.398
					c1.782-0.141,4.046-1.383,5.37-2.584c1.105-1.002,3.264-5.223,3.274-5.255c1.606-4.911-0.922-10.21-4.117-12.702
					c-1.85-1.443-4.869-2.803-7.203-3.049c-2.099-0.221-4.948,0.672-6.857,1.57C34.403,54.65,25.202,61.415,30.742,70.512"/>
				<path fill="#5CFF5C" d="M31.64,70.371c0.022,0.031,2.846,3.389,6.453,5.015c1.588,0.716,4.048,0.637,5.786,0.503
					c0.024-0.002,4.881-2.339,5.431-2.824c1.121-0.99,2.104-2.846,2.589-4.261c2.085-6.081-2.145-10.91-3.392-11.87
					c-0.999-0.77-6.2-3.106-7.135-3.206c-0.381-0.041-6.494,1.502-6.813,1.721c-1.67,1.137-3.798,3.294-4.186,5.277
					C29.837,63.47,29.169,66.884,31.64,70.371"/>
				<path fill="#61FF61" d="M32.535,70.238c0.021,0.027,4.699,3.974,5.333,4.25c1.628,0.711,4.115,0.782,5.886,0.646
					c0.477-0.036,4.437-2.273,5.483-3.169c0.84-0.719,1.554-2.104,1.908-3.151c2.289-6.764-2.557-10.947-2.607-10.985
					c-0.042-0.031-6.712-3.378-7.123-3.421c-0.251-0.026-6.5,1.801-6.755,1.974C31.163,58.774,28.795,65.277,32.535,70.238"/>
				<path fill="#65FF65" d="M33.445,70.109c0.984,1.276,2.693,2.752,4.18,3.375c1.68,0.704,4.19,1.03,6.007,0.893
					c0.644-0.049,5.495-3.484,5.536-3.52c0.551-0.451,0.994-1.357,1.226-2.031c1.745-5.076-1.191-9.639-1.822-10.104
					c-1.917-1.413-4.734-3.303-7.103-3.545c-2.098-0.215-4.969,0.93-6.699,2.136C31.872,59.332,29.866,65.467,33.445,70.109"/>
				<path fill="#6AFF6A" d="M34.367,69.986c0.715,0.92,1.928,2.025,3.013,2.453c1.74,0.688,4.299,1.547,6.128,1.154
					c1.992-0.427,3.981-2.604,5.592-3.853c0.248-0.192,0.447-0.598,0.54-0.897c1.824-5.9-0.572-8.697-1.687-9.625
					c-1.661-1.383-4.274-3.086-6.429-3.246c-2.1-0.158-4.684,1.494-6.642,2.27c-2.389,0.944-2.596,7.112-2.588,7.17
					C32.5,66.905,33.442,68.797,34.367,69.986"/>
				<path fill="#6EFF6E" d="M35.295,69.869c0.443,0.563,1.171,1.278,1.847,1.518c1.803,0.639,4.361,1.737,6.232,1.342
					c1.939-0.409,3.831-2.602,5.361-3.86c0.189-0.155,0.212-0.533,0.269-0.772c0.281-1.178,0.888-2.829,0.568-3.997
					c-0.451-1.644-1.673-3.749-2.99-4.831c-1.295-1.065-3.325-2.406-5-2.503c-2.099-0.12-4.677,1.515-6.583,2.401
					c-0.372,0.174-0.681,0.695-0.858,1.064C31.803,65.107,34.418,68.753,35.295,69.869"/>
				<path fill="#72FF72" d="M36.228,69.758c0.166,0.209,0.429,0.49,0.684,0.566c1.873,0.561,4.415,1.91,6.334,1.533
					c1.471-0.288,3.136-1.744,4.042-2.939c0.846-1.115,1.312-3.025,1.53-4.408c0.03-0.189,0.08-0.484-0.031-0.643
					c-0.989-1.423-2.221-3.453-3.571-4.539c-0.931-0.751-2.376-1.712-3.571-1.772c-2.096-0.106-5.156,0.938-6.52,2.534
					c-1.02,1.191-1.327,3.543-1.148,5.102C34.149,66.709,35.278,68.562,36.228,69.758"/>
				<path fill="#77FF77" d="M36.543,68.533c0.301,0.385,0.782,0.885,1.239,1.055c1.551,0.578,3.71,1.694,5.337,1.393
					c0.996-0.185,2.165-1.152,2.722-1.998c0.855-1.299,2.029-3.322,1.796-4.859c-0.273-1.797-2.486-3.457-3.787-4.725
					c-0.513-0.5-1.427-1.02-2.142-1.054C39.877,58.257,31.268,61.797,36.543,68.533"/>
				<path fill="#7AFF7A" d="M36.004,65.67c1.026,1.336,2.811,2.785,4.234,3.686c0.724,0.459,1.917,0.902,2.758,0.742
					c0.515-0.098,1.146-0.583,1.402-1.039c0.771-1.373,2.153-3.326,1.926-4.885c-0.006-0.049-3.538-4.991-4.549-5.043
					c-0.722-0.035-1.244-0.061-5.984,5.309C35.543,64.721,35.776,65.373,36.004,65.67"/>
				<path fill="#7EFF7E" d="M42.714,69.165c0.044,0.023,0.112,0.054,0.162,0.044c0.247-0.046,2.144-4.929,2.138-4.974
					c-0.202-1.451-1.655-3.688-3.119-3.759c-1.829-0.09-4.416,2.484-4.319,4.312C37.682,66.812,40.93,68.207,42.714,69.165"/>
				<path fill="#82FF82" d="M42.589,66.963c0.841-0.198,1.245-1.801,1.116-2.655c-0.114-0.751-0.869-1.904-1.627-1.94
					c-0.945-0.045-2.278,1.27-2.246,2.217C39.868,65.676,41.526,67.213,42.589,66.963"/>
				<path fill="#85FF85" d="M42.313,64.594c0.065-0.015,0.096-0.139,0.086-0.203c-0.009-0.059-0.067-0.146-0.125-0.148
					c-0.072-0.003-0.173,0.096-0.171,0.168C42.105,64.494,42.232,64.613,42.313,64.594"/>
			</g>
		</g>
		<g enable-background="new    ">
			<defs>
				<path id="SVGID_3_" enable-background="new    " d="M61.195,107.503c-3.747,0.501-6.847,0.526-8.787,0.459
					c-2.302-0.08-3.646-0.222-4.932-0.371c-1.734-0.202-3.026-0.453-4.395-0.718c-0.948-0.184-2.812-0.64-3.834-0.938
					c-1.363-0.398-3.163-0.993-4.492-1.494c-0.979-0.368-2.269-0.903-3.215-1.35c-1.274-0.602-2.945-1.463-4.18-2.141
					C14.18,93.463,5.494,78.663,5.527,60.514C5.581,31.873,27.321,5.74,54.089,2.141C27.321,5.74,5.581,31.873,5.527,60.514
					c-0.034,18.149,8.652,32.949,21.834,40.438c-0.923-0.565-2.183-1.271-3.074-1.885c-1.419-0.977-3.275-2.334-4.62-3.41
					c-1.838-1.473-4.051-3.719-5.683-5.416c-1.073-1.116-2.4-2.711-3.284-3.983c-0.818-1.179-1.929-2.737-2.69-3.953
					c-0.657-1.051-1.5-2.478-2.034-3.597c-0.605-1.266-1.424-2.951-1.962-4.247c-0.484-1.166-1.058-2.751-1.442-3.954
					c-0.428-1.336-0.918-3.145-1.233-4.512c-0.291-1.259-0.583-2.957-0.784-4.232c-0.366-2.334-0.577-5.492-0.554-7.855
					c0.026-2.625,0.351-6.123,0.719-8.723c0.196-1.388,0.559-3.23,0.958-4.575c0.362-1.219,0.795-2.86,1.21-4.062
					c0.451-1.306,1.071-3.046,1.673-4.289c0.543-1.121,1.227-2.637,1.82-3.732c0.656-1.211,1.589-2.795,2.34-3.95
					c0.665-1.022,1.6-2.355,2.346-3.321c0.85-1.1,2.021-2.541,2.969-3.558c0.806-0.865,1.893-2.008,2.755-2.817
					c1.037-0.971,2.46-2.224,3.571-3.11c0.866-0.69,2.044-1.582,2.962-2.201c1.232-0.831,2.921-1.871,4.201-2.628
					c2.252-1.332,5.648-2.772,5.981-2.902c1.181-0.463,2.767-1.057,3.974-1.445c1.171-0.376,2.754-0.814,3.949-1.102
					c3.762-0.905,6.384-1.148,8.119-1.309c0.367-0.034,1.715-0.147,3.688-0.178c1.422-0.022,2.631,0.029,3.514,0.066
					c2.117,0.089,5.025,0.45,6.613,0.748c1.305,0.244,2.246,0.421,3.379,0.707C69.016,2.1,70.29,2.5,70.959,2.736
					c0.822,0.289,1.92,0.669,2.731,0.988c0.835,0.329,1.946,0.779,2.754,1.172c1.267,0.616,2.948,1.456,4.181,2.14
					c0.955,0.531,2.213,1.275,3.105,1.907c0.906,0.641,2.143,1.459,3.018,2.144c1.195,0.937,2.762,2.224,3.877,3.256
					c0.873,0.808,2.009,1.919,2.814,2.795c1.003,1.091,2.312,2.574,3.207,3.755c1.264,1.67,2.836,3.749,4.821,7.367
					c1.204,2.194,2.488,5.287,3.401,7.616c0.518,1.317,1.024,3.141,1.386,4.508c0.328,1.243,0.638,2.931,0.91,4.187
					c0.303,1.395,0.511,3.293,0.617,4.716c0.107,1.437,0.199,3.358,0.202,4.799c0.002,1.323-0.124,3.085-0.187,4.407
					c-0.074,1.585-0.36,3.691-0.693,5.243c-0.27,1.255-0.601,2.937-0.936,4.175c-0.364,1.348-0.917,3.127-1.391,4.439
					c-0.426,1.18-1.053,2.732-1.575,3.873c-0.58,1.269-1.396,2.943-2.098,4.148c-1.231,2.109-3.072,4.807-4.512,6.781
					c-0.819,1.123-2.064,2.507-3.006,3.531c-3.42,3.717-6.996,6.423-9.348,8.021c-1.234,0.839-2.926,1.9-4.245,2.599
					c-0.821,0.435-1.913,1.019-2.754,1.415c-0.996,0.471-2.335,1.078-3.364,1.472c-0.586,0.224-1.363,0.534-1.959,0.73
					c-1.172,0.387-2.736,0.899-3.93,1.21C66.903,106.415,64.361,107.078,61.195,107.503z"/>
			</defs>
			<clipPath id="SVGID_4_">
				<use xlink:href="#SVGID_3_"  overflow="visible"/>
			</clipPath>
			<g clip-path="url(#SVGID_4_)" enable-background="new    ">
				<path fill="#00A800" d="M61.195,107.503c-8.785,1.177-15.321-0.089-18.113-0.63c-7.612-1.475-13.715-4.822-15.721-5.922
					C14.18,93.463,5.494,78.663,5.527,60.514C5.581,31.873,27.321,5.74,54.089,2.141C27.321,5.74,5.581,31.873,5.527,60.514
					c-0.034,18.149,8.652,32.949,21.834,40.438c-5.202-3.188-7.739-4.846-13.377-10.711c-2.082-2.165-6.022-7.377-8.007-11.533
					c-2.788-5.836-4.311-9.859-5.421-16.945c-1.146-7.311-0.228-13.804,0.165-16.578c1.063-7.521,5.121-18.69,13.316-27.486
					c7.77-8.339,16.731-13.64,27.394-16.205c14.909-3.586,27.204,0.24,31.798,2.052c7.028,2.771,11.486,5.915,13.519,7.541
					c5.486,4.395,8.24,7.336,12.279,13.118c1.498,2.145,8.971,13.646,8.956,29.484c-0.011,11.003-3.044,21.154-9.015,30.171
					C90.388,96.82,76.619,105.438,61.195,107.503"/>
				<path fill="#00A800" d="M5.527,60.514c-0.034,18.149,8.652,32.949,21.834,40.438c-0.923-0.565-2.152-1.318-3.074-1.885
					c-1.405-0.996-3.27-2.342-4.62-3.41l-2.926-2.593c-1.061-1.087-2.489-2.522-3.499-3.657l-2.542-3.149
					c-0.815-1.181-1.928-2.737-2.69-3.953l-2.034-3.597c-0.595-1.271-1.423-2.951-1.962-4.247l-1.442-3.954
					c-0.376-1.352-0.917-3.145-1.233-4.512l-0.784-4.232c-0.242-2.35-0.482-5.494-0.554-7.855l0.187-4.408
					c0.173-1.41,0.361-3.297,0.597-4.698l0.894-4.191c0.399-1.338,0.89-3.136,1.347-4.456l1.537-3.895
					c0.611-1.253,1.391-2.941,2.055-4.167l2.105-3.515c0.818-1.158,1.882-2.721,2.749-3.842l2.565-3.036
					c1.037-1.06,2.404-2.489,3.487-3.501l2.839-2.426c1.312-0.975,3.065-2.27,4.424-3.177l2.739-1.651
					c3.632-1.91,3.774-1.985,5.981-2.902l1.98-0.766c3.555-1.21,6.089-2.002,11.303-2.791l1.404-0.17
					c0.412-0.04,0.96-0.097,1.372-0.131l1.256-0.088c0.369-0.018,0.861-0.047,1.231-0.059l1.183-0.029
					c0.352-0.001,0.819-0.003,1.171-0.003l1.169,0.022c0.352,0.014,0.821,0.035,1.174,0.047l1.211,0.076
					c0.369,0.031,0.863,0.069,1.233,0.105l1.313,0.143c0.408,0.055,0.954,0.123,1.361,0.183l1.494,0.241
					c0.479,0.091,1.117,0.206,1.593,0.305l1.786,0.402c0.599,0.157,1.398,0.357,1.994,0.525l2.221,0.684
					c0.82,0.292,1.919,0.673,2.731,0.988l2.754,1.172c1.264,0.624,2.944,1.463,4.181,2.14l3.105,1.907
					c3.774,2.683,4.26,3.028,6.895,5.4l2.814,2.795c0.972,1.119,2.287,2.594,3.207,3.755l2.381,3.312
					c0.739,1.212,1.756,2.812,2.44,4.055l1.842,3.726c0.521,1.3,1.255,3.021,1.718,4.342l1.228,4.057
					c0.3,1.377,0.741,3.205,0.979,4.594l0.548,4.309c0.065,1.44,0.199,3.358,0.202,4.799l-0.187,4.407
					c-0.194,1.574-0.423,3.68-0.693,5.243l-0.936,4.175c-0.412,1.334-0.921,3.125-1.391,4.439l-1.575,3.873
					c-0.623,1.248-1.421,2.93-2.098,4.148l-2.137,3.488c-0.83,1.151-1.912,2.707-2.793,3.821l-2.588,3.003
					c-1.051,1.054-2.439,2.475-3.537,3.479l-2.846,2.384c-1.332,0.969-3.115,2.256-4.496,3.158l-2.714,1.599
					c-3.559,1.829-3.772,1.938-6.118,2.887l-1.959,0.73c-2.729,0.896-5.553,1.824-10.723,2.582l-1.404,0.171
					c-0.412,0.039-0.961,0.096-1.372,0.13l-1.257,0.089c-0.369,0.018-0.861,0.047-1.23,0.059l-1.183,0.029
					c-0.352,0.001-0.819,0.004-1.171,0.004l-1.169-0.022c-0.353-0.015-0.821-0.034-1.173-0.048l-1.211-0.075
					c-0.371-0.031-0.864-0.07-1.234-0.105l-1.313-0.143c-0.409-0.056-0.954-0.124-1.362-0.183l-1.494-0.242
					c-0.478-0.09-1.116-0.206-1.592-0.305l-1.787-0.401c-0.598-0.156-1.398-0.356-1.993-0.524l-2.221-0.684
					c-0.821-0.293-1.919-0.674-2.731-0.988l-2.754-1.172c-1.264-0.623-2.945-1.463-4.18-2.141
					C14.18,93.463,5.494,78.663,5.527,60.514C5.581,31.873,27.321,5.74,54.089,2.141l0,0c-46.997,13.921-30.384,64.603-1.6,78.806
					c32.749,16.157,63.01-9.738,52.225-44.691C100.754,23.415,88.908,1.907,54.089,2.141C27.321,5.74,5.581,31.873,5.527,60.514"/>
				<path fill="#00A300" d="M5.527,60.514c-0.034,18.149,8.652,32.949,21.834,40.438c-0.923-0.565-2.152-1.318-3.074-1.885
					c-1.405-0.996-3.27-2.342-4.62-3.41l-2.926-2.593c-1.061-1.087-2.489-2.522-3.499-3.657l-2.542-3.149
					c-0.815-1.181-1.928-2.737-2.69-3.953l-2.034-3.597c-0.595-1.271-1.423-2.951-1.962-4.247l-1.442-3.954
					c-0.376-1.352-0.917-3.145-1.233-4.512l-0.784-4.232c-0.242-2.35-0.482-5.494-0.554-7.855l0.187-4.408
					c0.173-1.41,0.361-3.297,0.597-4.698l0.894-4.191c0.399-1.338,0.89-3.136,1.347-4.456l1.537-3.895
					c0.611-1.253,1.391-2.941,2.055-4.167l2.105-3.515c0.818-1.158,1.882-2.721,2.749-3.842l2.565-3.036
					c1.037-1.06,2.404-2.489,3.487-3.501l2.839-2.426c1.312-0.975,3.065-2.27,4.424-3.177l2.739-1.651
					c3.632-1.91,3.774-1.985,5.981-2.902l1.98-0.766c3.555-1.21,6.089-2.002,11.303-2.791l1.404-0.17
					c0.412-0.04,0.96-0.097,1.372-0.131l1.256-0.088c0.369-0.018,0.861-0.047,1.231-0.059l1.183-0.029
					c0.352-0.001,0.819-0.003,1.171-0.003l1.169,0.022c0.352,0.014,0.821,0.035,1.174,0.047l1.211,0.076
					c0.369,0.031,0.863,0.069,1.233,0.105l1.313,0.143c0.408,0.055,0.954,0.123,1.361,0.183l1.494,0.241
					c0.479,0.091,1.117,0.206,1.593,0.305l1.786,0.402c0.599,0.157,1.398,0.357,1.994,0.525l2.221,0.684
					c0.82,0.292,1.919,0.673,2.731,0.988l2.754,1.172c1.264,0.624,2.944,1.463,4.181,2.14l3.105,1.907
					c3.774,2.683,4.26,3.028,6.895,5.4l2.814,2.795c0.972,1.119,2.287,2.594,3.207,3.755l2.381,3.312
					c0.739,1.212,1.756,2.812,2.44,4.055l1.842,3.726c0.521,1.3,1.255,3.021,1.718,4.342l1.228,4.057
					c0.3,1.377,0.741,3.205,0.979,4.594l0.548,4.309c0.065,1.44,0.199,3.358,0.202,4.799l-0.187,4.407
					c-0.194,1.574-0.423,3.68-0.693,5.243l-0.936,4.175c-0.412,1.334-0.921,3.125-1.391,4.439l-1.575,3.873
					c-0.623,1.248-1.421,2.93-2.098,4.148l-2.137,3.488c-0.83,1.151-1.912,2.707-2.793,3.821l-2.588,3.003
					c-1.051,1.054-2.439,2.475-3.537,3.479l-2.846,2.384c-1.332,0.969-3.115,2.256-4.496,3.158l-2.714,1.599
					c-3.559,1.829-3.772,1.938-6.118,2.887l-1.959,0.73c-2.729,0.896-5.553,1.824-10.723,2.582l-1.404,0.171
					c-0.412,0.039-0.961,0.096-1.372,0.13l-1.257,0.089c-0.369,0.018-0.861,0.047-1.23,0.059l-1.183,0.029
					c-0.352,0.001-0.819,0.004-1.171,0.004l-1.169-0.022c-0.353-0.015-0.821-0.034-1.173-0.048l-1.211-0.075
					c-0.371-0.031-0.864-0.07-1.234-0.105l-1.313-0.143c-0.409-0.056-0.954-0.124-1.362-0.183l-1.494-0.242
					c-0.478-0.09-1.116-0.206-1.592-0.305l-1.787-0.401c-0.598-0.156-1.398-0.356-1.993-0.524l-2.221-0.684
					c-0.821-0.293-1.919-0.674-2.731-0.988l-2.754-1.172c-1.264-0.623-2.945-1.463-4.18-2.141
					C14.18,93.463,5.494,78.663,5.527,60.514C5.571,36.749,20.547,14.711,40.936,5.84c-0.123,0.069-0.287,0.16-0.41,0.229
					C7.692,27.017,24.581,75.641,59.381,85.872c34.592,10.17,60.036-23.754,42.539-56.716C89.123,5.048,61.196-5.629,40.936,5.84
					C20.547,14.711,5.571,36.749,5.527,60.514"/>
				<g>
					<path fill="#009E00" d="M105.027,36.327c0.59,1.763,1.48,4.427,2.207,8.65l0.548,4.309c0.065,1.44,0.199,3.358,0.202,4.799
						l-0.187,4.407c-0.194,1.574-0.423,3.68-0.693,5.243l-0.936,4.175c-0.412,1.334-0.921,3.125-1.391,4.439l-1.575,3.873
						c-0.623,1.248-1.421,2.93-2.098,4.148l-2.137,3.488c-0.83,1.151-1.912,2.707-2.793,3.821l-2.588,3.003
						c-1.051,1.054-2.439,2.475-3.537,3.479l-2.846,2.384c-1.332,0.969-3.115,2.256-4.496,3.158l-2.714,1.599
						c-3.559,1.829-3.772,1.938-6.118,2.887l-1.959,0.73c-2.729,0.896-5.553,1.824-10.723,2.582l-1.404,0.171
						c-0.412,0.039-0.961,0.096-1.372,0.13l-1.257,0.089c-0.369,0.018-0.861,0.047-1.23,0.059l-1.183,0.029
						c-0.352,0.001-0.819,0.004-1.171,0.004l-1.169-0.022c-0.353-0.015-0.821-0.034-1.173-0.048l-1.211-0.075
						c-0.371-0.031-0.864-0.07-1.234-0.105l-1.313-0.143c-0.409-0.056-0.954-0.124-1.362-0.183l-1.494-0.242
						c-0.478-0.09-1.116-0.206-1.592-0.305l-1.787-0.401c-0.598-0.156-1.398-0.356-1.993-0.524l-2.221-0.684
						c-0.821-0.293-1.919-0.674-2.731-0.988l-2.754-1.172c-1.264-0.623-2.945-1.463-4.18-2.141
						C14.18,93.463,5.494,78.663,5.527,60.514c0.038-20.604,11.3-39.909,27.582-50.461c-0.226,0.207-0.527,0.483-0.754,0.69
						C2.701,41.616,34.078,90.841,72.094,89.511c27.112-0.949,42.786-27.7,32.251-55.046
						C104.55,35.024,104.84,35.763,105.027,36.327"/>
					<path fill="#009E00" d="M5.527,60.514c-0.034,18.149,8.652,32.949,21.834,40.438c-0.923-0.565-2.152-1.318-3.074-1.885
						c-1.405-0.996-3.27-2.342-4.62-3.41l-2.926-2.593c-1.061-1.087-2.489-2.522-3.499-3.657l-2.542-3.149
						c-0.815-1.181-1.928-2.737-2.69-3.953l-2.034-3.597c-0.595-1.271-1.423-2.951-1.962-4.247l-1.442-3.954
						c-0.376-1.352-0.917-3.145-1.233-4.512l-0.784-4.232c-0.242-2.35-0.482-5.494-0.554-7.855l0.187-4.408
						c0.173-1.41,0.361-3.297,0.597-4.698l0.894-4.191c0.399-1.338,0.89-3.136,1.347-4.456l1.537-3.895
						c0.611-1.253,1.391-2.941,2.055-4.167l2.105-3.515c0.818-1.158,1.882-2.721,2.749-3.842l2.565-3.036
						c1.037-1.06,2.404-2.489,3.487-3.501l2.839-2.426c1.312-0.975,3.065-2.27,4.424-3.177l2.739-1.651
						c3.632-1.91,3.774-1.985,5.981-2.902l1.98-0.766c3.555-1.21,6.089-2.002,11.303-2.791l1.404-0.17
						c0.412-0.04,0.96-0.097,1.372-0.131l1.256-0.088c0.369-0.018,0.861-0.047,1.231-0.059l1.183-0.029
						c0.352-0.001,0.819-0.003,1.171-0.003l1.169,0.022c0.352,0.014,0.821,0.035,1.174,0.047l1.211,0.076
						c0.369,0.031,0.863,0.069,1.233,0.105l1.313,0.143c0.408,0.055,0.954,0.123,1.361,0.183l1.494,0.241
						c0.479,0.091,1.117,0.206,1.593,0.305l1.786,0.402c0.599,0.157,1.398,0.357,1.994,0.525l2.221,0.684
						c0.82,0.292,1.919,0.673,2.731,0.988l2.754,1.172c1.264,0.624,2.944,1.463,4.181,2.14c0.688,0.414,1.606,0.967,2.295,1.381
						c-0.928-0.546-2.164-1.274-3.091-1.821C52.877-6.828,36.183,7.12,33.109,10.052C16.827,20.604,5.565,39.91,5.527,60.514"/>
				</g>
				<g>
					<path fill="#009900" d="M107.234,44.978c0.383,2.568,0.742,4.994,0.75,9.107l-0.187,4.407c-0.194,1.574-0.423,3.68-0.693,5.243
						l-0.936,4.175c-0.412,1.334-0.921,3.125-1.391,4.439l-1.575,3.873c-0.623,1.248-1.421,2.93-2.098,4.148l-2.137,3.488
						c-0.83,1.151-1.912,2.707-2.793,3.821l-2.588,3.003c-1.051,1.054-2.439,2.475-3.537,3.479l-2.846,2.384
						c-1.332,0.969-3.115,2.256-4.496,3.158l-2.714,1.599c-3.559,1.829-3.772,1.938-6.118,2.887l-1.959,0.73
						c-2.729,0.896-5.553,1.824-10.723,2.582l-1.404,0.171c-0.412,0.039-0.961,0.096-1.372,0.13l-1.257,0.089
						c-0.369,0.018-0.861,0.047-1.23,0.059l-1.183,0.029c-0.352,0.001-0.819,0.004-1.171,0.004l-1.169-0.022
						c-0.353-0.015-0.821-0.034-1.173-0.048l-1.211-0.075c-0.371-0.031-0.864-0.07-1.234-0.105l-1.313-0.143
						c-0.409-0.056-0.954-0.124-1.362-0.183l-1.494-0.242c-0.478-0.09-1.116-0.206-1.592-0.305l-1.787-0.401
						c-0.598-0.156-1.398-0.356-1.993-0.524l-2.221-0.684c-0.821-0.293-1.919-0.674-2.731-0.988l-2.754-1.172
						c-1.264-0.623-2.945-1.463-4.18-2.141C14.18,93.463,5.494,78.663,5.527,60.514c0.033-17.991,8.624-34.992,21.644-46.041
						c-0.548,0.751-1.278,1.752-1.826,2.503C2.65,54.787,44.263,99.741,80.9,90.012c15.556-4.132,30.421-20.051,26.3-45.239
						C107.209,44.834,107.227,44.916,107.234,44.978"/>
					<path fill="#009900" d="M5.527,60.514c-0.034,18.149,8.652,32.949,21.834,40.438c-0.923-0.565-2.152-1.318-3.074-1.885
						c-1.405-0.996-3.27-2.342-4.62-3.41l-2.926-2.593c-1.061-1.087-2.489-2.522-3.499-3.657l-2.542-3.149
						c-0.815-1.181-1.928-2.737-2.69-3.953l-2.034-3.597c-0.595-1.271-1.423-2.951-1.962-4.247l-1.442-3.954
						c-0.376-1.352-0.917-3.145-1.233-4.512l-0.784-4.232c-0.242-2.35-0.482-5.494-0.554-7.855l0.187-4.408
						c0.173-1.41,0.361-3.297,0.597-4.698l0.894-4.191c0.399-1.338,0.89-3.136,1.347-4.456l1.537-3.895
						c0.611-1.253,1.391-2.941,2.055-4.167l2.105-3.515c0.818-1.158,1.882-2.721,2.749-3.842l2.565-3.036
						c1.037-1.06,2.404-2.489,3.487-3.501l2.839-2.426c1.312-0.975,3.065-2.27,4.424-3.177l2.739-1.651
						c3.632-1.91,3.774-1.985,5.981-2.902l1.98-0.766c3.555-1.21,6.089-2.002,11.303-2.791l1.404-0.17
						c0.412-0.04,0.96-0.097,1.372-0.131l1.256-0.088c0.369-0.018,0.861-0.047,1.231-0.059l1.183-0.029
						c0.352-0.001,0.819-0.003,1.171-0.003l1.169,0.022c0.352,0.014,0.821,0.035,1.174,0.047l1.211,0.076
						c0.369,0.031,0.863,0.069,1.233,0.105l1.313,0.143c0.408,0.055,0.954,0.123,1.361,0.183l1.494,0.241
						c0.479,0.091,1.117,0.206,1.593,0.305l1.786,0.402c0.599,0.157,1.398,0.357,1.994,0.525l2.221,0.684l1.305,0.451l-2.827-0.923
						C49.422-3.421,34.48,4.844,27.171,14.473C14.151,25.521,5.561,42.522,5.527,60.514"/>
				</g>
				<g>
					<path fill="#009400" d="M107.984,54.085c-0.057,2.782-0.105,5.185-0.88,9.65l-0.936,4.175
						c-0.412,1.334-0.921,3.125-1.391,4.439l-1.575,3.873c-0.623,1.248-1.421,2.93-2.098,4.148l-2.137,3.488
						c-0.83,1.151-1.912,2.707-2.793,3.821l-2.588,3.003c-1.051,1.054-2.439,2.475-3.537,3.479l-2.846,2.384
						c-1.332,0.969-3.115,2.256-4.496,3.158l-2.714,1.599c-3.559,1.829-3.772,1.938-6.118,2.887l-1.959,0.73
						c-2.729,0.896-5.553,1.824-10.723,2.582l-1.404,0.171c-0.412,0.039-0.961,0.096-1.372,0.13l-1.257,0.089
						c-0.369,0.018-0.861,0.047-1.23,0.059l-1.183,0.029c-0.352,0.001-0.819,0.004-1.171,0.004l-1.169-0.022
						c-0.353-0.015-0.821-0.034-1.173-0.048l-1.211-0.075c-0.371-0.031-0.864-0.07-1.234-0.105l-1.313-0.143
						c-0.409-0.056-0.954-0.124-1.362-0.183l-1.494-0.242c-0.478-0.09-1.116-0.206-1.592-0.305l-1.787-0.401
						c-0.598-0.156-1.398-0.356-1.993-0.524l-2.221-0.684c-0.821-0.293-1.919-0.674-2.731-0.988l-2.754-1.172
						c-1.264-0.623-2.945-1.463-4.18-2.141C14.18,93.463,5.494,78.663,5.527,60.514c0.029-15.559,6.458-30.377,16.616-41.245
						c-0.164,0.288-0.383,0.673-0.547,0.961C1.666,60.805,45.962,103.432,82.352,91.375c12.403-4.108,25.65-16.166,25.632-37.685
						C107.979,53.808,107.986,53.966,107.984,54.085"/>
					<path fill="#009400" d="M5.527,60.514c-0.034,18.149,8.652,32.949,21.834,40.438c-0.923-0.565-2.152-1.318-3.074-1.885
						c-1.405-0.996-3.27-2.342-4.62-3.41l-2.926-2.593c-1.061-1.087-2.489-2.522-3.499-3.657l-2.542-3.149
						c-0.815-1.181-1.928-2.737-2.69-3.953l-2.034-3.597c-0.595-1.271-1.423-2.951-1.962-4.247l-1.442-3.954
						c-0.376-1.352-0.917-3.145-1.233-4.512l-0.784-4.232c-0.242-2.35-0.482-5.494-0.554-7.855l0.187-4.408
						c0.173-1.41,0.361-3.297,0.597-4.698l0.894-4.191c0.399-1.338,0.89-3.136,1.347-4.456l1.537-3.895
						c0.611-1.253,1.391-2.941,2.055-4.167l2.105-3.515c0.818-1.158,1.882-2.721,2.749-3.842l2.565-3.036
						c1.037-1.06,2.404-2.489,3.487-3.501l2.839-2.426c1.312-0.975,3.065-2.27,4.424-3.177l2.739-1.651
						c3.632-1.91,3.774-1.985,5.981-2.902l1.98-0.766c3.555-1.21,6.089-2.002,11.303-2.791l1.404-0.17
						c0.412-0.04,0.96-0.097,1.372-0.131l1.256-0.088c0.369-0.018,0.861-0.047,1.231-0.059l1.183-0.029
						c0.352-0.001,0.819-0.003,1.171-0.003l1.169,0.022c0.352,0.014,0.821,0.035,1.174,0.047l1.211,0.076
						c0.369,0.031,0.863,0.069,1.233,0.105l1.313,0.143c0.408,0.055,0.954,0.123,1.361,0.183l1.494,0.241l0.408,0.073L63.34,0.816
						C34.679-3.652,23.342,16.91,22.144,19.269C11.985,30.136,5.556,44.955,5.527,60.514"/>
				</g>
				<g>
					<path fill="#008F00" d="M107.104,63.735c-0.354,1.83-0.891,4.595-2.326,8.614l-1.575,3.873
						c-0.623,1.248-1.421,2.93-2.098,4.148l-2.137,3.488c-0.83,1.151-1.912,2.707-2.793,3.821l-2.588,3.003
						c-1.051,1.054-2.439,2.475-3.537,3.479l-2.846,2.384c-1.332,0.969-3.115,2.256-4.496,3.158l-2.714,1.599
						c-3.559,1.829-3.772,1.938-6.118,2.887l-1.959,0.73c-2.729,0.896-5.553,1.824-10.723,2.582l-1.404,0.171
						c-0.412,0.039-0.961,0.096-1.372,0.13l-1.257,0.089c-0.369,0.018-0.861,0.047-1.23,0.059l-1.183,0.029
						c-0.352,0.001-0.819,0.004-1.171,0.004l-1.169-0.022c-0.353-0.015-0.821-0.034-1.173-0.048l-1.211-0.075
						c-0.371-0.031-0.864-0.07-1.234-0.105l-1.313-0.143c-0.409-0.056-0.954-0.124-1.362-0.183l-1.494-0.242
						c-0.478-0.09-1.116-0.206-1.592-0.305l-1.787-0.401c-0.598-0.156-1.398-0.356-1.993-0.524l-2.221-0.684
						c-0.821-0.293-1.919-0.674-2.731-0.988l-2.754-1.172c-1.264-0.623-2.945-1.463-4.18-2.141
						C14.18,93.463,5.494,78.663,5.527,60.514c0.024-13.132,4.607-25.736,12.144-35.883c-0.376,1.014-0.879,2.366-1.256,3.38
						c-12.128,46.165,39.093,81.77,72.569,62.034c14.811-8.732,17.539-23.413,18.436-28.237
						C107.326,62.387,107.216,63.16,107.104,63.735"/>
					<path fill="#008F00" d="M5.527,60.514c-0.034,18.149,8.652,32.949,21.834,40.438c-0.923-0.565-2.152-1.318-3.074-1.885
						c-1.405-0.996-3.27-2.342-4.62-3.41l-2.926-2.593c-1.061-1.087-2.489-2.522-3.499-3.657l-2.542-3.149
						c-0.815-1.181-1.928-2.737-2.69-3.953l-2.034-3.597c-0.595-1.271-1.423-2.951-1.962-4.247l-1.442-3.954
						c-0.376-1.352-0.917-3.145-1.233-4.512l-0.784-4.232c-0.242-2.35-0.482-5.494-0.554-7.855l0.187-4.408
						c0.173-1.41,0.361-3.297,0.597-4.698l0.894-4.191c0.399-1.338,0.89-3.136,1.347-4.456l1.537-3.895
						c0.611-1.253,1.391-2.941,2.055-4.167l2.105-3.515c0.818-1.158,1.882-2.721,2.749-3.842l2.565-3.036
						c1.037-1.06,2.404-2.489,3.487-3.501l2.839-2.426c1.312-0.975,3.065-2.27,4.424-3.177l2.739-1.651
						c3.632-1.91,3.774-1.985,5.981-2.902l1.98-0.766c3.555-1.21,6.089-2.002,11.303-2.791l1.404-0.17
						c0.412-0.04,0.96-0.097,1.372-0.131l1.256-0.088c0.369-0.018,0.861-0.047,1.231-0.059l1.183-0.029
						c0.352-0.001,0.819-0.003,1.171-0.003c0.297,0.005,0.694,0.012,0.991,0.017C55.13,0.016,54.771,0.01,54.5,0.005
						C26.817,0.137,18.526,22.125,17.671,24.631C10.135,34.778,5.552,47.382,5.527,60.514"/>
				</g>
				<g>
					<path fill="#008A00" d="M104.778,72.35c-0.592,1.59-1.581,4.253-3.673,8.021l-2.137,3.488c-0.83,1.151-1.912,2.707-2.793,3.821
						l-2.588,3.003c-1.051,1.054-2.439,2.475-3.537,3.479l-2.846,2.384c-1.332,0.969-3.115,2.256-4.496,3.158l-2.714,1.599
						c-3.559,1.829-3.772,1.938-6.118,2.887l-1.959,0.73c-2.729,0.896-5.553,1.824-10.723,2.582l-1.404,0.171
						c-0.412,0.039-0.961,0.096-1.372,0.13l-1.257,0.089c-0.369,0.018-0.861,0.047-1.23,0.059l-1.183,0.029
						c-0.352,0.001-0.819,0.004-1.171,0.004l-1.169-0.022c-0.353-0.015-0.821-0.034-1.173-0.048l-1.211-0.075
						c-0.371-0.031-0.864-0.07-1.234-0.105l-1.313-0.143c-0.409-0.056-0.954-0.124-1.362-0.183l-1.494-0.242
						c-0.478-0.09-1.116-0.206-1.592-0.305l-1.787-0.401c-0.598-0.156-1.398-0.356-1.993-0.524l-2.221-0.684
						c-0.821-0.293-1.919-0.674-2.731-0.988l-2.754-1.172c-1.264-0.623-2.945-1.463-4.18-2.141
						C14.18,93.463,5.494,78.663,5.527,60.514c0.02-10.549,2.981-20.757,8.052-29.625c-0.1,0.384-0.233,0.896-0.333,1.279
						c-9.285,46.416,43.88,80.217,76.025,59.439c5.383-3.48,12.572-10.025,16.246-21.449
						C105.296,70.814,105.02,71.699,104.778,72.35"/>
					<path fill="#008A00" d="M5.527,60.514c-0.034,18.149,8.652,32.949,21.834,40.438c-0.923-0.565-2.152-1.318-3.074-1.885
						c-1.405-0.996-3.27-2.342-4.62-3.41l-2.926-2.593c-1.061-1.087-2.489-2.522-3.499-3.657l-2.542-3.149
						c-0.815-1.181-1.928-2.737-2.69-3.953l-2.034-3.597c-0.595-1.271-1.423-2.951-1.962-4.247l-1.442-3.954
						c-0.376-1.352-0.917-3.145-1.233-4.512l-0.784-4.232c-0.242-2.35-0.482-5.494-0.554-7.855l0.187-4.408
						c0.173-1.41,0.361-3.297,0.597-4.698l0.894-4.191c0.399-1.338,0.89-3.136,1.347-4.456l1.537-3.895
						c0.611-1.253,1.391-2.941,2.055-4.167l2.105-3.515c0.818-1.158,1.882-2.721,2.749-3.842l2.565-3.036
						c1.037-1.06,2.404-2.489,3.487-3.501l2.839-2.426c1.312-0.975,3.065-2.27,4.424-3.177l2.739-1.651
						c3.632-1.91,3.774-1.985,5.981-2.902l1.98-0.766c2.903-0.989,5.646-1.923,11-2.749l-0.836,0.125
						C26.592,3.96,15.666,18.646,13.58,30.889C8.509,39.756,5.547,49.964,5.527,60.514"/>
				</g>
				<g>
					<path fill="#008500" d="M101.105,80.371c-1.1,1.893-2.345,4.037-4.93,7.31l-2.588,3.003c-1.051,1.054-2.439,2.475-3.537,3.479
						l-2.846,2.384c-1.332,0.969-3.115,2.256-4.496,3.158l-2.714,1.599c-3.559,1.829-3.772,1.938-6.118,2.887l-1.959,0.73
						c-2.729,0.896-5.553,1.824-10.723,2.582l-1.404,0.171c-0.412,0.039-0.961,0.096-1.372,0.13l-1.257,0.089
						c-0.369,0.018-0.861,0.047-1.23,0.059l-1.183,0.029c-0.352,0.001-0.819,0.004-1.171,0.004l-1.169-0.022
						c-0.353-0.015-0.821-0.034-1.173-0.048l-1.211-0.075c-0.371-0.031-0.864-0.07-1.234-0.105l-1.313-0.143
						c-0.409-0.056-0.954-0.124-1.362-0.183l-1.494-0.242c-0.478-0.09-1.116-0.206-1.592-0.305l-1.787-0.401
						c-0.598-0.156-1.398-0.356-1.993-0.524l-2.221-0.684c-0.821-0.293-1.919-0.674-2.731-0.988l-2.754-1.172
						c-1.264-0.623-2.945-1.463-4.18-2.141C14.18,93.463,5.494,78.663,5.527,60.514c0.014-7.485,1.509-14.798,4.188-21.583
						c-0.077,0.697-0.18,1.626-0.256,2.324C7.606,85.368,62.1,117.625,92.754,90.562c5.266-4.648,7.664-8.963,8.816-11.036
						C101.431,79.779,101.251,80.12,101.105,80.371"/>
					<path fill="#008500" d="M5.527,60.514c-0.034,18.149,8.652,32.949,21.834,40.438c-0.923-0.565-2.152-1.318-3.074-1.885
						c-1.405-0.996-3.27-2.342-4.62-3.41l-2.926-2.593c-1.061-1.087-2.489-2.522-3.499-3.657l-2.542-3.149
						c-0.815-1.181-1.928-2.737-2.69-3.953l-2.034-3.597c-0.595-1.271-1.423-2.951-1.962-4.247l-1.442-3.954
						c-0.376-1.352-0.917-3.145-1.233-4.512l-0.784-4.232c-0.242-2.35-0.482-5.494-0.554-7.855l0.187-4.408
						c0.173-1.41,0.361-3.297,0.597-4.698l0.894-4.191c0.399-1.338,0.89-3.136,1.347-4.456l1.537-3.895
						c0.611-1.253,1.391-2.941,2.055-4.167l2.105-3.515c0.818-1.158,1.882-2.721,2.749-3.842l2.565-3.036
						c1.037-1.06,2.404-2.489,3.487-3.501l2.839-2.426c1.312-0.975,3.065-2.27,4.424-3.177l2.739-1.651
						c3.632-1.91,3.774-1.985,5.981-2.902l1.98-0.766c0.825-0.281,1.925-0.658,2.758-0.917l-0.063,0.019
						C18.894,8.479,9.986,25.132,9.715,38.931C7.036,45.715,5.541,53.029,5.527,60.514"/>
				</g>
				<path fill="#00AD00" d="M77.891,6.307c33.901,15.965,38.798,63.034,7.819,75.168C53.219,94.203,15.977,55.505,29.585,23.156
					C38.288,2.468,60.98-1.657,77.891,6.307"/>
				<path fill="#00B300" d="M82.516,9.122c32.653,19.871,31.054,65.757-2.517,72.201c-35.421,6.8-65.39-37.121-44.536-65.271
					C47.384-0.041,68.156,0.384,82.516,9.122"/>
				<path fill="#00B800" d="M86.714,12.398c29.415,22.631,21.243,61.629-6.421,67.056c-30.767,6.034-63.256-32.181-43.461-62.499
					C45.649,3.45,67.797-1.604,86.714,12.398"/>
				<path fill="#00BD00" d="M90.458,16.114c26.702,25.607,12.108,62.122-16.663,62.112c-33.767-0.012-54.708-42.332-32.011-64.69
					C55.795-0.266,77.959,4.128,90.458,16.114"/>
				<path fill="#00C200" d="M90.316,16.721c24.217,22.661,14.117,59.457-16.375,59.652C41.071,76.584,21.607,36.25,43.759,13.827
					C55.271,2.173,76.157,3.471,90.316,16.721"/>
				<path fill="#00C700" d="M93.393,20.874c19.794,24.279,5.85,56.164-23.312,53.309C36.209,70.865,25.76,29.436,47.562,12.7
					C62.441,1.277,82.938,8.049,93.393,20.874"/>
				<path fill="#00CC00" d="M92.973,21.479c19.694,24.325,3.44,56.098-25.957,50.744C35.322,66.449,28.963,27.619,50.553,12.52
					C62.934,3.862,81.963,7.881,92.973,21.479"/>
				<path fill="#00D100" d="M95.274,26.067c15.497,25.603-4.173,49.134-28.234,44.572C35.033,64.57,32.499,27.625,50.796,14.415
					C67.79,2.145,87.547,13.298,95.274,26.067"/>
				<path fill="#00D600" d="M94.554,26.682c14.412,24.221-4.644,46.592-27.501,42.346C37.257,63.493,32.841,30.092,53.377,14.69
					C64.262,6.527,84.619,9.987,94.554,26.682"/>
				<path fill="#00DB00" d="M93.668,27.315c12.967,22.304-5.062,43.458-26.613,40.427c-27.006-3.8-32.244-36.961-13.755-50.741
					C68.741,5.493,86.971,15.795,93.668,27.315"/>
				<path fill="#00E000" d="M94.771,32.348c8.755,23.312-15.146,40.719-35.017,32.062C36.19,54.146,39.889,23.287,60.226,15.09
					C72.982,9.948,89.447,18.174,94.771,32.348"/>
				<path fill="#00E600" d="M93.473,33.002c7.24,20.889-13.25,39.291-33.729,30.293c-22.262-9.782-18.476-38.391,0.934-46.393
					C74.307,11.284,89.233,20.769,93.473,33.002"/>
				<path fill="#00EB00" d="M91.981,33.657c6.905,20.726-14.94,36.312-32.248,28.678c-21.011-9.268-17.013-36.63,1.489-43.767
					C74.66,13.384,88.217,22.36,91.981,33.657"/>
				<path fill="#00F000" d="M90.381,34.274c6.542,19.642-14.225,34.364-30.66,27.101c-18.143-8.017-16.939-33.805,1.924-41.183
					C70.527,16.718,85.757,20.394,90.381,34.274"/>
				<path fill="#00F500" d="M89.738,39.637c1.018,14.667-9.193,19.396-12.549,20.949c-11.661,5.4-20.288-2-23.124-4.432
					c-13.401-11.492-6.017-32.922,12.155-35.276C78.822,19.246,89.029,29.436,89.738,39.637"/>
				<path fill="#00FA00" d="M88.194,40.086c1.353,10.552-7.356,17.434-7.445,17.491c-5.622,3.568-5.774,3.577-13.794,4.028
					c-0.041,0.002-6.451-1.47-8.27-2.787c-20.324-14.721-7.166-32.571,3.625-35.854C72.855,19.759,86.459,26.539,88.194,40.086"/>
				<path fill="#00FF00" d="M86.951,40.418C88.509,54.443,71.955,68.294,56.387,56c-15.92-12.573-3.865-32.448,10.816-32.418
					C73.438,23.594,85.632,28.545,86.951,40.418"/>
				<path fill="#1FFF1F" d="M85.659,40.74c0.454,4.824-0.462,13.625-11.685,18.368c-3.314,1.4-12.393,1.955-19.302-5.273
					C44.83,43.54,50.942,24.54,67.664,24.942C77.916,25.189,85.055,34.31,85.659,40.74"/>
				<path fill="#2BFF2B" d="M84.319,41.049c1.765,18.285-19.286,22.527-28.669,12.782C44.115,41.85,54.098,24.841,68.002,25.983
					C79.322,26.914,83.884,36.535,84.319,41.049"/>
				<path fill="#35FF35" d="M83.32,41.265c1.381,9.263-4.381,12.882-9.465,16.075c-0.715,0.448-7.09,2.564-14.23-1.191
					c-0.984-0.518-9.571-5.392-8.133-16.98c0.337-2.713,4.318-10.255,11.723-11.958C69.354,25.797,81.65,30.061,83.32,41.265"/>
				<path fill="#3DFF3D" d="M82.427,46.462c-0.008,0.032-2.122,4.773-2.769,5.529c-1.449,1.691-4.054,3.254-5.863,4.552
					c-1.727,1.24-4.875,0.957-6.993,1.133c-0.657,0.055-9.149-1.253-13.149-8.817c-4.978-9.417,2.583-22.584,14.974-20.846
					C77.231,29.219,84.324,38.702,82.427,46.462"/>
				<path fill="#44FF44" d="M81.452,46.641c-2.487,9.349-11.349,10.076-14.685,10.35c-2.268,0.187-5.282-1.187-7.184-2.438
					c-1.694-1.115-5.15-5.657-5.17-5.693c-4.637-8.416,1.417-21.88,14.516-19.814c0.539,0.085,6.318,2.719,6.35,2.741
					c1.258,0.894,2.25,1.6,4.807,5.192C82.557,40.451,81.467,46.585,81.452,46.641"/>
				<path fill="#4BFF4B" d="M80.457,46.814c-1.201,4.272-4.979,6.885-6.795,8.141c-1.742,1.205-4.818,1.182-6.93,1.352
					c-2.272,0.185-5.244-1.31-7.162-2.544c-1.66-1.07-3.406-3.193-4.395-4.904c-1.265-2.189-3.699-7.968,1.002-14.311
					c3.971-5.354,10.737-5.129,13.01-4.591c2.031,0.481,4.561,1.831,6.254,3.053c0.366,0.264,3.697,4.113,3.717,4.141
					C81.906,41.262,80.614,46.258,80.457,46.814"/>
				<path fill="#51FF51" d="M79.444,46.982c-0.012,0.04-1.468,4.208-5.854,7.182c-1.75,1.186-4.787,1.293-6.895,1.461
					c-0.025,0.001-5.252-1.569-7.16-2.771c-1.365-0.86-2.78-2.609-3.598-4.001c-4.191-7.136-0.145-12.543,1.186-14.32
					c1.703-2.275,5.58-3.579,6.728-3.924c1.603-0.483,3.952-0.184,5.577,0.221C69.565,30.865,82.938,35.219,79.444,46.982"/>
				<path fill="#57FF57" d="M78.805,44.531c-0.077,0.779,0.092,1.905-0.279,2.595c-0.985,1.833-2.539,4.226-4.119,5.58
					c-0.899,0.771-1.062,0.91-7.751,2.236c-0.056,0.011-6.838-1.007-9.901-6.037c-4.251-6.98-0.352-12.174,1.314-14.392
					c0.995-1.326,5.868-3.151,5.911-3.162c1.661-0.401,4.03-0.072,5.684,0.361c3.748,0.982,7.548,5.717,7.581,5.764
					C79.226,40.255,79.012,42.429,78.805,44.531"/>
				<path fill="#5CFF5C" d="M77.612,47.263c-0.774,1.867-2.481,4.193-4.186,5.278c-0.318,0.202-6.113,1.666-6.813,1.721
					c-0.055,0.004-6.729-1.483-9.15-5.428c-4.202-6.844-0.268-11.981,1.213-13.915c0.159-0.208,5.031-2.737,5.432-2.82
					c1.706-0.353,4.106,0.039,5.785,0.504C73.277,33.539,80.525,40.235,77.612,47.263"/>
				<path fill="#61FF61" d="M76.684,47.395c-0.645,1.482-1.98,3.369-3.358,4.212c-0.356,0.218-6.48,2.008-6.755,1.974
					c-0.392-0.047-7.088-3.391-7.123-3.421c-1.326-1.158-2.102-3.548-2.743-5.187c-1.367-3.498,0.633-7.755,2.044-8.962
					c0.977-0.834,4.717-2.99,5.484-3.16c1.734-0.383,4.18,0.15,5.885,0.647c0.528,0.154,5.319,4.221,5.334,4.252
					c0.636,1.345,1.695,3.112,1.884,4.587C77.529,43.855,77.294,45.992,76.684,47.395"/>
				<path fill="#65FF65" d="M75.743,47.522c-0.493,1.085-1.448,2.508-2.481,3.101c-1.846,1.058-4.654,2.587-6.744,2.189
					c-2.339-0.446-5.359-1.922-7.102-3.545c-1.095-1.02-2.4-5.282-2.405-5.317c-0.007-0.051-0.055-5.52,1.808-6.836
					c0.19-0.135,4.688-3.312,5.536-3.504c1.777-0.402,4.349,0.141,6.007,0.895c1.467,0.667,3.193,2.101,4.18,3.375
					c0.917,1.183,1.406,3.197,1.979,4.58C77.106,43.879,76.379,46.123,75.743,47.522"/>
				<path fill="#6AFF6A" d="M74.795,47.643c-0.343,0.733-0.973,1.728-1.69,2.104c-1.864,0.979-4.585,2.716-6.643,2.27
					c-2.11-0.458-4.84-1.782-6.427-3.247c-1.238-1.143-2.322-4.802-2.326-4.833c-0.005-0.034-0.068-3.958,1.176-5.713
					c1.177-1.659,3.604-3.406,5.593-3.833c1.829-0.393,4.389,0.47,6.129,1.157c1.084,0.428,2.297,1.534,3.013,2.454
					c0.926,1.189,1.891,3.079,2.072,4.573C75.879,44.108,75.449,46.245,74.795,47.643"/>
				<path fill="#6EFF6E" d="M73.844,47.759c-0.178,0.369-0.486,0.89-0.858,1.063c-1.905,0.888-4.483,2.533-6.582,2.402
					c-1.674-0.104-3.647-1.511-4.999-2.502c-0.834-0.611-1.592-1.826-2.119-2.714c-1.967-3.31-0.092-6.856-0.069-6.886
					c1.201-1.587,3.446-3.452,5.395-3.864c1.872-0.396,4.431,0.706,6.233,1.345c0.676,0.24,1.421,0.94,1.848,1.518
					c0.9,1.22,1.982,3.063,2.162,4.569C75.037,44.229,74.517,46.362,73.844,47.759"/>
				<path fill="#72FF72" d="M72.887,47.868c-1.378,1.597-4.439,2.674-6.545,2.565c-1.193-0.062-2.674-0.98-3.57-1.771
					c-1.299-1.146-2.799-2.986-3.572-4.536c-0.352-0.707,1.448-5.023,1.473-5.055c0.891-1.214,2.592-2.646,4.068-2.943
					c1.917-0.386,4.461,0.975,6.334,1.536c0.256,0.076,0.531,0.348,0.684,0.566c0.871,1.255,2.074,3.049,2.252,4.566
					C74.191,44.345,73.579,46.472,72.887,47.868"/>
				<path fill="#77FF77" d="M72.547,45.733c-1.686,3.172-6.229,3.914-6.27,3.911c-0.715-0.039-1.628-0.553-2.141-1.052
					c-1.302-1.269-3.51-2.93-3.791-4.726c-0.24-1.534,0.926-3.562,1.779-4.858c0.561-0.851,1.74-1.815,2.741-2.002
					c1.628-0.304,3.788,0.817,5.339,1.395c0.457,0.17,0.916,0.689,1.238,1.056C72.706,40.891,73.443,44.044,72.547,45.733"/>
				<path fill="#7AFF7A" d="M72.195,43.548c-0.932,1.782-3.154,3.485-4.658,4.82c-0.317,0.281-0.902,0.511-1.326,0.489
					c-1.066-0.053-4.546-4.994-4.553-5.042c-0.233-1.556,1.146-3.511,1.918-4.883c0.258-0.459,0.896-0.945,1.414-1.043
					c0.843-0.159,2.088,0.213,2.762,0.744c1.324,1.04,3.102,2.439,4.23,3.688C72.232,42.597,72.369,43.217,72.195,43.548"/>
				<path fill="#7EFF7E" d="M66.092,47.513c-1.465-0.081-2.916-2.308-3.123-3.759c-0.006-0.044,1.98-4.947,2.141-4.977
					c0.053-0.01,0.129,0.013,0.17,0.047c1.554,1.296,5.033,2.355,5.133,4.376C70.502,45.029,67.92,47.613,66.092,47.513"/>
				<path fill="#82FF82" d="M65.908,45.624c-0.76-0.036-1.517-1.19-1.631-1.942c-0.129-0.856,0.275-2.464,1.119-2.662
					c1.065-0.25,2.726,1.291,2.762,2.386C68.189,44.353,66.855,45.668,65.908,45.624"/>
				<path fill="#85FF85" d="M65.712,43.751c-0.06-0.002-0.12-0.093-0.128-0.151c-0.012-0.068,0.021-0.196,0.088-0.211
					c0.084-0.02,0.215,0.104,0.217,0.19C65.891,43.653,65.786,43.755,65.712,43.751"/>
			</g>
		</g>
	</g>
</g>
</svg>
