---
title: "Glacier 41"
date: 2014-01-07 01:07:41
---
<svg xmlns="http://www.w3.org/2000/svg" version="1" x="0" y="0" width="310" height="310" viewBox="0 0 310 310" enable-background="new 0 0 310 310" xml:space="preserve"><polygon fill="#DCDCDC" points="162 217 174 220 175 220 184 220 193 213 194 209 200 202 203 200 202 197 201 195 201 193 204 185 206 183 205 181 202 169 201 168 201 166 200 163 199 159 200 152 195 142 193 141 191 136 180 134 170 115 168 112 164 105 162 103 161 101 155 95 154 95 152 93 146 92 143 91 136 90 123 93 119 96 115 102 113 106 111 109 111 110 108 113 108 121 105 129 105 136 107 144 107 146 108 150 108 167 106 173 114 194 118 201 133 208 137 209 142 211 145 211 150 212 162 217 162 217 162 217 162 217 "/></svg>
