---
title: "Glacier 83"
date: 2014-01-07 01:08:23
---
<svg xmlns="http://www.w3.org/2000/svg" version="1" x="0" y="0" width="310" height="310" viewBox="0 0 310 310" enable-background="new 0 0 310 310" xml:space="preserve"><polygon fill="#DCDCDC" points="134 172 134 173 135 167 137 163 138 163 138 161 140 158 142 155 142 154 147 147 153 136 155 134 155 133 160 127 161 126 164 126 165 127 171 133 173 135 173 137 175 144 175 146 176 149 176 152 175 167 172 172 171 174 170 175 169 176 168 179 164 183 162 184 161 184 155 184 153 183 152 182 149 180 144 177 141 175 136 174 134 172 134 172 134 172 "/></svg>
