---
title: "Glacier 103"
date: 2014-01-07 01:08:43
---
<svg xmlns="http://www.w3.org/2000/svg" version="1" x="0" y="0" width="310" height="310" viewBox="0 0 310 310" enable-background="new 0 0 310 310" xml:space="preserve"><polygon fill="#DCDCDC" points="161 154 161 156 161 158 160 159 160 160 159 163 157 165 156 169 155 171 154 171 153 170 152 169 150 169 149 167 147 164 147 162 147 161 148 160 147 159 147 158 147 155 148 152 148 151 149 151 149 150 149 148 149 147 150 147 151 145 151 144 151 144 152 143 153 141 155 140 157 140 160 140 160 140 161 140 162 142 162 143 161 144 161 144 161 145 161 146 162 147 163 150 162 153 162 154 161 154 161 154 161 154 161 154 161 154 161 154 161 154 "/></svg>
