<svg xmlns="http://www.w3.org/2000/svg" version="1" x="0" y="0" width="310" height="310" viewBox="0 0 310 310" enable-background="new 0 0 310 310" xml:space="preserve"><polygon fill="#DCDCDC" points="136 141 142 139 145 138 149 137 149 138 153 137 155 136 169 141 172 142 176 144 176 149 175 150 172 154 172 159 171 161 164 169 162 173 161 173 160 174 159 174 158 174 157 173 154 169 150 169 149 168 145 163 144 162 142 159 142 158 138 156 137 154 135 153 134 148 136 141 136 141 136 141 136 141 136 141 136 141 136 141 "/></svg>
