---
title: "Bone 72"
date: 2014-12-08 12:09:12
---
<svg xmlns="http://www.w3.org/2000/svg" version="1" x="0" y="0" width="300" height="300" viewBox="0 0 300 300" enable-background="new 0 0 300 300" xml:space="preserve"><polygon fill="#FFFF78" points="153 157 149 166 149 180 152 193 153 195 153 197 151 201 147 201 145 200 143 199 135 198 134 195 139 164 146 146 152 131 152 126 151 118 149 113 148 111 148 105 148 102 150 100 154 99 162 101 165 106 166 108 166 113 164 122 166 129 165 136 162 139 158 143 "/></svg>
