---
title: "Glacier 62"
date: 2014-01-07 01:08:02
---
<svg xmlns="http://www.w3.org/2000/svg" version="1" x="0" y="0" width="310" height="310" viewBox="0 0 310 310" enable-background="new 0 0 310 310" xml:space="preserve"><polygon fill="#DCDCDC" points="162 162 160 163 158 162 154 162 151 161 150 160 148 160 146 159 145 159 145 159 145 159 144 158 143 154 143 153 143 152 142 151 142 150 142 149 142 148 144 148 146 148 148 150 150 151 153 151 156 152 158 153 159 154 161 156 164 156 165 155 167 155 168 156 168 157 167 157 167 158 166 159 162 162 "/></svg>
