---
title: "Glacier 37"
date: 2014-01-07 01:07:37
---
<svg xmlns="http://www.w3.org/2000/svg" version="1" x="0" y="0" width="310" height="310" viewBox="0 0 310 310" enable-background="new 0 0 310 310" xml:space="preserve"><polygon fill="#DCDCDC" points="97 155 103 147 112 134 113 132 118 125 118 122 120 121 127 117 131 108 139 99 152 93 167 99 174 101 180 106 194 112 198 113 200 118 204 120 206 122 210 128 212 146 213 150 211 153 202 159 199 164 198 167 194 170 192 175 183 196 172 196 170 198 164 209 162 213 149 217 147 216 146 215 131 207 122 207 116 200 105 191 99 185 97 166 97 155 97 155 97 155 97 155 97 155 97 155 "/></svg>
