---
title: "Glacier 176"
date: 2014-01-07 01:09:56
---
<svg xmlns="http://www.w3.org/2000/svg" version="1" x="0" y="0" width="310" height="310" viewBox="0 0 310 310" enable-background="new 0 0 310 310" xml:space="preserve"><polygon fill="#DCDCDC" points="167 175 164 177 162 178 160 178 159 179 159 182 155 186 145 185 145 183 145 181 139 181 136 181 134 182 132 182 127 176 127 173 130 170 130 165 132 163 133 162 134 161 132 155 131 154 130 151 130 149 131 148 132 143 135 140 136 138 137 132 139 131 141 126 143 125 145 124 149 126 154 126 164 126 164 127 170 129 172 129 175 129 175 132 176 134 178 136 180 138 180 138 181 138 182 140 183 150 181 153 177 160 172 165 "/></svg>
