---
title: "Bone 48"
date: 2014-12-08 12:08:48
---
<svg xmlns="http://www.w3.org/2000/svg" version="1" x="0" y="0" width="300" height="300" viewBox="0 0 300 300" enable-background="new 0 0 300 300" xml:space="preserve"><polygon fill="#FFFF78" points="85 200 90 199 108 182 140 156 167 132 183 114 188 106 190 101 190 96 190 90 194 87 198 86 201 87 203 92 205 92 206 88 209 85 213 82 216 81 221 85 223 89 224 94 220 100 197 121 192 128 186 133 176 139 161 152 131 175 113 191 105 199 99 204 87 214 83 218 79 219 76 216 78 213 78 208 77 205 82 200 "/></svg>
