---
title: "Glacier 29"
date: 2014-01-07 01:07:29
---
<svg xmlns="http://www.w3.org/2000/svg" version="1" x="0" y="0" width="310" height="310" viewBox="0 0 310 310" enable-background="new 0 0 310 310" xml:space="preserve"><polygon fill="#DCDCDC" points="165 153 164 156 160 160 158 161 157 162 149 166 144 169 143 169 140 167 140 163 139 161 144 158 145 157 150 153 151 152 156 149 159 146 160 145 160 144 163 143 163 142 164 141 165 141 166 142 167 142 171 147 170 149 167 151 167 151 167 151 167 151 167 151 167 151 167 151 "/></svg>
