---
title: "Glacier 178"
date: 2014-01-07 01:09:58
---
<svg xmlns="http://www.w3.org/2000/svg" version="1" x="0" y="0" width="310" height="310" viewBox="0 0 310 310" enable-background="new 0 0 310 310" xml:space="preserve"><polygon fill="#DCDCDC" points="136 153 137 162 140 170 141 173 142 175 144 176 146 177 147 178 157 178 161 177 166 177 168 176 169 174 170 172 174 169 175 163 174 156 173 152 171 146 169 144 164 137 159 134 154 132 147 132 145 133 143 133 139 136 138 138 136 140 135 143 136 148 137 149 138 151 136 153 136 153 136 153 136 153 136 153 "/></svg>
