---
title: "Glacier 141"
date: 2014-01-07 01:09:21
---
<svg xmlns="http://www.w3.org/2000/svg" version="1" x="0" y="0" width="310" height="310" viewBox="0 0 310 310" enable-background="new 0 0 310 310" xml:space="preserve"><polygon fill="#DCDCDC" points="148 165 147 164 147 162 146 161 145 154 145 152 146 150 146 148 147 148 147 147 151 145 152 145 154 145 157 145 160 146 161 148 162 149 162 151 163 152 164 152 164 153 165 153 166 155 162 160 158 163 156 163 153 165 151 165 148 165 148 165 148 165 148 165 148 165 "/></svg>
