---
title: "Glacier 33"
date: 2014-01-07 01:07:33
---
<svg xmlns="http://www.w3.org/2000/svg" version="1" x="0" y="0" width="310" height="310" viewBox="0 0 310 310" enable-background="new 0 0 310 310" xml:space="preserve"><polygon fill="#DCDCDC" points="104 158 113 150 119 147 131 141 133 139 136 130 139 125 149 119 159 116 161 114 168 110 176 105 196 103 199 105 204 120 205 122 208 128 208 155 208 157 208 162 201 168 184 179 179 183 175 186 167 194 165 198 159 198 157 197 146 201 138 207 133 202 129 199 117 201 112 196 109 195 104 192 103 188 102 174 102 165 104 158 104 158 104 158 104 158 104 158 104 158 "/></svg>
