---
title: "Glacier 173"
date: 2014-01-07 01:09:53
---
<svg xmlns="http://www.w3.org/2000/svg" version="1" x="0" y="0" width="310" height="310" viewBox="0 0 310 310" enable-background="new 0 0 310 310" xml:space="preserve"><polygon fill="#DCDCDC" points="131 173 131 173 133 171 134 170 136 165 137 163 139 157 140 156 141 153 145 148 147 144 148 143 148 142 151 140 158 128 161 127 163 128 168 135 170 137 178 138 178 139 179 140 179 143 176 148 174 149 173 150 172 152 172 153 171 157 171 158 170 160 168 163 161 176 160 178 158 181 156 183 152 182 150 180 146 177 144 177 138 175 137 175 135 175 132 174 131 173 131 173 131 173 131 173 131 173 131 173 "/></svg>
