---
title: "Blue Star 13"
date: 2014-10-30 10:30:13
---
<?xml version="1.0" encoding="utf-8"?>
<!-- Generator: Adobe Illustrator 15.1.0, SVG Export Plug-In . SVG Version: 6.00 Build 0)  -->
<!DOCTYPE svg PUBLIC "-//W3C//DTD SVG 1.1//EN" "http://www.w3.org/Graphics/SVG/1.1/DTD/svg11.dtd">
<svg version="1.1" id="Layer_1" xmlns="http://www.w3.org/2000/svg" xmlns:xlink="http://www.w3.org/1999/xlink" x="0px" y="0px"
	 width="72px" height="72px" viewBox="0 0 72 72" enable-background="new 0 0 72 72" xml:space="preserve">
<polygon fill="#00FFFF" points="44.479,7.285 43.47,8.229 42.476,10.849 39.775,16.095 38.216,20.07 34.613,11.558 33.492,9.968
	30.008,6 30.436,14.173 31.547,20.257 30.88,19.029 29.481,16.655 27.973,14.444 24.463,9.783 25.723,18.357 26.269,22.521
	16.444,14.324 16.51,15.778 19.465,24.438 9.741,25.587 13.104,27.431 17.821,29.76 20.731,31.929 16.419,34.263 6,38.197
	7.506,39.088 12.401,40.966 17.682,41.001 20.186,41.233 10.608,50.282 14.204,49.886 17.754,49.485 19.935,48.797 22.946,48.486
	22.256,50.129 17.513,56.243 15.681,59.533 15.277,60.895 19.46,58.646 28.07,53.388 27.547,57.266 27.225,65.14 33.122,58.114
	34.676,56.959 39.143,64.618 40.188,66 42.987,57.608 43.466,54.486 46.282,57.391 48.232,59.956 50.796,62.188 52.802,63.628
	52.397,60.046 50.583,55.222 49.505,51.967 52.938,55.17 60.622,57.533 61.819,57.509 60.726,56.156 58.71,53.655 56.011,49.707
	53.536,46.986 57.327,46.986 61.46,46.665 63.656,46.282 59.646,42.82 56.387,40.858 51.6,39.311 59.528,36.851 63.54,36.426
	66,35.385 60.163,32.221 58.948,32.086 54.368,30.58 57.618,24.072 59.854,20.603 61.264,18.371 59.569,19.079 53.969,22.723
	50.687,25.203 51.143,22.787 51.596,21.689 53.236,12.174 50.729,14.942 49.402,16.563 48.78,17.931 46.605,20.443 44.78,22.912
	44.188,24.095 43.938,22.318 44.386,17.206 44.479,7.285 "/>
</svg>
