---
title: "Glacier 39"
date: 2014-01-07 01:07:39
---
<svg xmlns="http://www.w3.org/2000/svg" version="1" x="0" y="0" width="310" height="310" viewBox="0 0 310 310" enable-background="new 0 0 310 310" xml:space="preserve"><polygon fill="#DCDCDC" points="132 156 132 154 133 150 135 142 135 141 137 137 138 135 140 136 146 139 148 141 151 142 152 143 153 143 161 143 167 143 168 144 169 146 172 146 176 148 178 150 178 158 177 160 174 162 173 163 169 166 168 167 166 168 163 172 160 173 156 173 151 175 149 174 145 171 143 169 139 166 137 166 132 163 132 159 132 159 132 159 "/></svg>
