---
title: "Bone 46"
date: 2014-12-08 12:08:46
---
<svg xmlns="http://www.w3.org/2000/svg" version="1" x="0" y="0" width="300" height="300" viewBox="0 0 300 300" enable-background="new 0 0 300 300" xml:space="preserve"><path fill="#FFFF78" d="M171 149l-8 0 -6-9 2-3 2-3 -1-1 -5 0 -1-4 -3 2 -4 4 -2 4 -4-2 -2 0 -5 1 -6 4 -2 2 -1 4v5l1 3 1 9 3 4 3 2 3 0 4 0 6-3 2-2 2 1 4 3 6 1 -1-3 1-2 2 1 2 2 2 1 0-3 -1-4 3-6h3l4-4 1-2L171 149 171 149zM157 153l-3 1 -2 2 -5-6 1-4 4 0 1 1 1 1 3 1 0 3L157 153 157 153z"/></svg>
